<?xml version="1.0" encoding="utf-8"?>
<!-- Generator: Adobe Illustrator 24.0.3, SVG Export Plug-In . SVG Version: 6.00 Build 0)  -->
<svg version="1.1" xmlns="http://www.w3.org/2000/svg" xmlns:xlink="http://www.w3.org/1999/xlink" x="0px" y="0px"
	 viewBox="0 0 1000 1000" style="enable-background:new 0 0 1000 1000;" xml:space="preserve">
<style type="text/css">
	.st0{display:none;}
	.st1{display:inline;}
	.st2{fill:#231F20;}
	.st3{fill:#FFFFFF;}
	.st4{fill:url(#SVGID_1_);}
	.st5{fill:url(#SVGID_2_);}
	.st6{fill:url(#SVGID_3_);}
	.st7{fill:#439CD6;stroke:#FFFFFF;stroke-width:7;stroke-miterlimit:10;}
	.st8{fill:url(#SVGID_4_);}
	.st9{fill:url(#SVGID_5_);}
	.st10{fill:url(#SVGID_6_);}
	.st11{fill:#E8E0E0;}
</style>
<g id="clock" class="st0">
	<g class="st1">
		<path d="M889.79,131.8c-25.95-25.94-60.51-40.24-97.3-40.24c-0.01,0-0.01,0-0.02,0c-36.8,0-71.35,14.29-97.29,40.24
			c-5.03,5.03-7.8,11.72-7.8,18.83c0,7.12,2.77,13.8,7.8,18.83l59.66,59.66l-11.96,11.96c-59.36-53.58-135.18-86.05-214.6-91.91
			v-4.41h37.02c14.69,0,26.63-11.95,26.63-26.63c0-14.68-11.95-26.63-26.63-26.63H437.98c-14.69,0-26.63,11.95-26.63,26.63
			c0,14.68,11.95,26.63,26.63,26.63h37.04v4.41c-79.41,5.86-155.24,38.33-214.61,91.91l-11.96-11.96l59.66-59.66
			c4.96-4.96,7.8-11.82,7.8-18.83s-2.84-13.87-7.8-18.83c-53.66-53.66-140.97-53.66-194.63,0c-53.65,53.67-53.65,140.96-0.01,194.61
			c10.06,10.06,27.58,10.08,37.66,0l59.65-59.64l12.81,12.81c-53.15,64.45-82.36,145.55-82.36,228.95
			c0,119.41,58.86,230.34,157.73,297.8l-35.22,61c-3.55,6.17-4.5,13.33-2.66,20.2s6.25,12.61,12.39,16.16
			c12.26,7.09,29.32,2.5,36.39-9.73l35.18-60.94c49.14,23.84,101.79,35.92,156.59,35.92c54.79,0,107.45-12.08,156.59-35.92
			l35.18,60.93c4.73,8.22,13.57,13.32,23.08,13.32c4.66,0,9.27-1.24,13.3-3.57c6.16-3.56,10.57-9.3,12.41-16.17
			c1.84-6.87,0.89-14.04-2.66-20.2l-35.22-61c98.87-67.45,157.73-178.39,157.73-297.8c0-83.4-29.22-164.51-82.37-228.96l12.8-12.8
			l59.65,59.64c10.08,10.06,27.6,10.06,37.65,0c26-25.96,40.31-60.52,40.31-97.29C930.1,192.35,915.78,157.79,889.79,131.8z
			 M501.65,201.38c169.36,0,307.15,137.79,307.15,307.15S671.01,815.68,501.65,815.68S194.5,677.89,194.5,508.53
			S332.29,201.38,501.65,201.38z M876.84,229.12c0,13.24-3.06,26.17-8.9,37.8L754.7,153.67c32.34-16.21,71.51-10.16,97.44,15.78
			C868.06,185.4,876.84,206.58,876.84,229.12z M248.6,153.67L135.35,266.9c-16.22-32.3-10.16-71.48,15.79-97.44
			c16.32-16.32,37.85-24.77,59.63-24.77C223.64,144.69,236.59,147.64,248.6,153.67z"/>
		<path d="M589.72,634.26c5.03,5.03,11.72,7.8,18.83,7.8c7.12,0,13.8-2.77,18.83-7.8c5.03-5.02,7.8-11.71,7.8-18.83
			c0-7.11-2.77-13.79-7.8-18.83l-99.1-99.1V341.5c0-14.68-11.95-26.63-26.63-26.63s-26.63,11.95-26.63,26.63v167.03
			c0,7.02,2.84,13.88,7.8,18.83L589.72,634.26z"/>
	</g>
</g>
<g id="pillow" class="st0">
	<g class="st1">
		<path class="st2" d="M762.13,728.72c1.27,0,2.55-0.12,3.87-0.37c5.53-1.02,10.33-4.15,13.52-8.78c3.19-4.64,4.38-10.24,3.35-15.77
			c-10.81-58.34-16.7-117.74-17.51-176.41c0.81-59.01,6.7-117.75,17.49-174.57c2.16-11.42-5.36-22.47-16.77-24.63
			c-5.55-1.05-11.15,0.12-15.8,3.28c-4.65,3.17-7.8,7.96-8.84,13.49c-11.26,59.28-17.39,120.62-18.24,182.43
			c0.85,61.45,6.98,123.38,18.22,184.08C743.29,721.47,751.99,728.72,762.13,728.72z"/>
		<path class="st2" d="M888.01,757.13c13.72-75.2,21.22-152.86,22.28-230.99c-1.06-77.66-8.53-155.96-22.18-232.75l7.08-7.94
			c19.8-22.19,20.12-58.57,0.74-82.82c-10.35-12.93-25.08-20.58-40.39-21c-14.59-0.52-28.46,5.59-38.71,17.08l-11.53,12.92
			c-100.04-16.37-203.32-28.38-307.05-35.71c-103.93-6.14-207.45-7.51-307.7-4.07l-12.62-15.79
			c-10.34-12.94-25.07-20.58-40.39-20.99c-14.7-0.21-28.47,5.6-38.71,17.08c-19.8,22.19-20.12,58.56-0.74,82.82l7.91,9.88
			c-13.71,75.22-21.21,152.87-22.27,230.99c1.07,77.71,8.53,156,22.18,232.76l-7.08,7.93c-19.8,22.2-20.12,58.58-0.73,82.83
			c10.35,12.94,25.08,20.58,40.42,20.99c14.57,0.37,28.66-5.86,38.68-17.08l11.52-12.91c100.15,16.38,203.42,28.39,307.06,35.71
			c103.94,6.13,207.45,7.5,307.69,4.07l12.63,15.78c10.34,12.93,25.07,20.58,40.44,21l1.33,0.02c14.23,0,27.49-6.07,37.33-17.1
			c19.8-22.21,20.12-58.58,0.73-82.83L888.01,757.13z M145.73,775.21c-1.07,1.19-3.35,3.21-6.09,3c-2.96-0.08-6.03-1.91-8.64-5.18
			c-6.46-8.07-6.81-21.62-0.74-28.43l13.92-15.61c4.31-4.82,6.18-11.5,5-17.87c-14.39-77.66-22.24-156.87-23.33-235.27
			c1.08-78.62,8.93-156.9,23.31-232.69c1.15-6.05-0.4-12.28-4.25-17.09L131,208.65c-6.45-8.08-6.8-21.63-0.74-28.43
			c1.28-1.44,3.34-3.34,6.1-3.01c2.95,0.08,6.02,1.91,8.63,5.18l19.25,24.06c4.13,5.16,10.32,7.88,17.26,7.91
			c102.06-3.87,207.73-2.66,314.02,3.62c106.24,7.51,211.99,20,314.29,37.12c7.16,1.23,14.35-1.32,19.21-6.74l19.25-21.57
			c1.91-2.14,3.89-3.23,6.11-3.01c2.96,0.08,6.02,1.91,8.62,5.17c6.46,8.08,6.81,21.63,0.74,28.43L849.8,273
			c-4.37,4.91-6.19,11.43-4.99,17.87c14.4,77.71,22.25,156.91,23.33,235.27c-1.08,78.57-8.93,156.86-23.32,232.68
			c-1.16,6.05,0.39,12.29,4.25,17.1l13.92,17.41c6.46,8.07,6.81,21.62,0.74,28.43c-1.86,2.08-3.87,2.95-6.1,3.01
			c-2.96-0.08-6.03-1.92-8.64-5.19l-19.25-24.06c-4.01-5.01-9.99-7.9-17.2-7.9c-0.02,0-0.03,0-0.05,0
			c-102.31,3.87-207.97,2.64-314.01-3.63c-106.22-7.49-211.97-19.99-314.33-37.12c-7.2-1.18-14.35,1.38-19.18,6.76L145.73,775.21z"
			/>
	</g>
</g>
<g id="fork" class="st0">
	<g class="st1">
		<path d="M201.54,60.09c-78.8,0-127.19,122.02-127.19,209.49c0,82.96,39.23,124.65,85.43,139.32
			c-7.79,80.62-34.11,359.97-34.11,452.65c0,62.83,40.87,85.13,75.87,85.13c35,0,75.87-22.3,75.87-85.13
			c0-92.68-26.31-372.04-34.1-452.66c46.2-14.67,85.43-56.36,85.43-139.32C328.74,182.1,280.35,60.09,201.54,60.09z M201.54,898.45
			c-6.84,0-27.64,0-27.64-36.9c0-71.96,17.02-267.03,27.65-381.81c10.62,114.78,27.64,309.85,27.64,381.81
			C229.18,898.45,208.38,898.45,201.54,898.45z M201.54,366.97c-50.92,0-78.96-34.59-78.96-97.39c0-76.87,41.32-161.26,78.96-161.26
			s78.97,84.4,78.97,161.26C280.51,332.38,252.47,366.97,201.54,366.97z"/>
		<path d="M612.55,117.11c0,0,0.19,97.76,0.19,152.47c0,0.54-0.02,1.07-0.02,1.61h-16.55V117.07c0-13.32-10.8-24.12-24.12-24.12
			c-13.32,0-24.12,10.8-24.12,24.12v154.12h-16.57V117.07c0-13.32-10.8-24.12-24.12-24.12s-24.12,10.8-24.12,24.12v154.12h-16.56
			c0-0.54-0.02-1.06-0.02-1.61c0-54.71,0.21-152.46,0.21-152.46l-48.23-0.11c0,0-0.21,97.83-0.21,152.57
			c0,72.97,29.05,122.4,79.58,139.24c-7.78,80.51-34.12,360.02-34.12,452.74c0,62.83,40.86,85.13,75.85,85.13
			c35.01,0,75.9-22.3,75.9-85.13c0-92.72-26.34-372.25-34.11-452.75c50.52-16.85,79.55-66.27,79.55-139.23
			c0-54.74-0.19-152.56-0.19-152.56L612.55,117.11z M539.64,898.45c-6.83,0-27.62,0-27.62-36.9c0-71.96,17.02-267.03,27.65-381.81
			c10.63,114.78,27.64,309.86,27.64,381.81C567.3,898.45,546.48,898.45,539.64,898.45z M539.64,366.97
			c-33.83,0-56.01-15.97-66.34-47.55H606C595.66,351,573.47,366.97,539.64,366.97z"/>
		<path d="M897.75,55.32c-33.11,0-127.63,43.61-127.63,237.36c0,98.44,31.02,233.3,37.82,261.67
			c-6.14,32.97-37.82,207.98-37.82,307.21c0,62.83,40.88,85.13,75.88,85.13c35,0,75.87-22.3,75.87-85.13V79.43
			C921.86,66.12,911.06,55.32,897.75,55.32z M873.63,861.56c0,36.9-20.8,36.9-27.64,36.9c-6.84,0-27.65,0-27.65-36.9
			c0-102.97,37.56-301.35,37.94-303.35c0.65-3.42,0.55-6.94-0.29-10.32c-0.38-1.52-37.65-152.84-37.65-255.21
			c0-107.56,31.43-156.65,55.28-176.81V861.56z"/>
	</g>
</g>
<g id="lamp" class="st0">
	<path class="st1" d="M846.74,424.47L692.53,51.5c-3.9-9.46-13.05-15.57-23.29-15.57H296.27c-10.24,0-19.39,6.11-23.29,15.57
		L118.76,424.47c-3.23,7.78-2.36,16.64,2.34,23.65c4.68,7.02,12.52,11.2,20.96,11.2h51v194.45c0,13.9,11.31,25.21,25.21,25.21
		s25.21-11.31,25.21-25.21V459.32h42.19c-15.65,37.99-23.58,78.93-23.58,121.83c0,90,35.75,173.05,95.92,223.51l-90.75,118.89
		c-5.78,7.57-6.79,17.97-2.56,26.48c4.29,8.66,12.95,14.04,22.6,14.04h390.89c9.65,0,18.31-5.38,22.6-14.02
		c4.23-8.53,3.22-18.92-2.55-26.49L607.5,804.66c60.17-50.43,95.92-133.47,95.92-223.51c0-42.91-7.93-83.84-23.58-121.83h143.61
		c8.43,0,16.26-4.18,20.95-11.19l0.01-0.01C849.09,441.12,849.96,432.28,846.74,424.47z M627.23,913.64H338.26l67.73-88.75h153.52
		L627.23,913.64z M564.16,774.48H401.34c-54.84-38.89-88.83-112.75-88.83-193.33c0-43.52,9.89-85.56,28.65-121.83h283.19
		c18.74,36.25,28.64,78.29,28.64,121.83C652.98,661.74,618.99,735.61,564.16,774.48z M179.77,408.9L313.12,86.36h339.26
		L785.73,408.9H179.77z"/>
</g>
<g id="bed" class="st0">
	<path class="st1" d="M949.02,373.37c-12.14,0-22.02,9.87-22.02,22.01v23.81c-9.87-4.55-20.38-6.85-31.29-6.85H302.01v-3.96
		c0-43.18-35.13-78.31-78.32-78.31h-61.44c-43.18,0-78.31,35.13-78.31,78.31v7.33c-3.2,0.98-6.31,2.15-9.28,3.5V211.35
		c0-12.14-9.87-22.02-22.01-22.02s-22.02,9.88-22.02,22.02v565.51c0,12.14,9.88,22.02,22.02,22.02s22.01-9.88,22.01-22.02V651.25
		H927v125.61c0,12.14,9.88,22.02,22.02,22.02s22.02-9.88,22.02-22.02V395.38C971.05,383.24,961.16,373.37,949.02,373.37z
		 M127.98,408.37c0-18.89,15.38-34.26,34.27-34.26h61.44c18.89,0,34.27,15.37,34.27,34.26v3.96H127.98V408.37z M927,487.67V607.2
		H74.67V487.67c0-17.25,14.04-31.29,31.29-31.29h789.75C912.96,456.38,927,470.42,927,487.67z"/>
</g>
<g id="house" class="st0">
	<path class="st1" d="M943.87,396.84h0.01L536.14,57.38c-8.71-7.24-21.5-7.46-30.44-0.55L66.99,396.29
		c-8.24,6.37-11.5,17.26-8.14,27.1c3.36,9.84,12.61,16.45,23.01,16.45h80.04v466.75c0,13.41,10.9,24.31,24.31,24.31H422.5
		c13.41,0,24.32-10.9,24.32-24.31V636.1h116.54v270.49c0,13.41,10.91,24.31,24.32,24.31h236.29c13.41,0,24.31-10.9,24.31-24.31
		V439.84h80.04c10.2,0,19.39-6.45,22.86-16.04C954.66,414.2,951.73,403.36,943.87,396.84z M823.98,391.21
		c-13.41,0-24.32,10.9-24.32,24.31v466.75H611.99V611.78c0-13.41-10.9-24.31-24.31-24.31H422.5c-13.41,0-24.31,10.9-24.31,24.31
		v270.49H210.53V415.52c0-13.41-10.91-24.31-24.32-24.31h-33.19l367-283.96l341.1,283.96H823.98z"/>
</g>
<g id="tape" class="st0">
	<g class="st1">
		<path d="M841,183.4H157.66C95.21,183.4,44.4,234.2,44.4,296.66v423.96c0,62.45,50.81,113.26,113.27,113.26H841
			c62.45,0,113.27-50.81,113.27-113.26V296.66C954.26,234.2,903.45,183.4,841,183.4z M916.79,720.61c0,41.79-34,75.79-75.79,75.79
			H157.66c-41.79,0-75.79-34-75.79-75.79V296.66c0-41.79,34-75.79,75.79-75.79H841c41.79,0,75.79,34,75.79,75.79V720.61z"/>
		<path d="M357.6,508.64c0-47.67-38.78-86.45-86.45-86.45c-47.66,0-86.45,38.78-86.45,86.45s38.78,86.45,86.45,86.45
			C318.82,595.08,357.6,556.3,357.6,508.64z M222.18,508.64c0-27.01,21.97-48.97,48.97-48.97c27.01,0,48.98,21.97,48.98,48.97
			c0,27.01-21.97,48.97-48.98,48.97C244.15,557.61,222.18,535.64,222.18,508.64z"/>
		<path d="M727.51,368.51c-77.27,0-140.13,62.86-140.13,140.13c0,40.51,17.3,77.05,44.88,102.66H366.4
			c27.58-25.61,44.88-62.14,44.88-102.66c0-77.26-62.86-140.13-140.13-140.13c-77.27,0-140.13,62.86-140.13,140.13
			c0,77.27,62.86,140.13,140.13,140.13h456.36c77.26,0,140.13-62.86,140.13-140.13C867.64,431.37,804.78,368.51,727.51,368.51z
			 M168.5,508.64c0-56.6,46.05-102.65,102.65-102.65c56.6,0,102.65,46.05,102.65,102.65s-46.05,102.66-102.65,102.66
			C214.54,611.29,168.5,565.24,168.5,508.64z M727.51,611.29c-56.6,0-102.65-46.05-102.65-102.66s46.05-102.65,102.65-102.65
			c56.6,0,102.65,46.05,102.65,102.65S784.11,611.29,727.51,611.29z"/>
		<path d="M727.51,422.19c-47.66,0-86.45,38.78-86.45,86.45s38.78,86.45,86.45,86.45c47.66,0,86.45-38.78,86.45-86.45
			S775.17,422.19,727.51,422.19z M727.51,557.61c-27,0-48.97-21.97-48.97-48.97c0-27.01,21.97-48.97,48.97-48.97
			c27,0,48.97,21.97,48.97,48.97C776.48,535.64,754.51,557.61,727.51,557.61z"/>
	</g>
</g>
<g id="nav" class="st0">
	<g class="st1">
		<path d="M504.8,38.39c-170.1,0-308.49,138.38-308.49,308.48c0,163.32,279.47,589.45,291.37,607.52
			c3.79,5.75,10.22,9.22,17.12,9.22c6.89,0,13.33-3.47,17.12-9.22c11.9-18.06,291.36-444.2,291.36-607.52
			C813.28,176.78,674.9,38.39,504.8,38.39z M504.8,905.3c-25.58-40.09-76.14-121.02-126.2-210.86
			c-92.43-165.87-141.28-286.05-141.28-347.57c0-147.49,120-267.49,267.49-267.49c147.49,0,267.48,119.99,267.48,267.49
			c0,61.52-48.85,181.71-141.28,347.57C580.94,784.29,530.38,865.21,504.8,905.3z"/>
		<path d="M504.8,200.64c-69.28,0-125.65,56.36-125.65,125.65s56.37,125.65,125.65,125.65c69.28,0,125.64-56.36,125.64-125.65
			S574.08,200.64,504.8,200.64z M504.8,410.93c-46.68,0-84.65-37.97-84.65-84.65c0-46.68,37.97-84.65,84.65-84.65
			c46.67,0,84.64,37.97,84.64,84.65C589.44,372.96,551.47,410.93,504.8,410.93z"/>
	</g>
</g>
<g id="coffee" class="st0">
	<g class="st1">
		<path d="M783.62,417.32h-29.5h-70.58H154.77c-12.83,0-23.23,10.4-23.23,23.23v79.63c0,119.39,67.03,229.84,171.97,285.47v35.89
			c0,12.83,10.4,23.23,23.23,23.23h255.42c12.83,0,23.23-10.4,23.23-23.23v-35.89c56.9-30.16,102.65-76.46,132.62-131.55h45.62
			c70.79,0,128.38-57.6,128.38-128.4S854.42,417.32,783.62,417.32z M572.24,770.3c-8.13,3.83-13.32,12.01-13.32,21.01v27H349.97v-27
			c0-9-5.19-17.17-13.32-21.01C240.27,724.83,178,626.65,178,520.18v-56.4h505.54h47.35v56.4
			C730.89,626.65,668.61,724.83,572.24,770.3z M783.62,627.64h-24.87c12.1-34.03,18.59-70.31,18.59-107.46v-56.4h6.27
			c45.17,0,81.92,36.75,81.92,81.92C865.54,590.89,828.79,627.64,783.62,627.64z"/>
		<path d="M766.53,897.1H142.36c-12.83,0-23.23,10.4-23.23,23.23s10.4,23.23,23.23,23.23h624.17c12.83,0,23.23-10.4,23.23-23.23
			S779.36,897.1,766.53,897.1z"/>
		<path d="M352.96,360.09c5.71,0,11.43-2.09,15.91-6.31c44.05-41.44,33.15-107.21,23.53-165.23c-7.88-47.5-15.31-92.37,6.36-113.01
			c9.29-8.85,9.65-23.55,0.8-32.84c-8.84-9.28-23.54-9.65-32.84-0.8c-39.49,37.61-29.66,96.91-20.16,154.25
			c8.47,51.09,16.46,99.34-9.53,123.8c-9.34,8.79-9.79,23.49-1,32.84C340.6,357.63,346.77,360.09,352.96,360.09z"/>
		<path d="M535.22,360.09c5.72,0,11.43-2.09,15.91-6.31c44.06-41.44,33.16-107.21,23.54-165.24c-7.88-47.5-15.31-92.36,6.35-113.01
			c9.29-8.85,9.65-23.55,0.81-32.84c-8.84-9.29-23.55-9.64-32.84-0.8c-39.5,37.61-29.67,96.91-20.16,154.25
			c8.47,51.08,16.47,99.34-9.53,123.8c-9.35,8.79-9.79,23.49-1,32.83C522.87,357.63,529.03,360.09,535.22,360.09z"/>
	</g>
</g>
<g id="car" class="st0">
	<g class="st1">
		<path d="M964.59,547.94l-25.87-63.97c-1.13-2.78-3.11-5.14-5.65-6.73l-45.82-28.58c-1.72-1.08-3.66-1.77-5.66-2.04L739.34,427.9
			l-169.25-88.66c-2.04-1.07-4.3-1.62-6.6-1.62H328.02c-2.07,0-4.12,0.45-6,1.33l-173.26,80.58l-66.86,5.24
			c-7.4,0.58-13.1,6.76-13.1,14.17v91.68l-17.03,3.24c-6.71,1.28-11.55,7.14-11.55,13.97v75.23c0,4.03,1.71,7.87,4.7,10.56
			l28.58,25.77c2.61,2.35,6,3.66,9.52,3.66h78.84c13.77,23.45,39.24,39.23,68.34,39.23c25.82,0,48.79-12.42,63.26-31.6H756.8
			c14.47,19.17,37.44,31.6,63.25,31.6c29.1,0,54.57-15.79,68.34-39.23h63.02c7.85,0,14.22-6.37,14.22-14.22v-95.55
			C965.62,551.45,965.27,549.64,964.59,547.94z M230.19,673.84c-28,0-50.78-22.78-50.78-50.78s22.78-50.78,50.78-50.78
			s50.78,22.78,50.78,50.78c0,9.22-2.48,17.87-6.8,25.34c-0.34,0.49-0.64,0.99-0.91,1.52C264.28,664.27,248.34,673.84,230.19,673.84
			z M820.06,673.84c-18.13,0-34.07-9.56-43.05-23.89c-0.28-0.55-0.6-1.08-0.95-1.58c-4.31-7.46-6.78-16.1-6.78-25.31
			c0-28.01,22.78-50.78,50.78-50.78s50.78,22.78,50.78,50.78S848.06,673.84,820.06,673.84z M937.19,634.6h-38.78
			c0.55-3.77,0.85-7.63,0.85-11.55c0-43.67-35.54-79.21-79.21-79.21c-43.67,0-79.21,35.54-79.21,79.21c0,6.61,0.83,13.04,2.36,19.19
			H307.04c1.54-6.15,2.36-12.57,2.36-19.19c0-43.67-35.53-79.21-79.21-79.21c-43.68,0-79.21,35.54-79.21,79.21
			c0,3.92,0.3,7.78,0.85,11.55H88.48l-19.83-17.87v-57.15l17.03-3.24c6.71-1.28,11.55-7.14,11.55-13.97v-90.3l56.31-4.41
			c1.69-0.13,3.35-0.57,4.89-1.29l172.73-80.34h228.84l168.39,88.21c1.48,0.78,3.09,1.29,4.75,1.5l141.67,18.65l39.29,24.51
			l23.1,57.13V634.6z"/>
		<path d="M713.75,483.32l-149.73-98c-2.31-1.52-5.02-2.32-7.78-2.32h-80.3c-7.85,0-14.22,6.36-14.22,14.22v98
			c0,7.85,6.36,14.22,14.22,14.22h230.03c6.28,0,11.83-4.13,13.62-10.15C721.38,493.25,719.01,486.76,713.75,483.32z M490.15,481
			v-69.57H552L658.29,481H490.15z"/>
		<path d="M432.38,383H326.21c-3.57,0-7.02,1.35-9.64,3.77l-106.17,98c-4.3,3.97-5.73,10.17-3.6,15.62s7.39,9.04,13.24,9.04h212.33
			c7.85,0,14.22-6.36,14.22-14.22v-98C446.59,389.36,440.23,383,432.38,383z M418.16,481H256.4l75.37-69.57h86.39V481z"/>
	</g>
</g>
<g id="google">
	<g>
		<g>
			<path class="st3" d="M1000,500.04C1000,776.16,776.16,1000,500.04,1000h-0.05C223.85,1000,0,776.15,0,500.01v0
				C0,223.87,223.85,0.01,499.99,0.01h0.05C776.16,0.01,1000,223.85,1000,499.97V500.04z"/>
			<g>
				<linearGradient id="SVGID_1_" gradientUnits="userSpaceOnUse" x1="843.7631" y1="206.8375" x2="555.6595" y2="837.4895">
					<stop  offset="0.2347" style="stop-color:#F5831F"/>
					<stop  offset="0.2593" style="stop-color:#F6871F"/>
					<stop  offset="0.6539" style="stop-color:#FBC911"/>
					<stop  offset="0.8316" style="stop-color:#FEE200"/>
				</linearGradient>
				<path class="st4" d="M501.48,833.2c0.18-4.39-1.19-9.67,0.75-13.05c44.32-77.24,88.17-154.77,133.88-231.18
					c39.71-66.38,34.21-141.47-17.22-199.43c-2.73-3.08-4.87-6.67-9.05-12.48c7.65-1,12.26-2.12,16.87-2.13
					c56.2-0.12,112.41,0.13,168.61-0.27c9.95-0.07,15.74,2.65,17.97,12.79c6.42,29.18,13.23,58.26,19.89,87.39
					c0,16.78,0,33.57,0,50.35c-0.86,3.74-2.13,7.44-2.53,11.23c-14.73,137.57-113.67,251.94-247.78,285.67
					c-18.97,4.77-38.45,7.47-57.7,11.12C517.28,833.2,509.38,833.2,501.48,833.2z"/>
				<radialGradient id="SVGID_2_" cx="512.8317" cy="316.5785" r="220.0272" gradientUnits="userSpaceOnUse">
					<stop  offset="0.1684" style="stop-color:#C22126"/>
					<stop  offset="0.7653" style="stop-color:#DE2C27"/>
				</radialGradient>
				<path class="st5" d="M525.17,166.82c27.3,5.97,55.35,9.66,81.77,18.34c74.32,24.42,132.04,71.12,174.2,136.95
					c2.44,3.81,3.01,8.81,4.45,13.25c-4.52,1.08-9.04,3.1-13.56,3.1c-90.27-0.06-180.54-0.09-270.81-0.67
					c-71.12-0.46-134.86,45.39-156.41,113.36c-1.28,4.04-2.91,7.97-5.56,15.2c-4.65-5.75-7.95-8.92-10.16-12.72
					c-28.67-49.4-56.9-99.05-85.98-148.21c-5.17-8.74-3.3-14,2.49-20.62c58.3-66.67,130.83-106.18,219.29-115.59
					c3.36-0.36,6.63-1.57,9.94-2.39C491.61,166.82,508.39,166.82,525.17,166.82z"/>
				<radialGradient id="SVGID_3_" cx="688.8868" cy="915.0645" r="894.0723" gradientUnits="userSpaceOnUse">
					<stop  offset="0.2347" style="stop-color:#209B48"/>
					<stop  offset="0.8316" style="stop-color:#6ABD45"/>
				</radialGradient>
				<path class="st6" d="M166.81,474.83c6.79-29.57,12.74-59.38,20.74-88.62c3.85-14.07,11.27-27.22,17.69-40.49
					c1.96-4.06,5.97-7.14,9.04-10.66c3.17,3.42,7.11,6.38,9.39,10.31c38.57,66.41,76.52,133.19,115.58,199.31
					c14.44,24.45,28.49,50.17,47.81,70.47c39.09,41.09,89.13,53.68,144.9,44.05c5.35-0.92,11.03,0.06,16.56,0.15
					c-1.84,5.31-2.89,11.06-5.63,15.85c-26.82,47.05-54.36,93.69-80.63,141.05c-6.22,11.21-12.87,13.18-24.57,11.18
					c-131.54-22.41-244.48-136.74-265.3-269.11c-1.74-11.07-3.71-22.1-5.57-33.15C166.81,508.4,166.81,491.62,166.81,474.83z"/>
				<path class="st7" d="M623.95,500.4c0.81,67.2-54.22,122.67-122.58,123.56c-70.13,0.91-124.5-53.32-125.42-125.1
					c-0.85-66.82,54.76-122.26,123.2-122.81C568.55,375.48,623.09,429.83,623.95,500.4z"/>
			</g>
		</g>
	</g>
</g>
<g id="Layer_12" class="st0">
	<g class="st1">
		<g>
			<radialGradient id="SVGID_4_" cx="294.4984" cy="1077.2694" r="1322.1796" gradientUnits="userSpaceOnUse">
				<stop  offset="0.0969" style="stop-color:#FFD87A"/>
				<stop  offset="0.1426" style="stop-color:#FCCE78"/>
				<stop  offset="0.2263" style="stop-color:#F5B471"/>
				<stop  offset="0.3378" style="stop-color:#EB8D65"/>
				<stop  offset="0.449" style="stop-color:#E36058"/>
				<stop  offset="0.6786" style="stop-color:#CD3694"/>
				<stop  offset="1" style="stop-color:#6668B0"/>
			</radialGradient>
			<path class="st8" d="M999.98,501.15c0,275.51-223.34,498.85-498.85,498.85h-0.06C225.57,1000,2.23,776.66,2.23,501.15v-0.03
				C2.23,225.58,225.6,2.22,501.13,2.22h0c275.51,0,498.85,223.34,498.85,498.85V501.15z"/>
			<g>
				<path class="st3" d="M645.51,124.87h-288.8c-128.06,0-231.86,103.8-231.86,231.87v288.78c0,128.03,103.8,231.82,231.86,231.82
					h288.8c128.05,0,231.84-103.79,231.84-231.82V356.74C877.35,228.67,773.56,124.87,645.51,124.87z M805.12,617.8
					c0,103.49-83.9,187.34-187.32,187.34H384.42c-103.48,0-187.36-83.84-187.36-187.34V384.42c0-103.43,83.88-187.34,187.36-187.34
					H617.8c103.42,0,187.32,83.91,187.32,187.34V617.8z"/>
				<path class="st3" d="M511.19,304.23c-109.49,0-198.23,88.71-198.23,198.19c0,109.43,88.74,198.2,198.23,198.2
					c109.46,0,198.2-88.77,198.2-198.2C709.39,392.93,620.65,304.23,511.19,304.23z M511.19,621.66
					c-65.91,0-119.28-53.41-119.28-119.24c0-65.9,53.37-119.25,119.28-119.25c65.84,0,119.24,53.35,119.24,119.25
					C630.43,568.25,577.03,621.66,511.19,621.66z"/>
				<path class="st3" d="M746.08,301.13c0,27.84-22.61,50.4-50.42,50.4c-27.83,0-50.38-22.56-50.38-50.4
					c0-27.82,22.55-50.43,50.38-50.43C723.47,250.7,746.08,273.31,746.08,301.13z"/>
			</g>
		</g>
	</g>
</g>
<g id="Layer_13" class="st0">
	<g class="st1">
		<g>
			<radialGradient id="SVGID_5_" cx="508.7932" cy="1225.1874" r="1343.5449" gradientUnits="userSpaceOnUse">
				<stop  offset="0" style="stop-color:#3C5A9A"/>
				<stop  offset="0.301" style="stop-color:#3C5A9A"/>
				<stop  offset="1" style="stop-color:#6483C2"/>
			</radialGradient>
			<path class="st9" d="M1000,502.12c0,275.45-223.29,498.74-498.74,498.74h-0.05c-275.47,0-498.78-223.31-498.78-498.78v0
				c0-275.45,223.3-498.75,498.75-498.75h0.07C776.71,3.34,1000,226.63,1000,502.08V502.12z"/>
			<path class="st3" d="M707.06,254.87h92.02V110.23H684.8l0,0h-23.63c0,0-86.7-2.15-141.98,69.69c0,0-37.64,35.5-38.22,139.43
				h-0.03v108.48H344.63v153.58h136.31v396.77h157.21V581.41H773.4l18.85-153.58H638.15V319.35h-0.04
				C638.49,307.23,643.89,253.78,707.06,254.87z"/>
		</g>
	</g>
</g>
<g id="Layer_14" class="st0">
	<g class="st1">
		<g>
			<path class="st3" d="M999.21,501.29c0,275.91-223.67,499.57-499.57,499.57h-0.05c-275.92,0-499.6-223.68-499.6-499.6v-0.05
				C-0.01,225.3,223.66,1.64,499.56,1.64h0.07c275.91,0,499.57,223.67,499.57,499.57V501.29z"/>
			<g>
				<radialGradient id="SVGID_6_" cx="487.3613" cy="860.8021" r="722.4462" gradientUnits="userSpaceOnUse">
					<stop  offset="0.1684" style="stop-color:#C22126"/>
					<stop  offset="0.7653" style="stop-color:#DE2C27"/>
				</radialGradient>
				<path class="st10" d="M875.07,591.86c0,94.65-32.37,171.36-126.97,171.36h-486.9c-94.64,0-137.11-76.71-137.11-171.36V410.64
					c0-94.65,38.43-171.35,133.06-171.35h494.93c94.65,0,122.98,76.7,122.98,171.35V591.86z"/>
				<g>
					<polygon class="st3" points="424.33,398.87 628.89,505.64 424.33,612.37 					"/>
					<polygon class="st11" points="424.33,400.49 602.24,519.5 628.89,505.64 440.14,407.14 424.33,400.28 					"/>
				</g>
			</g>
		</g>
	</g>
</g>
</svg>
