<?xml version="1.0" encoding="utf-8"?>
<!-- Generator: Adobe Illustrator 22.1.0, SVG Export Plug-In . SVG Version: 6.00 Build 0)  -->
<svg version="1.1" xmlns="http://www.w3.org/2000/svg" xmlns:xlink="http://www.w3.org/1999/xlink" x="0px" y="0px"
	 viewBox="0 0 300 300" style="enable-background:new 0 0 300 300;" xml:space="preserve">
<style type="text/css">
	.st0{fill:#3C9DAD;stroke:#000000;stroke-miterlimit:10;}
	.st1{fill:none;}
	.st2{stroke:#000000;stroke-width:0.5;stroke-miterlimit:10;}
</style>
<g id="Layer_2">
	<g>
		<path d="M39.3,262.3c0.4-0.2,0.4-0.6,0.4-1c0-1,1-2.4,1.4-3.3c0.5-1.2,1.1-2.4,1.7-3.6c0.5-0.9,1-1.8,1.3-2.8c0.4-1.1,1-2,1.4-3.1
			c0.2-0.4,0.4-0.9,0.6-1.3c0.5-1,1-1.8,2.2-1.7c1.7,0.1,3.2-2.3,4-3.5l0.4-0.5c0,0,0.5,0.3,0.5,0.3c0.8,0.5,2.1,0.6,3,1
			c0.6,0.3,0.7,0.7,0.8,1.3c0.3,1.8,0.6,3.7,0.9,5.5c0.2,0.9,0.4,1.9,0.6,2.8c0.3,1.3,0.4,1,1.6,0.9c0.1,0,0.3,0,0.4,0
			c-0.3,0,1.2,0.9,1.2,1c0.5,0.3,0.8,0.6,1.4,0.8c0,0-0.3,0.6-0.3,0.6c-0.5,1-1.5,1.8-2.5,2.3c-0.1,0-0.1,0.1-0.2,0.1
			c0,0.1,0,0.1,0,0.2c0.3,1.7,0.6,3.2-0.3,4.8c-0.6,1-1.5,1.8-2.5,2.2c-1.3,0.5-2.2,0.2-3.3-0.6c0,0,0-0.7,0-0.8
			c-0.1-0.3-0.3-0.5-0.5-0.8c-0.1-0.1-0.9-1.1-1-1.1l1.1-0.3c0.6-0.2,1.1-0.4,1.3-0.7c0.2-0.3,0.5-1.2,0.2-1.5
			c-0.3-0.3-1.8,0.1-2.1,0.2c-1.5,0.3-3.1,0.8-4.6,0.4c-0.1-0.3-0.4-0.6-0.5-0.9c-0.3-0.5-0.4-1.1-0.5-1.7c0.1,0.6-0.4,0.8-0.7,1.2
			c-1,1.5-0.7,4.6-2.3,5.6c-1.2,0.7-2.3,1.6-3.5,0.5C40.6,264.7,39.5,262.3,39.3,262.3z M49.5,253.9c-0.3,0.4-0.6,0.9-0.9,1.3
			c0.1,0,0.3,0,0.4,0c0.1,0,0.3,0,0.4,0c0.7,0,1.4-0.1,2.1-0.2c0.6-0.1,1.3-0.2,2.1-0.3c-0.2-0.8-0.4-1.6-0.6-2.4
			c-0.2-0.8-0.4-1.7-0.7-2.5l-0.2,0.3c-0.5,0.6-1,1.2-1.5,1.9C50.3,252.7,49.9,253.3,49.5,253.9L49.5,253.9z"/>
		<path d="M69.8,259.5c0.2,0.5-1.7,2.3-1.8,2.9c-0.1,0.2-0.1,0.5-0.1,0.7c-0.1,0.5-0.2,0.9-0.4,1.3c-0.1,0.3-1,0.8-0.9,0.9
			c-0.8,0.5-1.5,0.2-2-0.5c-0.6-0.8-1-1.7-1.4-2.6c-0.3-0.6-0.1-1.4-0.5-1.9c1-2.2,2.2-4.6,3.4-7.1s2.4-5,3.5-7.5
			c0.5,0.2,1,0.4,1.5,0.7c0.5,0.2,0.9,0.5,1.3,0.9c0.4,0.3,0.7,0.7,1,1.1c0.8,1.1,0.3,2.4-0.1,3.5c-0.5,1.4-0.4,2.5-0.5,3.9
			c0,1,0,2.1,0.2,3.1c0.7-0.4,1.4-1,1.8-1.7c0.5-0.7,0.8-1.5,1.1-2.4c0.3-0.9,0.5-1.8,0.7-2.8c0.1-1,0.3-2,0.5-3.1
			c0-0.2,0.4-0.6,0.5-0.9c0.1-0.2,0.7-2.5,0.8-2.5c1,0.1,1.5,1.1,2.4,1.5c0.2,0.1,0.3,0.1,0.5,0.3c0.1,0.1,0.2,0.2,0.3,0.4
			c0.3,0.4,0.5,0.7,0.6,1.1c0.3,0.9-0.4,2-0.7,2.8c0,0.1,0,0.1-0.1,0.2c-0.9,2.8-0.7,5.9-2.1,8.5c-0.7,1.4-1.6,2.9-2.8,3.9
			c-0.5,0.4-1,0.7-1.6,0.8c-1.6,0.3-2.9-1.3-3.8-2.4C70.8,261.7,70.3,260.7,69.8,259.5z"/>
		<path d="M97.6,256.7c-0.1,1.7-1.2,2.9-2.5,4c-1,0.8-2,1.5-3.2,2c-1.7,0.9-3.5,1.5-5.2,2.3c-1.1,0.5-2.7,1.2-3.5-0.1
			c-0.3-0.5-0.5-1.1-0.6-1.7c-0.4-2.2,0.5-4,1.1-6c0.5-1.6,0.5-3,0.3-4.6c-0.1-0.8-0.6-1.9-0.4-2.7c0-0.1,0-0.2,0-0.2
			c0-0.2,0-0.3,0.2-0.3c0.9,0,0.2-1.1,0-1.6c0-0.2,0.2-2.3,0.5-2.2c2.3,0.7,4.6,1.6,6.7,2.7c2.9,1.5,6.4,4.3,6.7,7.8
			C97.6,256.3,97.6,256.5,97.6,256.7z M90.2,258.6c0.6-0.4,1.2-0.7,1.6-1c1-0.5,3.4-1.8,2-3.1c-1.4-1.3-2.6-2.3-4.4-3
			c-0.5-0.2-1.7-0.9-2.2-0.9c-0.1,0-0.3,0-0.4,0.1c-0.1,0.1,0.6,4,0.6,4.4c0,1.6-0.3,3-0.4,4.5C88,259.9,89.1,259.3,90.2,258.6z"/>
		<path d="M103.3,262c-0.3,1-0.6,2-1.2,2.9c-0.8,1.3-2.3,0.6-3-0.4c-0.2-0.7-0.5-1.5-0.6-2.3c-0.1-0.8,0.3-1.7,0.5-2.5
			c0.1-0.3,0.1-0.6,0.2-0.9c0-0.2,0-0.4,0.1-0.6c0.1-1.5,0.7-2.9,1-4.3c0.1-0.6,0.2-1.1,0.4-1.7c0.1-0.6,0.3-1.1,0.5-1.5
			c0.2,0,0.5,0,0.8,0.1c0.3,0.1,0.5,0.4,0.8,0.2c2-1.8,3.1-5.2,6.1-5.5c1.2,0.9,2.2,1.7,3.3,2.7c0.1,0.1,0.2,0.2,0.2,0.2
			c0.1,0.1,0.1,0.2,0.1,0.3c0.1,0.2,0.2,0.3,0.3,0.4c0.5,0.7,0.8,1.5,1.1,2.3c0.6,1.5,0.8,3.2-0.4,4.5c-0.9,0.9-2.1,1.6-3.3,2
			c-0.4,0.1-3.5,0.9-3.5,1.2c0,0.1,0,0.1,0.1,0.1c0.1,0,0.1,0.1,0.1,0.2c0.5,0.3,0.9,0.6,1.2,0.8c1.7,1.1,4,1.5,6,1.8
			c0.3,0,0.6,0.1,1.1,0.1c0.2,0.2,0.4,0.4,0.5,0.7c0.1,0.3,0.2,0.5,0.3,0.8c0.4,2.3-1.6,3.2-3.6,2.7c-1.7-0.4-3.3-0.9-4.9-1.6
			c-0.8-0.4-1.6-0.8-2.3-1.3C104.9,263.3,103.3,262.2,103.3,262z M107.9,251c-0.2,0.3-0.5,0.7-0.8,0.9c-0.3,0.3-0.6,0.6-0.8,0.9
			c-0.3,0.3-0.5,0.6-0.7,1s-0.4,0.8-0.4,1.2c0.7-0.1,1.5-0.3,2.3-0.6s1.6-0.6,2.3-0.9c-0.1-0.7-0.3-1.2-0.7-1.6
			C108.7,251.4,108.3,251.1,107.9,251z"/>
		<path d="M133.8,247.3C133.9,247.3,133.9,247.3,133.8,247.3c0.3,0.8-0.1,1.6-0.8,2.1c-0.6,0.5-1.4,0.7-2.1,0.9
			c-1.7,0.4-3.5,0.9-5.2,1.3c-0.5,0.1-2.2,0.3-2.3,0.7c-0.3,0.9,1.2,1.1,1.8,1c1.1-0.1,2.2-0.2,3.3-0.3c0.1,0,0.1,0,0.2,0
			c0.1,0,0.1,0.1,0.1,0.2c0.4,1,3,1.8,1.6,3c-1,0.9-2.3,1.4-3.6,1.6c-1.3,0.2-2.8-0.3-4,0.1c-0.7,0.2-0.9,0.7-1.2,1.3
			c-0.3,0.5-0.5,1.1-0.7,1.6c1.8,0.3,3.6,0,5.4-0.2c1.1-0.1,3.1-1.1,4.1-0.8c0.7,0.2,1.6,1.6,2,2.1c0,0.1,0.1,0.1,0.1,0.2
			c0,0.1,0,0.1-0.1,0.2c-0.2,0.5-0.5,0.9-1,1.3c-1.4,1.3-3.5,1.4-5.3,1.6c-2.4,0.3-6.1,1.1-8.2-0.5c-0.4-0.3-0.8-0.8-1-1.4
			c-0.1-0.3-0.2-0.6-0.2-0.9c-0.3-1.5-0.4-3.1,0.3-4.6c0.8-1.6,1.7-3.1,2.3-4.7c-1-0.9-1.1-2.4-1.2-3.6c0-0.2-0.1-0.5,0-0.7
			c0.1-0.2,0.3-0.4,0.6-0.5c1.4-0.7,2.9-1.1,4.4-1.5c2.4-0.6,4.7-1.1,7.1-1.3c1.1-0.1,2.4,0,3.2,0.8
			C133.6,246.9,133.7,247.1,133.8,247.3z"/>
		<path d="M151.3,265.6C151.2,265.6,151.2,265.6,151.3,265.6c-1.4-0.3-2.2-1.6-2.8-2.7c-0.1-0.2-1.5-2.9-1.4-2.9l-0.4,0.4l-0.6,0.5
			c0,0-0.3,0.3-0.3,0.3c-1.6,1.6-3.4,3.1-5.5,3.8c-1.2,0.4-2.3,0.5-3.4-0.2c-1.1-0.7-3.4-3-3.1-4.5c0.1-0.3,0.2-0.8,0.3-1.5
			c0.1-0.7,0.3-1.5,0.5-2.4c0.6-2.8,1.3-5.8,2.7-8.3c0.3-0.5,0.6-1,0.9-1.3c0.3-0.4,0.7-0.6,1.1-0.7c0.1,0.1,0.2,0.3,0.4,0.3
			c0.8,0.4,1.4,1.4,2,2c0.4,0.5-0.1,1.4-0.2,1.9c-0.2,0.7-0.4,1.3-0.6,2c-0.2,0.7-0.4,1.3-0.7,1.9c-0.2,0.6-0.4,1.2-0.5,1.6
			c-0.1,0.4-0.2,0.8-0.3,1.2c-0.2,0.8-0.4,1.9-0.5,3.2c0.3-0.1,0.5-0.2,0.8-0.4c2.4-1.7,3.8-4,5.3-6.5c0.3-0.5,0.7-1.1,1-1.7
			c0.4-0.6,0.7-1.2,1.1-1.7c0.4-0.5,0.7-1,1-1.5c0.3-0.4,0.7-0.8,0.9-1.1c0.2,0.2,0.4,0.4,0.7,0.6c0.9,0.6,1.4,1.1,2,2.1
			c0.4,0.6,0.1,1.1,0,1.8c-0.5,2.6-1.2,4.9-0.7,7.6c2.3-1.5,3.6-4,4.6-6.6c1-2.5,1.7-5.2,3.3-7.4c1.3,0.7,2.3,1.8,2.8,3.2
			c0.2,0.4,0.3,0.8,0.2,1.3c0,0.5-0.2,0.9-0.4,1.4c-0.4,1-0.9,2.1-1.3,3.1c-0.9,2.2-1.8,4.5-3.1,6.6
			C156,262.8,153.7,266.1,151.3,265.6z"/>
		<path d="M173.1,262.7c0-0.2-0.1-0.3-0.1-0.5c-0.3-1.2,0.3-3.2,0.6-4.4c0.2-1,0.3-2.1,0.5-3.2c0.2-1.1,0.7-2.1,0.9-3.2
			c0.1-0.7,0.3-1.4,0.4-2c0.2-0.7,0.4-1.3,0.6-1.8c0.3,0,0.6,0,0.9,0.1c0.3,0.1,0.6,0.3,0.7,0.4c0.7-0.5,1.3-1.1,1.8-1.9
			c0.5-0.7,1-1.4,1.6-2.1c0.5-0.7,1.1-1.3,1.8-1.8c1.6-1.3,2.7-0.8,4.2,0.2c1,0.6,2.3,1.9,2.8,2.9c0.8,1.8,1.8,3.5,2.1,5.4
			c0,0.1,0,0.3,0,0.4c0,2-1.8,3.6-3.5,4.5c-0.9,0.4-1.9,0.8-3,1.1c-1,0.3-2,0.6-2.9,1c0,0.1,0,0.1,0.1,0.1c0.1,0,0.1,0.1,0.1,0.2
			c1.4,0.8,2.7,1.7,4.2,2.2c1.6,0.5,3.3,0.7,4.9,0.9c0.3,0,0.6,0.1,0.8,0.2c0.6,0.3,0.7,1.1,0.8,1.7c0.2,1.4,0.4,2.6-1.2,3.2
			c-0.8,0.3-1.8,0.3-3,0s-2.7-0.8-4.6-1.5c-1.7-0.6-3.3-1.4-4.7-2.4c-0.6-0.4-1.2-1.5-1.8-0.9c-0.5,0.5-0.3,1.4-0.6,2.1
			c-0.3,0.9-1.3,2-2.4,1.9C174,265.4,173.4,263.7,173.1,262.7z M184.1,247.9c-0.3,0.4-0.6,0.8-0.9,1.1c-0.3,0.3-0.7,0.7-1,1
			c-0.3,0.4-0.6,0.7-0.9,1.2c-0.3,0.4-0.4,0.9-0.5,1.5c0.9-0.1,1.8-0.4,2.8-0.8c1-0.4,1.9-0.8,2.8-1.1c-0.1-0.8-0.4-1.4-0.8-1.9
			C185.1,248.4,184.6,248.1,184.1,247.9z"/>
		<path d="M212.6,262.6c-0.3,1.2-1.3,2.3-2.5,2.8c-0.8,0.4-1.7,0.4-2.4-0.2c-0.6-0.5-0.3-0.9-0.6-1.5c-0.2-0.4-0.7-0.6-1-1
			c0.5-0.1,0.9-0.2,1.3-0.4c0.6-0.3,1.4-1,0.7-1.5c-0.5-0.3-1.5,0-2,0.2c-0.6,0.2-1.4,0.4-2.1,0.4c-1.6,0-2.1-1.1-2.4-2.4
			c-0.5,1.5-1.6,2.6-1.9,4.2c-0.3,1.4-1.6,3.1-3.3,2.2c-0.6-0.4-1-1.3-1.3-1.9c-0.2-0.5-0.2-0.3-0.1-0.8c0-0.3,0.2-0.6,0.3-0.9
			c0.2-0.7,0.6-1.4,0.9-2.1c0.6-1.4,1.3-2.7,2-4.1c0.6-1.3,1.2-2.7,1.8-4c0.2-0.4,0.3-0.7,0.5-1.1c0.3-0.6,0.7-1.3,1.5-1.4
			c0.2,0,0.4,0,0.5,0c0.7-0.1,3.7-3.2,3.4-3.4c0.8,0.5,1.7,0.6,2.6,0.9c0.3,0.1,0.6,0.3,0.8,0.5c0.4,1.1,0.4,2.4,0.6,3.6
			c0.1,0.4,0.9,5.3,1.5,5c0.1,0,0.2-0.1,0.3-0.1c0.9-0.2,2.1,1.1,2.9,1.4c0,0-0.3,0.5-0.3,0.5c-0.5,1-2.5,1.7-2.1,2.7
			C212.8,260.9,212.8,261.9,212.6,262.6z M203.4,257.1c0.6,0,1.2-0.1,1.8-0.1c0.5-0.1,1.1-0.1,1.8-0.3c-0.1-0.6-0.3-1.3-0.5-2
			s-0.4-1.4-0.5-2.1l-0.2,0.3c-0.4,0.4-0.8,1-1.2,1.5c-0.4,0.6-0.7,1.1-1,1.6c-0.1,0.2-0.3,0.4-0.4,0.6c-0.1,0.2-0.2,0.4-0.4,0.6
			c0.1,0,0.3,0,0.4,0C203.1,257.1,203.2,257.1,203.4,257.1z"/>
		<path d="M220.6,263.1c0.1,0.9,0.1,1.8-0.9,2.3c-0.3,0.2-0.7,0.3-1.1,0.3c-0.4,0-0.8,0-1.2-0.1c-0.4-0.1-0.9-1.9-1-2.2
			c-0.8-2.5-0.7-5-0.3-7.6c0.2-1.3,0.8-2.6,1-3.9c0.4-1.7,0.7-3.2,1.3-4.8c0-0.1,0.1-0.2,0.2-0.3c0.6-0.6,1.4-1.3,2.3-1.3
			c0.6,0,0.9,1.9,1,2.3c0.1,0.6,0.2,1.1,0.3,1.7c0.1,0.4,0.4,0.9,0.4,1.3c0,0.1,0,0.2-0.1,0.3c-0.3,0.9-0.5,1.9-0.9,2.7
			c-0.9,2.7-1.4,5.5-1.1,8.4C220.6,262.5,220.6,262.8,220.6,263.1z"/>
		<path d="M229,259.5C229,259.5,229,259.5,229,259.5c-0.7,0.9-1.3,1.9-1.6,3c-0.4,1.1-1.2,3.7-2.9,2.8c-0.5-0.2-0.8-0.7-1-1.1
			c-0.6-0.9-1-1.9-1.3-2.9c-0.1-0.3-0.2-0.6-0.1-1c0-0.3,0.2-0.6,0.3-1c2.2-4.6,4.4-9.2,6.6-13.8c0.9,0.4,1.8,0.7,2.6,1.3
			c0.8,0.6,1.4,1.4,1.6,2.4c0.2,1.1-0.3,2.2-0.7,3.3c-0.6,2-0.6,4.2,0.1,6.1c2.1-1.2,3-3.8,3.4-6.2c0.4-2.4,0.6-4.9,1.9-7
			c0.1-0.1,0.1-0.2,0.2-0.2c0.1,0,0.2,0,0.3,0.1c0.5,0.3,0.9,0.6,1.4,1c0.5,0.4,1.1,0.8,1.5,1.3c0.4,0.5,0.7,1.2,0.5,1.8
			c-0.1,0.5-0.4,1-0.7,1.4c-0.6,1.2-0.7,2.5-0.9,3.9c-0.4,3.2-1.4,6.5-3.7,8.7c-0.8,0.8-1.9,1.4-3,1.1c-0.6-0.1-1.1-0.5-1.5-0.9
			C230.7,262.7,229.7,261.2,229,259.5z"/>
		<path d="M242.6,250.9c0.9-2.5,4.2-3.1,6.7-3.9c2.6-0.9,5.4-1.6,8.1-1.4c0.5,0,0.9,0.1,1.3,0.4c0.3,0.2,0.6,0.6,0.8,0.9
			c0.4,0.6,0.7,1.3,1,1.9c0.1,0.2,0.2,0.5,0.2,0.7c-0.1,0.8-1,1-1.8,1c-2.9,0.1-6.1-0.6-8.8,0.6c-0.1,0-0.2,0.1-0.2,0.1
			c-0.1,0.2,0.1,0.5,0.4,0.6c0.6,0.3,1.3,0.6,1.9,0.9c0.3,0.1,0.6,0.3,0.8,0.5c0.2,0.2,0.3,0.6,0.4,0.9c0.5,1.1,1.4,1.9,1.8,3
			c0.4,1.1,0.2,2.5-0.3,3.6c-0.6,1.1-1.5,2-2.5,2.7c-1.8,1.3-4,2.2-6.2,2.5c-0.9,0.1-2,0.1-2.5-0.6c-0.2-0.3-0.3-0.7-0.3-1
			c-0.1-0.5-0.1-1-0.1-1.4c0-0.3,0-0.6,0.2-0.9c0.3-0.4,0.9-0.5,1.5-0.5c2.4-0.1,4.7-1.1,6.5-2.6c0.5-0.4,1-1.1,0.6-1.6
			c-0.1-0.2-0.3-0.3-0.6-0.4c-1.3-0.6-2.6-0.9-3.9-1.1c-1.2-0.2-2.5-0.2-3.7-0.6c-0.6-0.2-1.2-0.7-1.5-1.3c-0.2-0.4-0.2-0.8-0.2-1.1
			C242.4,252,242.5,251.4,242.6,250.9z"/>
	</g>
</g>
<g id="Layer_1">
	<path class="st0" d="M207.9,175c-0.3,0.4-0.5,0.8-0.9,1c-0.4,0.3-0.9,0.4-1.3,0.6c-0.2,0.1-0.3,0.3-0.5,0.4
		c-0.2,0.1-0.4,0.2-0.6,0.2c-0.5,0-1,0-1.6,0c0-0.2-0.1-0.4,0-0.6c0.4-0.5,0.8-1,1.3-1.4c0.5-0.4,1-0.9,1.3-1.5
		c0.2-0.3,0.5-0.7,0.7-1c0.3-0.4,0.6-0.7,0.8-1.1c0.6-1.1,1.2-2.2,1.6-3.5c0.1-0.4,0.2-0.8,0-1.2c-0.3-0.9-0.5-1.9-0.8-2.9
		c-0.3-1.1-0.5-2.3-0.8-3.3c-0.8-2.2-1.4-4.5-1.9-6.8c-0.1-0.5-0.3-0.9-0.5-1.4c-0.1-0.2-0.2-0.4-0.1-0.7c0-0.1,0.1-0.3,0-0.5
		c-0.3-1.1-0.5-2.2-1.2-3.1c-0.2-0.3-0.5-0.6-0.6-0.9c-0.1-0.2-0.2-0.5-0.3-0.8c-0.1-0.4,0.3-0.7,0.7-0.5c0.3,0.1,0.6,0.3,0.9,0.5
		c0.3-1.4-0.8-4-2.8-5c0,0.7,0.1,1.3,0.1,2c0.1,1.4-0.1,2.7-1,3.8c-0.2,0.3-0.3,0.6-0.5,0.9c-0.6,1-1.1,2-1.7,3
		c-0.3,0.5-0.7,1-1,1.5c-0.5,0.9-1,1.9-1.4,2.9c-0.5,1.1-0.9,2.2-1.8,3c-0.1,0.1-0.1,0.2-0.2,0.3c-0.3,0.3-0.5,0.5-0.8,0.8
		c-0.7,0.8-1.6,1.3-2.4,2c-0.7,0.7-1.6,1.1-2.7,1.2c-1,0.1-2,0.2-2.9,0.4c-0.7,0.1-1.4,0-2-0.2c-0.5-0.2-1.1-0.5-1.6-0.7
		c-0.6-0.3-1.3-0.4-1.8-1c-0.1-0.2-0.5-0.3-0.8-0.4c-0.8-0.3-1.6-0.5-2.3-1c-0.9-0.6-1.8-1-2.9-0.9c-0.2,0-0.3,0-0.5,0
		c-0.9-0.2-1.9-0.3-2.7-0.8c-1-0.6-2-1.2-3-1.7c-0.7-0.4-1.2-1-1.8-1.5c-0.1-0.1-0.1-0.4,0-0.6c0.1-0.2,0.3-0.3,0.5-0.2
		c0.3,0.1,0.6,0.3,0.8,0.5c0.1,0.1,0.2,0.3,0.4,0.1c-0.2-1-0.5-1.9-1.4-2.5c-0.2-0.1-0.4-0.3-0.5-0.5c-0.1-0.2-0.2-0.4-0.3-0.6
		c0.3-0.3,0.5-0.7,1-0.9c0.2,0.4,0.2,0.9,0.7,1.2c0.9,0.6,1.5,1.5,2,2.5c0.5,1,1.3,1.8,2.3,2.3c0.4,0.2,0.8,0.3,1.2,0
		c0.3-0.2,0.5-0.2,0.8-0.1c0.8,0.3,1.7,0.2,2.6,0.2c0.9,0,1.7-0.2,2.5-0.7c0.6-0.4,1.2-0.8,1.8-1.1c0.5-0.3,1-0.5,1.5-0.6
		c0.9-0.1,1.6-0.6,2.2-1.1c1-0.8,1.4-1.9,1.6-3.1c0.1-0.7,0.2-1.5,0.4-2.2c0.3-1.4,0.7-2.7,1.5-3.9c0.6-0.8,1-1.7,1.2-2.7
		c0.1-0.4,0.2-0.7,0.3-1.1c0.3-0.7,0.4-1.3,0.3-2.1c0-1.9-0.2-3.8-0.4-5.7c-0.1-1.5-0.4-2.9-0.8-4.4c-0.5-1.5-0.8-3.1-1.2-4.7
		c-0.3-1.3-0.7-2.5-1.1-3.8c-0.8-2.2-1.7-4.3-3.2-6.1c-0.2-0.2-0.3-0.6-0.7-0.5c-0.3,0.1-0.2,0.5-0.3,0.8c0,0.1,0,0.2,0,0.4
		c0.3,1.8,0.1,3.5,0.1,5.3c0,0.2,0,0.3-0.1,0.5c-0.1,0.3-0.3,0.6-0.7,0.6c-0.1,0-0.3-0.1-0.4-0.2c-0.1-0.2-0.1-0.4-0.1-0.6
		c0-1.2,0-2.4-0.1-3.6c0-0.5,0-1.1,0-1.6c-0.1-1-0.2-2-0.7-2.9c-1-1.9-1.3-4-1.5-6.1c-0.1-1-0.3-2-0.7-3c-0.4-0.9-0.7-1.9-0.8-3
		c-0.1-0.7-0.1-1.4-0.2-2.1c-0.1-0.8-0.3-1.6-0.7-2.3c-0.3-0.6-0.9-1.1-1.4-1.6c-0.9-1-2-1.8-3.1-2.4c-0.8-0.4-1.5-0.9-2.1-1.6
		c-0.4-0.4-0.8-0.8-1.3-1c-0.6-0.2-1.1-0.6-1.5-1.2c-0.4-0.6-1.1-0.9-1.8-0.8c-0.9,0.2-1.8,0-2.7-0.1c-0.8-0.1-1-0.3-0.6-1.1
		c0.1-0.1,0.2-0.2,0.3-0.3c0.5,0.1,0.9,0.3,1.3,0.4c0.3,0.1,0.6,0.2,0.9,0.1c0.7-0.1,1.3-0.2,2.1,0c0.6,0.1,1.1-0.6,0.8-1.1
		c-0.1-0.2-0.2-0.5-0.3-0.7c-1.6-2.5-3-5.1-4.3-7.7c-0.3-0.7-0.5-1.4-0.9-2c-0.7-1.4-1.5-2.7-1.7-4.3c0-0.1-0.1-0.2-0.1-0.2
		c-0.6-1.4-1.4-2.7-2.2-4c-0.1-0.2-0.2-0.3-0.5-0.2c-0.5,1.2-0.5,2.5-0.4,3.7c0,1.7,0.2,3.4,0.6,5c0.4,1.4,0.3,2.9,0.2,4.3
		c0,0.5-0.1,1.1-0.3,1.6c-0.5,1.4-1,2.9-1.6,4.3c-0.4,0.9-0.3,1.8,0.1,2.6c0.2,0.4,0.4,0.7,0.8,0.9c0.8,0.3,1.4,0.9,1.8,1.6
		c0.3,0.5,0.7,0.9,1.1,1.3c0.8,0.8,1.4,1.7,1.4,2.9c0,0.6,0,1.2,0,1.7c0,0.1,0,0.3-0.1,0.4c-0.1,0.2-0.3,0.4-0.5,0.3
		c-0.1,0-0.3-0.2-0.4-0.3c-0.2-0.4-0.3-0.8-0.4-1.2c-0.5-1.3-1.3-2.4-2.3-3.2c-0.3,0.2-0.6,0.4-0.9,0.6c-0.3,0.1-0.5,0.4-0.5,0.6
		c-0.2,0.7-0.5,1.4-0.5,2.2c-0.1,1-0.2,2-0.4,2.9c-0.2,1.2-0.6,2.3-0.6,3.5c0.1,1.6-0.2,3.2-0.7,4.7c-0.2,0.8-0.3,1.6-0.3,2.4
		c0,0.7-0.1,1.5-0.2,2.2c-0.1,0.8-0.4,1.6-0.5,2.4c-0.1,0.8-0.4,1.5-0.7,2.2c-0.5,1.3-1,2.7-1.5,4c-0.4,1-0.7,2.1-1,3.2
		c-0.6,2-1.3,3.9-1.6,5.9c-0.2,1.5-0.2,3,0.2,4.5c0.3,1.6,0.8,3.2,1.3,4.8c0.1,0.4,0.3,0.7,0.5,1c0.4,0.7,0.8,1.5,1.1,2.2
		c0.6,1.2,1.1,2.4,1.7,3.6c0.1,0.3,0.3,0.6,0.4,0.9c0.1,0.3,0.2,0.6,0.3,0.9c0.1,0.4,0.1,0.7,0.2,1.1c0.1,0.3,0.1,0.6-0.1,1
		c-0.1,0.3-0.1,0.6-0.2,1c-0.6-0.9-1.1-1.8-1.2-2.8c-0.1-0.4-0.2-0.7-0.3-1.1c-0.1-0.2-0.1-0.4-0.2-0.4c-0.6-0.2-0.8-0.8-1.2-1.2
		c-0.2-0.2-0.5-0.3-0.8-0.5c-0.8,0.3-1.2,0.8-1.4,1.4c-0.4,1.2-0.7,2.5-0.5,3.7c0.2,1.5,0.1,3,0,4.4c-0.1,1.4-0.3,2.9-0.5,4.3
		c-0.1,1-0.4,1.9-0.3,2.9c0.1,1.9,0.4,3.8,0.2,5.6c0,0.1,0,0.2,0,0.4c0,0.8,0.1,1.6,0,2.3c-0.2,1.9,0.1,3.9,0.3,5.8
		c0,0.2,0.1,0.3,0.1,0.5c0.4,1,0.8,1.9,1.1,2.9c0.1,0.2,0.2,0.4,0.3,0.5c0.2,0.2,0.4,0.4,0.5,0.7c0.1,0.2,0.2,0.5,0.4,0.7
		c1.1-1.5,1.3-3.3,1.4-4.9c0.1-0.9,0-1.9,0-2.8c0-0.1,0-0.2,0-0.2c0-0.2,0.3-0.4,0.6-0.4c0.3,0,0.6,0.1,0.7,0.5
		c0.2,0.7,0.4,1.4,0.3,2.2c-0.1,0.9-0.1,1.8-0.2,2.7c-0.1,0.7-0.2,1.4-0.3,2.1c-0.1,0.6-0.1,1.2-0.1,1.8c0,1.2,0.4,2.4-0.3,3.5
		c-0.1,0.2,0,0.4,0,0.6c-0.2,1-0.1,2,0,3.1c0.1,1.3,0.5,2.4,1,3.5c1.3,2.4,2.9,4.5,5.3,5.9c1.1,0.7,1.9,1.7,2.4,2.9
		c0.3,0.8,0.6,1.7,0.9,2.6c0.4,1.4,1.2,2.5,2.2,3.5c0.8,0.8,1.8,1.6,2.7,2.3c0.4,0.4,0.9,0.7,1.4,1c0.8,0.6,1.6,1.3,2.7,1.3
		c0.1,0,0.2,0,0.2,0.1c1.3,0.5,2.5,0.9,3.9,1.4c0.5-0.3,1.1-0.5,1.6-0.8c0.6-0.3,1.2-0.6,1.9-0.9c0.8-0.3,1.6-0.6,2.4-0.9
		c0.5-0.2,0.9-0.3,1.4-0.3c0.7,0,1.2-0.3,1.7-0.8c0.6-0.7,1.3-1.4,1.9-2.1c0.2-0.2,0.4-0.4,0.7-0.5c0.2-0.1,0.6,0.2,0.5,0.5
		c0,0.1,0,0.3-0.1,0.3c-0.4,0.4-0.6,1-0.9,1.5c-0.2,0.4-0.5,0.7-0.8,1.1c-0.3,0.5-0.8,0.7-1.3,0.9c-0.8,0.2-1.6,0.4-2.4,0.6
		c-0.8,0.2-0.9,0.6-0.4,1.2c0.1,0.1,0.2,0.3,0.4,0.3c0.9,0.4,1.8,1,2.8,1.2c1,0.2,2,0.2,3.1,0.1c1.7-0.1,3.3-0.8,4.8-1.4
		c0.5-0.2,0.9-0.4,1.4-0.5c0.8-0.2,1.7-0.3,2.6-0.3c1.2-0.1,2-0.5,2.7-1.4c0.3-0.3,0.5-0.6,0.8-0.9c0.7-0.7,1.4-1.4,2-2.2
		c0.5-0.5,0.9-1.1,1.5-1.4c0.2-0.1,0.4-0.3,0.5-0.5c0.9-1.2,1.7-2.3,2.6-3.5c0.3-0.4,0.5-0.9,0.6-1.5c0.4-1.5,0.7-3,1-4.4
		c0.2-0.7,0.2-1.4-0.4-2c-0.6-0.4-1.2-0.3-1.9-0.1c-0.4,0.2-1,0.4-1.4,0.3c-0.6-0.1-1.1,0-1.5,0.3c-0.6,0.3-1.1,0.5-1.8,0.4
		c-0.6,0-1.2,0-1.7-0.1c-1.2-0.2-2.1,0.3-3,1.2c0.4,0.2,0.7,0.3,1,0.5c0.6,0.3,1.3,0.6,1.9,1c0.7,0.4,1.3,0.9,1.5,1.8
		c-0.5,0.7-0.7,0.8-1.3,0.4c-0.1-0.1-0.2-0.1-0.3-0.2c-0.7-0.6-1.5-0.9-2.3-1.1c-0.8-0.2-1.7-0.4-2.5-0.8c-1.6-0.6-3.2-1.2-4.7-2.2
		c-1.1-0.8-2.4-1.3-3.6-1.9c-0.6-0.2-1.1-0.5-1.7-0.7c-1.6-0.5-3.2-0.8-4.7-1.3c-2.2-0.7-4-1.9-5.1-4c-0.6-1.1-1.1-2.3-1.6-3.5
		c-0.2-0.4-0.4-0.8-0.5-1.2c-0.3-0.6-0.7-1.1-0.8-1.8c-0.3-1.3-1-2.4-1.9-3.4c-0.4-0.4-0.7-0.9-1-1.4c-0.3-0.5-0.5-1.1-0.7-1.7
		c-0.4-1.1-1.1-1.9-2.3-2.2c-0.3-0.1-0.6-0.1-0.8-0.2c-0.3-0.1-0.4-0.2-0.5-0.5c-0.1-0.3-0.1-0.6-0.1-1c1-0.3,1.9-0.2,2.6,0.4
		c0.9,0.6,1.9,1,2.5,2c0.1,0.1,0.2,0.2,0.3,0.2c0.7,0.4,1.3,0.9,2,1.3c1.5,0.9,2.8,1.9,4,3.1c1.3,1.3,2.8,2.3,4.4,3.2
		c0.7,0.4,1.5,0.7,2.5,0.7c-0.1-1.3-0.6-2.5-0.7-3.6c-0.3-0.2-0.5-0.3-0.7-0.5c-0.1-0.3-0.1-0.5-0.1-0.8c-0.1-0.4,0-0.6,0.3-0.7
		c0.2-0.1,0.6,0,0.8,0.3c0.1,0.1,0.1,0.1,0.1,0.2c0.9,1.4,1.9,2.7,2.5,4.2c0.6,1.5,1.8,2.7,3.1,3.6c0.9,0.6,1.9,0.9,3,1.2
		c1.2,0.3,2.4,0.5,3.6,0.9c1.8,0.6,3.6,0.6,5.5,0c1.4-0.4,2.8-0.9,4.3-1.3c1.5-0.4,2.7-1.1,3.6-2.4c0.2-0.3,0.4-0.5,0.6-0.8
		c0.3-0.5,0.7-1,1.2-1.4c0.2-0.2,0.4-0.4,0.5-0.7c0.5-0.8,0.5-1.7,0.4-2.6C209.1,176,208.6,175.4,207.9,175z M165.1,141.3
		c-0.4-0.5-0.9-1-1.5-1.3c-0.6,0.2-0.9,0.7-0.8,1.2c0,0.4,0.1,0.7,0.3,1.1c0.5,0.9,0.5,1.9,0.6,2.8c-0.7,0.2-0.8,0.2-1-0.2
		c-0.1-0.1-0.1-0.3-0.2-0.4c-0.4-0.9-0.8-1.7-1.2-2.6c-0.3-0.8-0.5-1.6-0.6-2.4c-0.1-1.1-0.3-2.2-0.1-3.3c0-0.2,0-0.5,0-0.7
		c-0.1-1.6,0.2-3.1,0.6-4.6c0.3-1.3,0.2-2.6,0.1-3.9c-0.1-0.6-0.1-1.1-0.2-1.7c-0.1-0.8,0-1.6,0-2.5c0.2-2.1,0.7-4,1.2-6
		c0.2-0.8,0.5-1.5,0.8-2.2c0.4-0.9,0.7-1.7,1.2-2.6c0.6-1,0.8-2.2,0.3-3.3c-0.2-0.6-0.5-1.2-0.7-1.8c-0.4-0.9-0.8-1.9-0.9-2.9
		c-0.1-0.7,0.1-0.8,1-0.7c0.4,1.5,0.4,1.5,1.5,3c0.3,0.4,0.6,0.7,0.5,1.2c0,0.2,0,0.4,0.1,0.6c0.4,0.6,0.4,1.3,0.3,2
		c0,0.3,0,0.7,0.3,0.9c0.7,0.7,1.1,1.6,1.5,2.5c0.3,0.6,0.6,1.2,1.2,1.6c0.4,0.3,0.6,0.6,0.9,1c1.2,1.6,2.3,3.3,3.3,5.1
		c0.5,0.8,1,1.6,1.5,2.4c1.1,1.9,2,4,2.8,6c0.3,0.7,0.6,1.4,1,2c0.3,0.5,0.8,0.8,1.3,1.2c0.2,0.2,0.5,0.3,0.7,0.5
		c0.4,0.3,0.7,0.7,0.9,1.2c0.1,0.5,0.3,0.9,0.4,1.4c0.1,0.4,0,0.6-0.3,0.7c-0.3,0.1-0.7,0-0.9-0.2c-0.1-0.1-0.2-0.3-0.2-0.4
		c-0.3-0.9-1-1.4-1.7-1.9c-0.1-0.1-0.3-0.1-0.5-0.1c-0.1,0.3-0.3,0.5-0.3,0.8c-0.3,1.8-0.8,3.5-1.4,5.1c-0.6,1.7-1.7,3.1-3.5,3.8
		c-0.4,0.1-0.8,0.2-1.2,0.2c-0.2,0-0.4,0-0.5,0c-0.7,0.4-1.5,0.1-2.1-0.1c-1.1-0.4-2.2-0.8-3.4-1.2
		C165.9,142,165.5,141.7,165.1,141.3z"/>
	<path class="st0" d="M179.8,224.7c-0.3-0.1-0.6-0.2-0.9-0.2c-0.8,0-1.6-0.1-2.4-0.3c-0.7-0.2-1.3-0.4-2-0.5c-0.4,0.2-0.5,0.6-0.5,1
		c0,0.4-0.2,0.6-0.4,0.9c-0.1,0.1-0.4,0.2-0.5,0.2c-0.2,0-0.3-0.2-0.4-0.4c-0.2-0.7-0.3-1.5-0.8-2.1c-0.7-0.9-1.5-1.7-2.6-2.1
		c-1.1-0.4-2.2-0.7-3.3-1.1c-0.7-0.2-1.4-0.4-2.2-0.5c-1.1-0.2-1.9-0.7-2.7-1.4c-0.5-0.4-1-0.9-1.5-1.3c-0.4-0.3-0.8-0.5-1.4-0.5
		c-1.1-0.1-2.2,0-3.3,0.5c-0.8,0.4-1.6,0.4-2.4,0.2c-0.3-0.1-0.6-0.1-0.8-0.2c-0.6-0.3-1.2-0.6-1.8-1c-0.2-0.1-0.2-0.3-0.2-0.5
		c0.1-0.2,0.4-0.4,0.6-0.3c0.2,0.1,0.3,0.2,0.5,0.2c0.2,0.1,0.5,0.2,0.7,0.2c0.7,0,1.4-0.1,2.1-0.2c0.3,0,0.5-0.2,0.7-0.3
		c0.1-0.5-0.1-0.8-0.3-1.1c-0.4-0.5-0.8-0.9-1.4-1.2c-2.3-1.2-4.4-2.8-6.5-4.3c-1.3-0.9-2.6-1.7-4.1-2.2c-0.7-0.3-1.4-0.6-2.1-1
		c-0.5-0.3-0.9-0.5-1.5-0.6c-1.3-0.3-2.5-0.9-3.6-1.8c-0.6-0.5-1.3-0.9-2-1.1c-0.2,0-0.3-0.1-0.4-0.2c-0.3-0.2-0.3-0.6,0-0.8
		c0.3-0.2,0.5-0.2,0.8-0.1c1.1,0.3,2,0.9,2.9,1.5c1.3-0.2,2.5,0.1,3.6,0.7c0.7,0.4,1.3,0.5,2,0.2c1.1-0.4,2.2-0.5,3.4-0.5
		c0.8,0,0.9-0.1,1.3-1c-0.5-1-1-2.1-1.4-3.1c-0.3-0.6-0.6-1.2-1.2-1.6c-1.1-0.7-2.1-1.6-2.7-2.8c-0.1-0.2-0.2-0.3-0.3-0.5
		c-0.2-0.3-0.3-0.7-0.4-1c-0.6-1-0.9-2-1.1-3.1c-0.1-1.2-0.3-2.4-0.9-3.6c-0.9-2-1.4-4-1.8-6.1c-0.1-0.7-0.4-1.4-0.6-2.1
		c-0.2-0.6-0.7-1-1.4-1.2c-0.1,0.3-0.2,0.4-0.1,0.5c0.1,1.8,0.3,3.6,0.4,5.4c0.1,0.9,0.3,1.7,0.4,2.5c0,0.3-0.1,0.6-0.4,0.7
		c-0.3,0.1-0.5,0-0.6-0.2c-0.9-1.2-1.8-2.3-1.9-3.8c0-0.1-0.1-0.2-0.1-0.4c-0.2-1.1-0.4-2.2-0.4-3.3c0.1-1.7,0.5-3.3,1.2-4.9
		c0.7-1.6,1.3-3.2,1.9-4.8c0.3-0.9,0.4-1.9,0.1-2.9c-0.3-1-0.3-1.9-0.3-2.9c0-0.8-0.1-1.6,0.1-2.3c0.2-1,0.3-2,0.2-3.1
		c-0.1-0.7-0.1-1.5-0.1-2.2c0-1,0-2,0.1-3c0.1-0.9,0.2-1.9,0.3-2.8c0-0.8-0.1-1.6-0.1-2.3c0-1.2,0-2.3-0.1-3.5
		c-0.3-2.7,0.3-5.3,1-7.9c0.4-1.5,1-3.1,1.5-4.6c0.4-1.4,0.5-2.8,1.1-4.1c0.1-0.1,0-0.2,0.1-0.4c0.1-0.4,0.2-0.7,0.4-1
		c0.6-1.4,1-2.9,1.1-4.4c0.1-0.7,0-1.3,0.1-2c0.1-2.3-0.2-4.6-1.2-6.7c-0.5-1-0.6-2-0.7-3.1c0-0.4,0-0.9,0-1.4
		c-0.1-1.6-0.1-3.2-0.2-4.8c0-0.2,0-0.3,0.1-0.5c0.1-0.1,0.2-0.3,0.3-0.4c0.1-0.1,0.4-0.1,0.4,0.1c0.1,0.3,0,0.7,0.2,0.9
		c0.4,0.7,0.4,1.4,0.4,2.1c0,0.4,0,0.8,0.2,1.2c0.2,0.4,0.3,0.9,0.5,1.3c0.2,0.4,0.2,0.9,0.7,1.2c0.6-0.7,1.2-1.4,1.5-2.2
		c0.5-1.1,0.8-2.1,1.3-3.2c0.5-1.1,0.6-2.3,0.5-3.5c-0.1-0.6-0.1-1.2-0.2-1.8c-0.3-2.7,0.4-5.3,1.3-7.8c0.4-1.3,1.1-2.5,1.4-3.8
		c0.3-1.1,0.5-2.2-0.1-3.2c-0.1-0.3-0.2-0.5-0.3-0.8c-0.1-0.2-0.1-0.4-0.5-0.4c-0.4,0.5-0.5,1.3-0.9,1.8c-0.5,0.6-0.5,1.3-0.6,1.9
		c-0.5,0.5-0.8,1-1.2,1.4c-0.3,0.3-0.6,0.6-0.9,0.8c-0.2,0.1-0.4,0.2-0.6,0c-0.2-0.2-0.2-0.4,0-0.6c0.3-0.3,0.5-0.7,0.7-1.2
		c0.1-0.2,0.2-0.5,0.4-0.6c0.6-0.5,0.7-1.2,0.7-1.9c0-0.4,0.1-0.7,0.1-1.1c0-0.9,0.4-1.7,0.9-2.4c0.6-0.8,1.1-1.6,1.6-2.5
		c0.2-0.3,0.4-0.7,0.7-1c1.3-1.4,2.1-3,2.3-5c0,0,0-0.1,0-0.1c0.3-1,0.2-2,0-2.9c-0.3-1.4-0.6-2.7-0.9-4.1c-0.1-0.6-0.2-1.3-0.2-2
		c0-1,0.1-2.1,0.1-3.1c0.2-2.7,0.3-5.4,0-8.1c-0.1-0.6-0.1-1.2,0-1.8c0.1-0.6,0-1.1-0.2-1.7c-0.2-0.6-0.4-1.2-0.6-1.7
		c-0.8-1.9-1.6-3.7-2.4-5.5c-0.2-0.4-0.2-0.4-0.8-0.8c-0.7,1.8-1.3,3.5-2.1,5.3c-0.6,1.4-0.6,2.8-0.5,4.3c0,0.3,0.1,0.6,0.4,1
		c0.5-1,0.7-1.8,0.9-2.7c0.3-0.9,0.7-1.6,1.2-2.3c0.8,0.3,1,0.7,0.7,1.2c-0.4,0.5-0.4,1.1-0.5,1.6c-0.2,1.2-0.6,2.2-1.3,3.2
		c-0.4,0.6-0.8,1.2-1.1,1.9c-0.3,0.5-0.5,1-0.8,1.5c-0.5,1-1.1,2-1.4,3.2c-0.2,0.8-0.5,1.7-0.7,2.5c-0.3,1-0.5,2-0.7,3
		c-0.3,1.3-0.3,2.7-0.5,4c-0.3,1.7-0.8,3.3-1.4,4.8c-0.6,1.4-1.3,2.7-2,4.1c-0.8,1.7-1.7,3.4-2.6,5.1c-0.2,0.4-0.5,0.9-0.7,1.3
		c-0.8,1.3-1.4,2.6-1.5,4.1c-0.1,1.9-0.4,3.7-1.1,5.5c-0.6,1.8-1.5,3.6-2.6,5.2c-0.6,0.9-1.3,1.8-1.9,2.7c-0.3,0.4-0.6,0.9-0.9,1.3
		c-0.3,0.4-0.6,0.7-0.9,1.1c-1.1,1.6-1.6,3.3-1.6,5.2c0,0.3,0,0.6,0.1,0.9c0.3,1.1,0.7,2.2,1,3.3c0.1,0.5,0.3,0.9,0.4,1.4
		c0.2,1.9,0,3.7-0.9,5.4c-0.1,0.1-0.1,0.2-0.2,0.3c-0.2,0.2-0.4,0.3-0.7,0.1c-0.1-0.1-0.3-0.3-0.3-0.5c0.1-0.6,0.1-1.2,0.4-1.8
		c0.5-1.2,0.3-2.4,0.2-3.5c-0.1-0.5-0.3-1-0.8-1.4c-0.8,0.4-1.5,0.9-2.1,1.5c-0.6,0.6-1.2,1.3-1.7,2c-0.4,0.5-0.8,1.1-1.2,1.7
		c-0.3,0.5-0.6,1-0.9,1.5c-0.6,1-1.2,2-1.7,3c-0.6,1.2-1,2.5-1.4,3.8c-0.5,1.7-1.3,3.2-2.5,4.5c-0.7,0.8-1.5,1.5-2.4,2.1
		c-0.3,0.2-0.5,0.4-0.8,0.6c-0.7,0.6-1.4,1.3-2,2c-0.5,0.5-1,1-1.4,1.7c-0.1,0.2-0.2,0.4-0.4,0.6c-0.9,1.1-1.5,2.5-2.2,3.7
		c-0.1,0.2-0.2,0.4-0.3,0.7c-0.5,1.2-1,2.4-1.6,3.5c-1,1.8-1.7,3.6-2.1,5.6c-0.3,1.2-0.7,2.4-0.7,3.6c0,0.9-0.1,1.9-0.1,2.8
		c0,2.3-0.1,4.7-0.1,7c0,1.3-0.1,2.6-0.4,3.8c-0.4,1.7-1,3.3-1.4,5c-0.3,1-0.4,2.1-0.6,3.1c-0.1,0.5,0.2,0.8,0.2,1.2
		c0,0.1,0,0.2,0,0.4c0.1,0.4,0.1,0.7,0.2,1.1c0.2,0.5,0.3,1,0.2,1.6c0,0.2,0,0.4,0.1,0.6c0.4,0.8,0.8,1.5,1.2,2.3
		c0.2,0.3,0.4,0.8,0.9,0.9c0.1-0.1,0.2-0.2,0.3-0.4c0.1-0.4,0.2-0.9,0.2-1.3c0.1-1.5,0.2-3,0.6-4.5c0.1-0.2,0.1-0.4,0.1-0.6
		c0-1,0.4-1.8,0.9-2.7c0.2-0.4,0.5-0.6,0.8-0.5c0.3,0.1,0.4,0.5,0.2,1c-0.4,1-0.8,1.9-0.9,2.9c-0.1,0.6-0.2,1.1-0.2,1.7
		c-0.1,0.5-0.1,1,0,1.5c0.4,1.5,0.4,2.9-0.1,4.4c-0.3,1.1-0.4,2.2-0.2,3.3c0.2,1.2,0.5,2.5,0.7,3.8c0.1,0.5,0.2,1,0.3,1.5
		c0.3,1.9,1.1,3.6,1.7,5.4c0.7,2,1.2,3.9,1.5,6c0.1,0.9,0.2,1.7,0.4,2.5c0.4,1.2,1,2.3,1.6,3.5c0.2,0.5,0.6,0.8,1.1,1
		c0.3,0.1,0.6,0.4,0.9,0.6c0.8,0.6,1,0.6,1.6-0.2c0.2-0.2,0.3-0.5,0.4-0.8c0.2-0.8,0.3-1.5,0.2-2.3c-0.1-1.3,0-2.6,0.2-3.9
		c0.1-0.5,0.1-1.1,0.1-1.6c0-2.8,0.6-5.6,1.7-8.2c0.4-0.9,0.7-1.8,0.8-2.8c0-0.3,0.1-0.7,0.3-0.9c0.8-1.4,1-3,1.8-4.4
		c0.2-0.3,0.2-0.7,0.2-1.1c0-0.7,0-1.4-0.1-2.1c-0.1-0.7-0.1-1.4-0.2-2.1c-0.2-1.6-0.7-3-1.6-4.3c-0.1-0.2-0.2-0.3-0.3-0.5
		c0-0.4,0.2-0.6,0.1-1c-0.2-0.4,0.1-0.6,0.5-0.7c0.8,0.5,1.4,1,1.7,2c0.2,0.5,0.5,1.1,0.8,1.5c0.7,0.8,0.9,1.8,0.8,2.9
		c-0.1,0.6,0,1.1,0.4,1.6c0.7-0.2,1.3,0.4,2,0.5c-0.1,0.8-0.1,0.8-0.5,1c-1,0.3-1.2,1-1.2,1.9c0,0.7,0.1,1.4,0.4,2
		c0.5,0.9,0.8,1.8,1.2,2.7c0.1,0.1,0.1,0.3,0.2,0.5c0.3,1.6,1,3.1,1.2,4.8c0.2,1,0.4,2,0.5,3c0.1,1.2,0.3,2.3,0.4,3.5
		c0.1,0.9,0.2,1.8,0.4,2.7c0.3,1.2,0.6,2.4,1,3.6c0.2,0.5,0.4,1,0.8,1.4c1.5,1.8,3.2,3.4,5.3,4.3c0.8,0.4,1.5,1,1.7,2
		c0.1,0.3,0.2,0.6,0.3,0.8c1.2,0.5,2.3,0.9,3.4,1.4c0.3,0.1,0.6,0.4,1,0.6c0.4,0.3,0.9,0.6,1.3,0.9c0.5,0.3,0.8,0.8,1.1,1.3
		c-0.2,0.1-0.3,0.2-0.4,0.2c-0.4-0.1-0.9-0.3-1.3-0.4c-1.3-0.6-2.5-1.5-3.9-1.7c0,0-0.1,0-0.1,0c-0.4-0.2-0.9-0.4-1.4-0.4
		c-0.6-0.1-1.1-0.4-1.4-0.8c0-0.5,0-0.9,0-1.3c0-0.4-0.2-0.6-0.6-0.6c-0.4,0.8-0.5,1-0.4,1.6c0.1,0.5,0.3,0.9,0.4,1.4
		c0.4,1.1,1.3,1.9,1.9,2.8c0.6,0.9,1.5,1.5,2.2,2.1c1.2,1,2.4,2.1,3.7,3.1c0.2,0.2,0.5,0.2,0.8,0.4c0.8,0.3,1.6,0.7,2.4,1
		c0.2,0.1,0.4,0.2,0.7,0.3c1.3,0.3,2.5,1,3.9,1.1c0.2,0,0.3,0.1,0.5,0.2c0.8,0.2,1.5,0.5,2.3,0.6c1.3,0.1,2.3,0.5,3.3,1.2
		c1.2,0.8,2.6,1.1,4,0.7c0.4-0.1,0.9-0.3,1.3-0.5c1.9-0.9,3.9-1,5.9-0.3c0.8,0.2,1.6,0.5,2.4,0.6c1.7,0.3,1.7,0.3,3.4-0.1
		c0.4-0.1,0.8-0.2,1.2-0.3c0.5-0.2,1.1-0.3,1.7-0.4c0.6,0,1.2-0.2,1.8-0.5c1.9-0.8,3.8-1.7,5.8-2.3c1.3-0.4,2.5-1,3.7-1.6
		c0.5-0.2,1-0.5,1.5-0.9c0.4-0.3,0.8-0.6,1.1-1C180.7,225.6,180.5,225,179.8,224.7z M128,143c-0.8,1.2-1.6,2.4-2.4,3.6
		c-0.8,1.1-1.3,2.4-1.8,3.6c-0.3,0.8-0.4,1.7-0.3,2.5c0.3,1.6,0.2,3.2,0,4.8c-0.1,0.7-0.1,1.5-0.2,2.2c-0.2,1.6-0.6,3.2-1,4.8
		c-0.5,1.8-1.5,3.5-3.2,4.5c-0.2,0.1-0.5,0.3-0.8,0.4c-1.9,0.6-3.7,0.2-5.5-0.6c-0.3-0.1-0.5-0.3-0.7-0.5c-0.4-0.5-0.8-0.9-1.3-1.3
		c-0.7-0.6-1.2-1.3-1.8-2c-1-1.3-1.9-2.6-2.8-4c-0.2,0-0.3,0-0.3,0c-0.7,0.6-1.5,1-2.3,1.4c-0.1,0.1-0.3,0.2-0.4,0.2
		c-0.9,0.1-1.3,0.7-1.7,1.3c-0.1,0.2-0.2,0.5-0.3,0.7c-0.1,0.2-0.3,0.3-0.4,0.4c-0.7-0.5-0.7-0.6-0.4-1.1c0.2-0.4,0.4-0.8,0.6-1.2
		c-0.2-0.1-0.3-0.3-0.4-0.3c-0.8-0.3-1-1.1-1.3-1.9c0-0.1,0.1-0.3,0.2-0.4c0.1-0.1,0.3,0,0.4,0c0.1,0.1,0.2,0.3,0.3,0.5
		c0.2,0.4,0.5,0.6,0.9,0.7c0.5,0.2,0.9,0.2,1.3-0.1c0.8-0.5,1.6-1,2.3-1.6c0.7-0.6,1.3-1.2,1.7-2.1c0.3-0.6,0.6-1.2,0.9-1.9
		c0.4-1.1,0.6-2.3,0.7-3.5c0-0.2,0-0.4,0-0.6c0.3-3.1,1.3-6,2.5-8.9c0.7-1.6,1.6-3.1,2.7-4.4c0.3-0.3,0.5-0.7,0.8-1.1
		c0.3-0.4,0.6-0.7,0.9-1c0.2-0.2,0.4-0.4,0.6-0.6c0.1-0.1,0.2-0.3,0.3-0.4c1.6-1.3,2.8-3,4.2-4.5c1.5-1.6,2.7-3.5,3.7-5.5
		c0.7-1.6,1.1-3.2,1.2-4.9c0-0.3,0-0.6,0.1-0.8c0-0.1,0.2-0.2,0.4-0.2c0.1,0,0.3,0.1,0.4,0.3c0.1,0.1,0.1,0.3,0.1,0.5
		c0,1.4,0,2.7,0,4.1c0,0.2,0,0.5,0,0.7c-0.5,1.8-0.7,3.6-1.6,5.3c-0.1,0.3-0.2,0.6-0.2,0.9c0.1,1.3,0.3,2.5,0.5,3.8
		c0.1,0.6,0.1,1.1,0,1.7c-0.2,1.6-0.5,3.2-0.4,4.8c0,0.2,0.1,0.5,0.1,0.7c0.4,0.2,0.9,0.4,1.3,0.5c0.8-0.8,1.9-2.5,2.3-3.7
		c0.1-0.3,0.1-0.6,0.5-0.6c0.3,0,0.5,0.3,0.4,0.8C129,140.5,128.8,141.8,128,143z"/>
	<g>
		<rect x="-433.5" y="56.8" class="st1" width="21.8" height="5.5"/>
	</g>
	<path class="st2" d="M183.5,223c-0.8-0.4-1.6-0.6-2.5-0.4c-1.3,0.2-2.6,0.1-3.9-0.3c-1.1-0.3-2.2-0.5-3.2-0.8
		c-0.4-0.1-0.7-0.3-1-0.5c-0.8-0.7-1.7-1.3-2.8-1.6c-0.8-0.2-1.6-0.5-2.3-0.9c-1.4-0.7-2.7-1.6-4.2-1.9c-0.2,0-0.4-0.1-0.6-0.2
		c-1.6-0.9-3.1-1.8-4.7-2.8c-1.5-0.9-3.1-1.9-4.6-2.9c-0.9-0.6-1.8-1.2-2.7-2c-1.1-0.9-1.9-2-2.8-3.1c-0.2-0.3-0.4-0.7-0.7-1.2
		c0.3-0.2,0.5-0.2,0.6-0.3c0.4-0.3,0.8-0.6,1.1-1c0.3-0.4,0-0.9-0.2-1.3c0,0,0-0.1,0-0.1c-0.4-2.1-1.5-3.9-3.2-5.3
		c-0.3-0.3-0.6-0.7-0.8-1.1c-0.9-1.7-1.7-3.5-2.2-5.3c-0.1-0.2-0.2-0.5-0.3-0.7c-0.3-0.6-0.6-1.3-0.9-1.9c-0.2-0.4-0.3-0.8-0.5-1.1
		c-0.8-1.2-1.1-2.6-1.7-3.9c-0.8-1.6-0.9-3.4-1.4-5.1c-0.3-1.1-0.5-2.2-0.8-3.3c0-0.2-0.1-0.3-0.2-0.5c-0.4-1-0.7-2-0.5-3.1
		c0.3-2,0.6-3.4,1.4-5.8c0-0.1,0-0.2,0-0.4c0-1.5,0-3-0.4-4.5c-0.5-1.8-0.4-3.6,0.2-5.5c0.6-1.7,0.7-3.5,0.6-5.2
		c-0.1-0.9-0.2-1.9-0.4-2.8c-0.4-1.8-0.2-3.5,0-5.3c0.2-1.2,0.6-2.3,0.9-3.5c0.2-0.9,0.5-1.8,0.7-2.7c0.2-1.1,0.3-2.3,0.4-3.4
		c0.1-1.4,0.5-2.7,1-4c0.7-1.8,1.5-3.5,1.9-5.3c0.2-0.8,0.3-1.6,0.2-2.4c-0.2-1.3-0.4-2.7-1-3.9c-0.3-0.7-0.7-1.3-0.3-2.1
		c0,0,0-0.1,0-0.1c-0.2-0.8,0.2-1.4,0.4-2.1c0.3-0.7,0.6-1.5,0.8-2.2c0.4-1.7,1-3.4,1.6-5.1c0.6-1.9,1.3-3.7,1.9-5.6
		c0.4-1.2,0.6-2.4,0.4-3.6c-0.3-2.8,0-5.5,1.3-8.1c0.5-0.9,0.7-1.8,0.9-2.8c0.1-0.4,0.1-0.9,0.1-1.3c-0.2-1.5-0.5-2.9-1-4.3
		c-0.1-0.3-0.1-0.6,0.1-0.9c0.7-1.1,1.2-2.3,1.7-3.6c0.3-0.8,0.6-1.5,0.7-2.4c0.1-0.8,0.1-1.6,0.3-2.3c0.3-1.8,0-3.5-0.3-5.3
		c-0.1-0.5-0.2-1.1-0.2-1.6c0-0.9,0-1.9,0-2.8c0-2.3-0.4-4.7-0.2-7c0-0.2,0-0.3-0.1-0.5c-0.3-1.8-0.6-3.6-0.9-5.3
		c-0.1-0.4-0.1-0.9-0.3-1.3c-0.5-1.4-1-2.9-1.6-4.3c-0.5-1.3-1.1-2.5-1.7-3.7c-0.5-1-0.9-2-1.2-3.1c-0.2-0.8-0.3-1.6-0.4-2.4
		c0-0.2,0-0.4-0.1-0.6c-0.1-0.1-0.2-0.3-0.3-0.3c-0.1,0-0.3,0.1-0.4,0.2c-0.1,0.3-0.3,0.6-0.3,0.9c0,1.2-0.3,2.4-0.5,3.5
		c-0.1,0.6-0.3,1.2-0.5,1.8c-0.6,1.5-1.1,3-1.7,4.5c-0.2,0.4-0.3,0.8-0.5,1.2c-0.4,0.9-0.8,1.9-0.9,2.9c-0.1,0.7-0.1,1.4,0.1,2.1
		c0.1,0.8,0.4,1.6,0.7,2.4c0.1,0.4,0.2,0.8,0,1.2c-0.4,0.9-0.8,1.8-1.1,2.7c-0.5,1.3-1.1,2.5-1.5,3.8c-0.5,2.2-0.8,4.4-1.5,6.5
		c-0.3,0.8-0.3,1.6-1,2.2c-0.2,0.2-0.2,0.5-0.4,0.8c-0.8,1.6-1.5,3.2-2.3,4.8c-0.1,0.3-0.3,0.5-0.5,0.7c-0.9,1.4-2,2.6-2.5,4.2
		c-0.6,1.7-1.3,3.4-1.5,5.2c-0.1,1.3-0.2,2.6-0.4,3.9c-0.1,1.1-0.1,2.3-0.7,3.4c-0.3,0.6-0.5,1.2-0.8,1.8c-0.1,0.3-0.2,0.7-0.4,1
		c-0.9,1.7-1.9,3.4-2.9,5c-0.4,0.7-0.8,1.5-1.3,2.2c-1,1.4-1.6,2.9-2.2,4.5c-0.4,1.2-0.5,2.4-0.1,3.6c0.1,0.2,0.1,0.5,0.2,0.7
		c0.1,0.3,0,0.5-0.2,0.7c-0.7,0.4-1.1,1.2-1.8,1.7c-0.4,0.3-0.8,0.7-1.2,1c-0.7,0.9-1.6,1.7-2.1,2.7c-0.1,0.3-0.4,0.5-0.6,0.8
		c-0.5,0.6-1.1,1.2-1.4,1.9c-0.5,1.1-1.2,2-1.8,3.1c-0.7,1.2-1.4,2.3-2,3.5c-0.5,0.9-1,1.8-1.6,2.6c-0.5,0.7-1,1.3-1.3,2.1
		c-0.6,1.1-1.3,2.1-2.1,3c-0.6,0.8-1.4,1.4-1.9,2.2c-0.7,1.2-1.8,2.2-2.3,3.6c-0.1,0.2-0.3,0.4-0.4,0.6c-0.2,0.3-0.5,0.7-0.7,1
		c-0.9,1.5-1.7,3-2.6,4.5c-0.3,0.5-0.5,0.9-0.7,1.4c-0.7,1.8-1.2,3.6-1.6,5.4c-0.3,1.6-0.6,3.2-0.5,4.8c0.1,1.1,0,2.2,0,3.3
		c0,1.6,0.1,3.1,0.2,4.7c0.1,0.7,0.1,1.4-0.2,2.1c-0.2,0.5-0.3,1-0.6,1.5c-0.4,0.7-0.6,1.4-0.9,2.2c-0.1,0.4-0.3,0.8-0.4,1.2
		c-0.4,1-0.7,2.1-1.1,3.1c-0.1,0.2-0.1,0.4-0.1,0.6c0,1.1-0.1,2.2,0,3.3c0,0.6,0.1,1.2,0.4,1.8c0.3,0.6,0.6,1.2,0.9,1.8
		c0.1,0.2,0.3,0.4,0.3,0.7c0.1,0.9,0.5,1.7,0.8,2.6c0.3,0.9,0.8,1.7,1.6,2.3c1.4,1.3,2,2.9,1.7,4.8c-0.1,0.6,0,1.1,0,1.7
		c0,1.1,0.4,2.1,0.5,3.2c0.1,0.9,0.4,1.7,0.8,2.6c0.5,1.3,1.1,2.7,1.5,4.1c0.4,1.3,0.7,2.7,1.1,4c0.2,0.6,0.4,1.2,0.7,1.7
		c0.2,0.5,0.6,1,0.7,1.6c0.3,1.2,0.9,2.2,1.5,3.2c1.1,1.8,2.7,3.1,4.8,3.5c0.3,0.1,0.6,0,1-0.1c0.7-0.3,1.1-0.8,1.2-1.6
		c0.4-1.8,0.4-3.7,0.5-5.5c0-0.2,0-0.3,0-0.5c0-1.2,0.1-2.3,0.5-3.4c0.4-1.1,0.6-2.2,0.8-3.4c0.4-2.4,0.6-4.7,0.4-7.1
		c-0.1-0.9,0.3-1.7,1-2.5c0.5,0.2,1.1,0.4,1.5,0.7c0.9,0.7,1.5,1.7,1.7,2.8c0.3,1.8,0.6,3.7,0.8,5.5c0.2,1.7,0.3,3.4,0.5,5
		c0.3,2.8,1.6,5.1,3.6,7c0.5,0.5,0.9,1,1.2,1.7c0.6,1.5,1.2,3,1.7,4.5c0.1,0.5,0.4,0.9,0.7,1.3c0.6,0.9,1.3,1.7,1.8,2.6
		c1,1.7,2.4,3.1,3.6,4.5c0.1,0.2,0.3,0.3,0.5,0.4c0.5,0.4,1,0.9,1.5,1.3c0.8,0.7,1.7,1.3,2.7,1.7c0.9,0.4,1.9,0.8,2.8,1.4
		c1.8,1.2,3.9,1.8,6,2.2c0.6,0.1,1.2,0.3,1.7,0.7c0.4,0.3,0.8,0.5,1.3,0.6c0.3,0,0.6,0.1,0.8,0.2c0.8,0.4,1.7,0.4,2.5,0.3
		c1.6-0.3,3.3-0.2,4.9-0.7c0.2,0,0.3,0,0.5,0c0.8,0.1,1.6,0.1,2.3,0.2c1.2,0.2,2.4,0.2,3.6,0.1c1.1-0.2,2.3-0.2,3.4-0.2
		c0.8,0,1.5-0.1,2.2-0.6c0.3-0.2,0.7-0.3,1-0.5c1.5-0.6,3-1.2,4.5-1.8c0.8-0.3,1.5-0.8,2.1-1.4c0.2-0.2,0.3-0.4,0.5-0.5
		c1.2-0.6,2.4-1.3,3.8-1.3c1.4,0,2.7-0.5,3.8-1.2c0.7-0.4,1.3-1,1.6-1.8c0.2-0.6,0.6-1.1,1.1-1.5c0.8-0.6,0.8-1.3,0.7-2.1
		C184.2,223.6,183.9,223.2,183.5,223z M180.2,226.2c-0.3,0.4-0.7,0.7-1.1,1c-0.5,0.3-1,0.6-1.5,0.9c-1.2,0.6-2.5,1.2-3.7,1.6
		c-2,0.6-3.9,1.5-5.8,2.3c-0.6,0.2-1.2,0.5-1.8,0.5c-0.6,0-1.1,0.2-1.7,0.4c-0.4,0.1-0.8,0.2-1.2,0.3c-1.7,0.5-1.7,0.5-3.4,0.1
		c-0.8-0.2-1.6-0.4-2.4-0.6c-2-0.6-4-0.6-5.9,0.3c-0.4,0.2-0.8,0.3-1.3,0.5c-1.4,0.4-2.8,0.2-4-0.7c-1-0.7-2-1.1-3.3-1.2
		c-0.8,0-1.5-0.4-2.3-0.6c-0.2,0-0.3-0.2-0.5-0.2c-1.4-0.1-2.6-0.8-3.9-1.1c-0.2-0.1-0.5-0.2-0.7-0.3c-0.8-0.3-1.6-0.7-2.4-1
		c-0.3-0.1-0.6-0.2-0.8-0.4c-1.2-1-2.5-2.1-3.7-3.1c-0.8-0.7-1.6-1.3-2.2-2.1c-0.7-0.9-1.5-1.7-1.9-2.8c-0.2-0.5-0.3-0.9-0.4-1.4
		c-0.1-0.6-0.1-0.8,0.4-1.6c0.4-0.1,0.6,0.2,0.6,0.6c0,0.4,0,0.8,0,1.3c0.4,0.4,0.8,0.7,1.4,0.8c0.5,0.1,1,0.2,1.4,0.4
		c0,0,0.1,0,0.1,0c1.5,0.2,2.6,1.2,3.9,1.7c0.4,0.2,0.8,0.3,1.3,0.4c0.1,0,0.2-0.1,0.4-0.2c-0.2-0.6-0.6-1-1.1-1.3
		c-0.5-0.3-0.9-0.6-1.3-0.9c-0.3-0.2-0.6-0.4-1-0.6c-1.1-0.5-2.2-0.9-3.4-1.4c-0.1-0.2-0.3-0.5-0.3-0.8c-0.2-1-0.9-1.6-1.7-2
		c-2.2-1-3.8-2.6-5.3-4.3c-0.3-0.4-0.6-0.9-0.8-1.4c-0.4-1.2-0.7-2.4-1-3.6c-0.2-0.9-0.3-1.8-0.4-2.7c-0.1-1.2-0.3-2.4-0.4-3.5
		c-0.1-1-0.3-2-0.5-3c-0.3-1.6-0.9-3.2-1.2-4.8c0-0.2-0.1-0.3-0.2-0.5c-0.4-0.9-0.8-1.8-1.2-2.7c-0.3-0.6-0.5-1.3-0.4-2
		c0-0.9,0.2-1.6,1.2-1.9c0.4-0.1,0.4-0.2,0.5-1c-0.7-0.1-1.2-0.7-2-0.5c-0.4-0.5-0.5-1-0.4-1.6c0.1-1.1-0.1-2-0.8-2.9
		c-0.4-0.4-0.7-1-0.8-1.5c-0.3-0.9-0.9-1.5-1.7-2c-0.4,0.1-0.7,0.3-0.5,0.7c0.2,0.4-0.1,0.6-0.1,1c0.1,0.1,0.2,0.3,0.3,0.5
		c1,1.3,1.4,2.7,1.6,4.3c0.1,0.7,0.2,1.4,0.2,2.1c0.1,0.7,0.1,1.4,0.1,2.1c0,0.4-0.1,0.8-0.2,1.1c-0.8,1.4-1,3.1-1.8,4.4
		c-0.2,0.3-0.2,0.6-0.3,0.9c-0.1,1-0.5,1.9-0.8,2.8c-1.1,2.6-1.6,5.3-1.7,8.2c0,0.5,0,1.1-0.1,1.6c-0.2,1.3-0.3,2.6-0.2,3.9
		c0.1,0.8,0,1.6-0.2,2.3c-0.1,0.3-0.2,0.5-0.4,0.8c-0.6,0.8-0.8,0.8-1.6,0.2c-0.3-0.2-0.6-0.4-0.9-0.6c-0.5-0.2-0.9-0.5-1.1-1
		c-0.5-1.2-1.1-2.3-1.6-3.5c-0.3-0.8-0.3-1.7-0.4-2.5c-0.2-2.1-0.8-4-1.5-6c-0.6-1.8-1.4-3.5-1.7-5.4c-0.1-0.5-0.2-1-0.3-1.5
		c-0.2-1.3-0.5-2.5-0.7-3.8c-0.2-1.1-0.1-2.2,0.2-3.3c0.5-1.5,0.5-2.9,0.1-4.4c-0.1-0.5-0.1-1,0-1.5c0.1-0.6,0.2-1.1,0.2-1.7
		c0.1-1,0.5-2,0.9-2.9c0.2-0.5,0.1-0.9-0.2-1c-0.3-0.1-0.5,0.1-0.8,0.5c-0.5,0.8-0.9,1.7-0.9,2.7c0,0.2,0,0.4-0.1,0.6
		c-0.4,1.5-0.5,3-0.6,4.5c0,0.4-0.1,0.9-0.2,1.3c0,0.1-0.2,0.3-0.3,0.4c-0.5-0.1-0.7-0.6-0.9-0.9c-0.5-0.7-0.8-1.5-1.2-2.3
		c-0.1-0.2-0.1-0.4-0.1-0.6c0.1-0.6,0-1-0.2-1.6c-0.1-0.3-0.2-0.7-0.2-1.1c0-0.1,0-0.2,0-0.4c0-0.4-0.4-0.7-0.2-1.2
		c0.2-1,0.4-2.1,0.6-3.1c0.4-1.7,1-3.3,1.4-5c0.3-1.2,0.4-2.5,0.4-3.8c0-2.3,0-4.7,0.1-7c0-0.9,0.1-1.9,0.1-2.8
		c0-1.2,0.4-2.4,0.7-3.6c0.5-2,1.2-3.8,2.1-5.6c0.6-1.1,1.1-2.3,1.6-3.5c0.1-0.2,0.2-0.5,0.3-0.7c0.7-1.2,1.3-2.6,2.2-3.7
		c0.2-0.2,0.3-0.4,0.4-0.6c0.3-0.7,0.8-1.2,1.4-1.7c0.7-0.6,1.4-1.3,2-2c0.2-0.2,0.5-0.4,0.8-0.6c0.9-0.6,1.7-1.3,2.4-2.1
		c1.2-1.3,2-2.8,2.5-4.5c0.4-1.3,0.8-2.6,1.4-3.8c0.5-1,1.1-2,1.7-3c0.3-0.5,0.6-1,0.9-1.5c0.4-0.6,0.8-1.2,1.2-1.7
		c0.5-0.7,1.1-1.3,1.7-2c0.6-0.6,1.3-1.1,2.1-1.5c0.5,0.3,0.7,0.8,0.8,1.4c0.1,1.2,0.3,2.4-0.2,3.5c-0.2,0.6-0.3,1.2-0.4,1.8
		c0,0.2,0.1,0.4,0.3,0.5c0.2,0.2,0.5,0,0.7-0.1c0.1-0.1,0.1-0.2,0.2-0.3c0.8-1.7,1.1-3.5,0.9-5.4c-0.1-0.5-0.2-1-0.4-1.4
		c-0.3-1.1-0.7-2.2-1-3.3c-0.1-0.3-0.1-0.6-0.1-0.9c0-1.9,0.5-3.7,1.6-5.2c0.3-0.4,0.6-0.8,0.9-1.1c0.3-0.4,0.6-0.9,0.9-1.3
		c0.6-0.9,1.3-1.8,1.9-2.7c1.1-1.6,1.9-3.3,2.6-5.2c0.6-1.8,0.9-3.7,1.1-5.5c0.1-1.5,0.6-2.9,1.5-4.1c0.3-0.4,0.5-0.9,0.7-1.3
		c0.9-1.7,1.7-3.4,2.6-5.1c0.7-1.4,1.4-2.7,2-4.1c0.6-1.6,1.2-3.1,1.4-4.8c0.2-1.3,0.3-2.7,0.5-4c0.2-1,0.5-2,0.7-3
		c0.2-0.8,0.5-1.6,0.7-2.5c0.2-1.2,0.8-2.1,1.4-3.2c0.3-0.5,0.6-1,0.8-1.5c0.3-0.7,0.7-1.3,1.1-1.9c0.7-0.9,1.1-2,1.3-3.2
		c0.1-0.6,0.1-1.1,0.5-1.6c0.4-0.5,0.1-0.8-0.7-1.2c-0.5,0.7-1,1.5-1.2,2.3c-0.3,0.8-0.5,1.7-0.9,2.7c-0.3-0.4-0.4-0.7-0.4-1
		c-0.1-1.4-0.1-2.9,0.5-4.3c0.7-1.7,1.4-3.5,2.1-5.3c0.6,0.4,0.6,0.5,0.8,0.8c0.8,1.8,1.6,3.7,2.4,5.5c0.2,0.6,0.5,1.1,0.6,1.7
		c0.2,0.5,0.3,1.1,0.2,1.7c-0.1,0.6,0,1.2,0,1.8c0.4,2.7,0.2,5.4,0,8.1c-0.1,1-0.1,2.1-0.1,3.1c0,0.7,0.1,1.3,0.2,2
		c0.3,1.4,0.6,2.7,0.9,4.1c0.2,1,0.3,2,0,2.9c0,0,0,0.1,0,0.1c-0.2,1.9-1,3.6-2.3,5c-0.3,0.3-0.5,0.7-0.7,1
		c-0.5,0.8-1.1,1.6-1.6,2.5c-0.5,0.7-0.9,1.5-0.9,2.4c0,0.4-0.1,0.7-0.1,1.1c0,0.7-0.2,1.4-0.7,1.9c-0.2,0.2-0.3,0.4-0.4,0.6
		c-0.2,0.4-0.3,0.8-0.7,1.2c-0.2,0.2-0.2,0.4,0,0.6c0.2,0.2,0.4,0.1,0.6,0c0.3-0.3,0.6-0.5,0.9-0.8c0.4-0.4,0.8-0.9,1.2-1.4
		c0.1-0.6,0.1-1.3,0.6-1.9c0.4-0.5,0.6-1.3,0.9-1.8c0.4,0,0.4,0.2,0.5,0.4c0.1,0.3,0.2,0.5,0.3,0.8c0.6,1.1,0.4,2.1,0.1,3.2
		c-0.3,1.3-1,2.5-1.4,3.8c-0.9,2.5-1.6,5.1-1.3,7.8c0.1,0.6,0.1,1.2,0.2,1.8c0.1,1.2,0,2.4-0.5,3.5c-0.4,1.1-0.8,2.2-1.3,3.2
		c-0.4,0.8-0.9,1.6-1.5,2.2c-0.4-0.3-0.5-0.8-0.7-1.2c-0.2-0.4-0.3-0.8-0.5-1.3c-0.1-0.4-0.2-0.8-0.2-1.2c0-0.7,0-1.5-0.4-2.1
		c-0.2-0.3-0.1-0.6-0.2-0.9c0-0.1-0.3-0.2-0.4-0.1c-0.1,0.1-0.2,0.2-0.3,0.4c-0.1,0.1-0.1,0.3-0.1,0.5c0.1,1.6,0.1,3.2,0.2,4.8
		c0,0.4,0,0.9,0,1.4c0.1,1.1,0.3,2.1,0.7,3.1c1,2.2,1.3,4.4,1.2,6.7c0,0.7,0,1.3-0.1,2c-0.1,1.5-0.5,3-1.1,4.4
		c-0.2,0.3-0.2,0.7-0.4,1c0,0.1,0,0.3-0.1,0.4c-0.6,1.3-0.7,2.8-1.1,4.1c-0.5,1.5-1,3-1.5,4.6c-0.7,2.6-1.3,5.2-1,7.9
		c0.1,1.1,0.1,2.3,0.1,3.5c0,0.8,0.1,1.6,0.1,2.3c0,0.9-0.2,1.9-0.3,2.8c-0.1,1-0.1,2-0.1,3c0,0.7,0,1.5,0.1,2.2
		c0.1,1,0,2.1-0.2,3.1c-0.2,0.8-0.1,1.6-0.1,2.3c0,1,0.1,2,0.3,2.9c0.3,1,0.2,2-0.1,2.9c-0.6,1.6-1.2,3.2-1.9,4.8
		c-0.7,1.6-1.1,3.2-1.2,4.9c-0.1,1.1,0.1,2.2,0.4,3.3c0,0.1,0.1,0.2,0.1,0.4c0.1,1.5,1,2.7,1.9,3.8c0.2,0.2,0.4,0.3,0.6,0.2
		c0.3-0.1,0.4-0.4,0.4-0.7c-0.1-0.9-0.3-1.7-0.4-2.5c-0.2-1.8-0.3-3.6-0.4-5.4c0-0.1,0.1-0.2,0.1-0.5c0.7,0.2,1.2,0.6,1.4,1.2
		c0.2,0.7,0.5,1.4,0.6,2.1c0.4,2.1,0.9,4.2,1.8,6.1c0.5,1.1,0.7,2.4,0.9,3.6c0.1,1.1,0.5,2.2,1.1,3.1c0.2,0.3,0.3,0.7,0.4,1
		c0.1,0.2,0.2,0.3,0.3,0.5c0.6,1.2,1.6,2.1,2.7,2.8c0.6,0.4,0.9,0.9,1.2,1.6c0.5,1.1,1,2.1,1.4,3.1c-0.3,0.9-0.4,1-1.3,1
		c-1.2,0-2.3,0.1-3.4,0.5c-0.7,0.2-1.4,0.2-2-0.2c-1.1-0.7-2.3-0.9-3.6-0.7c-0.9-0.6-1.9-1.2-2.9-1.5c-0.3-0.1-0.6-0.1-0.8,0.1
		c-0.3,0.2-0.3,0.6,0,0.8c0.1,0.1,0.3,0.2,0.4,0.2c0.8,0.2,1.4,0.6,2,1.1c1.1,0.9,2.3,1.5,3.6,1.8c0.5,0.1,1,0.4,1.5,0.6
		c0.7,0.4,1.4,0.7,2.1,1c1.5,0.5,2.8,1.3,4.1,2.2c2.1,1.5,4.2,3,6.5,4.3c0.6,0.3,1,0.7,1.4,1.2c0.2,0.3,0.4,0.6,0.3,1.1
		c-0.2,0.1-0.5,0.3-0.7,0.3c-0.7,0.1-1.4,0.2-2.1,0.2c-0.2,0-0.5-0.1-0.7-0.2c-0.2,0-0.3-0.1-0.5-0.2c-0.2-0.1-0.5,0.1-0.6,0.3
		c-0.1,0.2,0,0.4,0.2,0.5c0.6,0.4,1.2,0.7,1.8,1c0.3,0.1,0.6,0.2,0.8,0.2c0.8,0.3,1.6,0.2,2.4-0.2c1-0.5,2.1-0.6,3.3-0.5
		c0.5,0.1,1,0.2,1.4,0.5c0.5,0.4,1,0.8,1.5,1.3c0.8,0.7,1.6,1.2,2.7,1.4c0.7,0.1,1.5,0.3,2.2,0.5c1.1,0.3,2.2,0.6,3.3,1.1
		c1,0.4,1.9,1.2,2.6,2.1c0.5,0.6,0.6,1.3,0.8,2.1c0,0.2,0.1,0.4,0.4,0.4c0.2,0,0.4-0.1,0.5-0.2c0.3-0.2,0.4-0.5,0.4-0.9
		c0-0.4,0.1-0.7,0.5-1c0.6,0.2,1.3,0.4,2,0.5c0.8,0.2,1.6,0.4,2.4,0.3c0.3,0,0.7,0.1,0.9,0.2C180.5,225,180.7,225.6,180.2,226.2z"/>
	<path class="st2" d="M128.6,138.4c-0.4,0-0.4,0.3-0.5,0.6c-0.5,1.2-1.5,2.9-2.3,3.7c-0.4-0.2-0.8-0.4-1.3-0.5
		c0-0.2-0.1-0.5-0.1-0.7c-0.1-1.6,0.2-3.2,0.4-4.8c0.1-0.6,0.1-1.1,0-1.7c-0.2-1.3-0.4-2.5-0.5-3.8c0-0.3,0-0.7,0.2-0.9
		c0.9-1.7,1.1-3.5,1.6-5.3c0.1-0.2,0-0.5,0-0.7c0-1.4,0-2.7,0-4.1c0-0.2,0-0.3-0.1-0.5c-0.1-0.1-0.2-0.2-0.4-0.3
		c-0.1,0-0.3,0.1-0.4,0.2c-0.1,0.3-0.1,0.6-0.1,0.8c-0.1,1.7-0.5,3.3-1.2,4.9c-1,2-2.2,3.9-3.7,5.5c-1.4,1.5-2.6,3.1-4.2,4.5
		c-0.1,0.1-0.2,0.3-0.3,0.4c-0.2,0.2-0.4,0.4-0.6,0.6c-0.3,0.3-0.6,0.7-0.9,1c-0.3,0.4-0.5,0.7-0.8,1.1c-1.1,1.3-2.1,2.8-2.7,4.4
		c-1.2,2.8-2.2,5.8-2.5,8.9c0,0.2,0,0.4,0,0.6c-0.1,1.2-0.3,2.4-0.7,3.5c-0.3,0.6-0.6,1.3-0.9,1.9c-0.4,0.8-1,1.5-1.7,2.1
		c-0.7,0.6-1.6,1.1-2.3,1.6c-0.4,0.3-0.8,0.3-1.3,0.1c-0.4-0.1-0.7-0.3-0.9-0.7c-0.1-0.2-0.2-0.4-0.3-0.5c-0.1-0.1-0.3-0.1-0.4,0
		c-0.1,0.1-0.2,0.3-0.2,0.4c0.2,0.7,0.4,1.5,1.3,1.9c0.1,0.1,0.2,0.2,0.4,0.3c-0.2,0.4-0.4,0.8-0.6,1.2c-0.3,0.5-0.2,0.6,0.4,1.1
		c0.1-0.1,0.3-0.2,0.4-0.4c0.1-0.2,0.2-0.5,0.3-0.7c0.4-0.7,0.9-1.2,1.7-1.3c0.1,0,0.3-0.1,0.4-0.2c0.8-0.4,1.6-0.8,2.3-1.4
		c0,0,0.1,0,0.3,0c0.8,1.4,1.7,2.7,2.8,4c0.6,0.7,1.1,1.4,1.8,2c0.4,0.4,0.9,0.8,1.3,1.3c0.2,0.2,0.4,0.4,0.7,0.5
		c1.8,0.8,3.6,1.2,5.5,0.6c0.3-0.1,0.5-0.2,0.8-0.4c1.7-1.1,2.7-2.7,3.2-4.5c0.4-1.6,0.9-3.2,1-4.8c0.1-0.7,0.2-1.5,0.2-2.2
		c0.1-1.6,0.3-3.2,0-4.8c-0.2-0.9,0-1.7,0.3-2.5c0.5-1.3,1-2.5,1.8-3.6c0.8-1.2,1.6-2.4,2.4-3.6c0.8-1.2,0.9-2.5,1.1-3.9
		C129.1,138.6,128.9,138.4,128.6,138.4z M121.4,149.8c-0.1,0.4-0.1,0.7-0.3,1.1c-0.3,0.9-0.4,1.8-0.3,2.8c0.1,0.9,0.2,1.9,0.3,2.8
		c0.1,1.2,0.2,2.5,0,3.7c-0.2,1.5-0.6,3-1.7,4.2c-1,1.2-2.3,2-3.9,2.2c-0.5,0.1-1,0-1.4-0.2c-1-0.4-2-1-2.6-2
		c-0.5-0.7-1-1.5-1.4-2.3c-0.3-0.8-0.9-1.6-1.4-2.3c-0.1-0.2-0.2-0.4-0.3-0.6c0.5-0.9,0.9-1.7,1.4-2.6c0.4-0.7,0.6-1.5,0.6-2.2
		c0-0.9,0.3-1.7,0.3-2.6c0.1-0.6,0.2-1.2,0.3-1.8c0.1-1.4,0.5-2.7,1.1-3.9c0.2-0.4,0.5-0.9,0.6-1.4c0.3-1.3,1.2-2.2,2-3.2
		c1.3-1.7,2.9-3.1,4.4-4.7c0.5-0.5,1-1.1,1.5-1.6c0.2-0.2,0.5-0.5,0.7-0.7c0.4-0.3,0.7-0.2,0.9,0.2c0.3,0.6,0.4,1.2,0.3,1.8
		c-0.1,1-0.2,2-0.4,2.9c-0.2,1.2-0.2,2.4-0.1,3.6c0,0.6,0,1.2,0.1,1.8c0.1,0.6,0.3,1.1,0.5,1.6C122.1,147.7,121.7,148.7,121.4,149.8
		z"/>
	<path class="st2" d="M210.7,172.7c-0.3-0.5-0.5-1.1-0.1-1.6c0.1-1.2,0.6-2.4,0.7-3.6c0-0.7,0-1.3-0.2-1.9c-0.3-0.7-0.6-1.5-0.9-2.2
		c-0.8-1.9-1.3-4-1.7-6c-0.3-1.8-0.6-3.6-1.2-5.3c-0.3-0.8-0.7-1.6-1.2-2.4c-0.4-0.7-0.5-1.5-0.3-2.1c0.2-0.7,0.2-1.5,0.2-2.2
		c0.1-0.7-0.2-1.4-0.5-2c-0.9-1.7-2-3.2-3.4-4.5c-0.4-0.4-0.9-0.7-1.3-0.8c-0.4-0.1-0.9-0.4-1.3-0.1c-0.4,0.2-0.8,0.2-1.2,0.3
		c-0.6,0.1-0.7,0.3-0.5,0.8c0.4,1,0.6,2,0.7,3c0.1,1.3,0.1,2.6-0.4,3.9c-0.7,1.9-1.6,3.6-2.8,5.2c-0.2,0.3-0.4,0.6-0.6,1
		c-0.4,0.7-0.5,1.6-0.7,2.4c-0.1,0.5-0.2,1.1-0.5,1.5c-0.8,1-1.6,1.9-2.5,2.9c-0.4,0.4-0.8,0.7-1.2,1.1c-0.5,0.5-1,0.9-1.6,1
		c-0.7,0.2-1.4,0.4-2.2,0.3c-0.9-0.1-1.9-0.2-2.8-0.3c-0.7,0-1.2-0.4-1.7-0.9c-0.4-0.5-0.4-0.8,0.1-1.2c0.4-0.4,0.9-0.7,1.5-0.9
		c1.2-0.4,2.2-1,3.1-1.9c0.8-0.7,1.3-1.6,1.5-2.6c0.1-0.7,0.4-1.4,0.5-2c0.5-2,1.6-3.9,2.3-5.8c0.5-1.3,1.1-2.7,1.1-4.2
		c0-0.2,0-0.4,0.1-0.6c0.1-0.8,0.1-1.6,0-2.3c-0.2-1.3-0.2-2.5-0.4-3.8c-0.1-1.2-0.1-2.4-0.5-3.5c-0.4-1.4-0.7-2.8-1.1-4.2
		c-0.4-1.4-0.7-2.9-1.1-4.3c-0.7-2-1.4-3.9-2.2-5.9c-0.6-1.5-1.2-3.1-1.9-4.6c-0.5-1.2-1-2.5-2.1-3.4c-0.6-0.5-1.1-1-1.6-1.4
		c0-0.1,0-0.2,0-0.3c-0.1-0.9-0.2-1.7-0.4-2.6c-0.2-0.6-0.6-1.1-1-1.7c-0.5-0.7-0.7-1.5-0.5-2.4c0.1-1,0.1-2-0.1-2.9
		c-0.1-1.1-0.1-2.2-0.7-3.2c-0.3-0.6-0.7-1-1-1.5c-0.7-1-1.4-2-2.5-2.5c-0.4-0.2-0.7-0.5-1-0.7c-0.5-0.3-1-0.6-1.5-0.9
		c-0.3-0.2-0.5-0.4-0.7-0.7c-0.1-0.2-0.2-0.5-0.3-0.7c-0.4-0.8-0.7-1.7-1.2-2.4c-1.3-1.7-2.4-3.6-3.5-5.5c-1.3-2.3-2.3-4.6-3.6-6.9
		c-0.1-0.2-0.2-0.5-0.3-0.7c-0.3-0.6-0.5-1.2-0.8-1.8c-0.2-0.4-0.4-0.8-0.6-1.2c-0.6-1.4-1.2-2.7-1.8-4.1c-0.5-1.1-1-2.1-1.4-3.1
		c-0.3-0.6-0.6-1.2-1-1.7c-0.2-0.3-0.4-0.5-0.5-0.8c-0.1-0.7-0.6-1.2-0.9-1.7c-0.1-0.2-0.4-0.3-0.6-0.3c-0.3,0.1-0.4,0.3-0.3,0.6
		c0.1,0.5,0.1,1,0.2,1.5c0.1,0.7,0.1,1.3,0.2,2c0,0.2,0.1,0.4,0,0.6c-0.1,0.9-0.2,1.7-0.3,2.6c-0.3,1.8-0.5,3.7-0.5,5.5
		c0,1.5,0.2,3,0.3,4.6c0.2,1.6,0.4,3.1-0.1,4.6c-0.2,0.9-0.6,1.7-0.7,2.6c-0.1,0.9-0.5,1.6-0.9,2.4c-0.7,1.4-1,3-1.1,4.5
		c0,0.2,0.1,0.5,0.2,0.7c0.2,0.4,0.6,0.7,1,0.9c0.3,0.2,0.5,0.6,0.3,1c-0.1,0.2-0.1,0.3-0.1,0.5c-0.6,1.6-1,3.1-1.1,4.8
		c-0.1,0.9-0.1,1.8-0.1,2.7c0,1.5-0.3,2.9-0.7,4.2c-0.4,1.2-0.4,2.4-1,3.6c-0.1,1.5-0.7,2.8-1,4.2c-0.4,1.4-0.7,2.8-0.9,4.2
		c-0.1,0.7-0.2,1.5-0.3,2.2c-0.2,1.3-0.5,2.6-0.9,3.8c-0.3,0.9-0.7,1.8-1.1,2.6c-0.8,1.7-1.1,3.6-1.1,5.4c-0.1,2.8,0.1,5.5,1.3,8.1
		c0.2,0.4,0.1,0.7,0,1.1c-0.4,0.7-0.5,1.5-0.6,2.3c0,0.2-0.1,0.5-0.1,0.7c-0.1,1.3-0.3,2.6-0.4,3.9c-0.1,1.4-0.1,2.8-0.2,4.2
		c0,1.1-0.3,2.2-0.5,3.3c-0.3,1.8-0.3,3.7-0.6,5.5c0,0.2,0,0.3,0,0.5c0,0.5,0,1,0,1.5c0.1,1.8-0.1,3.7,0.2,5.5
		c0.1,0.5,0.1,1.1,0,1.6c-0.1,1.3-0.2,2.5-0.3,3.8c-0.1,0.7-0.1,1.5,0.2,2.2c0.1,0.2,0,0.5,0.1,0.7c0.1,1.6,0.6,3.1,1.3,4.5
		c0.4,0.8,1,1.6,1.7,2.3c0.2,0.2,0.3,0.4,0.4,0.6c0.6,1,0.5,2.2,0.4,3.3c-0.1,0.5-0.1,1.1,0,1.6c0.1,0.6,0.2,1.2,0.3,1.8
		c0.1,0.7,0.3,1.4,0.6,2c0.8,1.9,1.9,3.7,3.2,5.4c0.4,0.6,0.9,1.2,1.2,1.9c0.4,0.8,1,1.4,1.7,1.9c0.4,0.4,0.8,0.8,1.2,1.2
		c0.7,0.8,1.3,1.6,2,2.3c0.7,0.6,1.2,1.4,1.5,2.2c0.1,0.3,0.2,0.5,0.4,0.8c0.9,1.3,2,2.4,3.2,3.4c0.4,0.4,0.9,0.7,1.4,1
		c0.8,0.5,1.6,0.9,2.5,1.4c0.8,0.5,1.6,1,2.5,1.3c1.3,0.5,2.6,0.9,4,1.2c1.2,0.3,2.3,0.1,3.2-0.8c0.2-0.2,0.4-0.3,0.7-0.3
		c0.2,0.4,0.4,0.7,0.9,0.8c1.4,0.5,2.7,1.2,4.1,1.6c0.2,0.1,0.5,0.2,0.7,0.3c0.5,0.2,0.9,0.4,1.4,0.5c2.2,0.3,4.4,0.4,6.4-0.6
		c0.2-0.1,0.4-0.1,0.6-0.2c1-0.6,2-0.8,3.2-1c1.2-0.2,2.4-0.7,3.3-1.6c0.4-0.4,0.8-0.7,1.2-1.1c0.7-0.7,1.4-1.3,1.9-2.1
		c0.6-0.9,1.3-1.8,1.9-2.7c0.7-1.1,1.8-1.8,2.5-3c0.1-0.2,0.4-0.3,0.6-0.5c0.2-0.1,0.3-0.3,0.4-0.4c0.4-0.9,0.9-1.8,1.3-2.7
		c0.4-1.1,0.9-2.1,1.2-3.2c0.4-1.3,0.7-2.6,0.5-4c-0.1-1.1-0.6-1.9-1.7-2.3c-1.3-0.5-2.5-0.6-3.6,0.2c-0.1,0.1-0.2,0.1-0.3,0.2
		c-1.3,0.7-2.7,1.1-4.2,0.8c-1.6-0.3-3.2-0.4-4.8-0.4c-1.3,0-2.4,0.4-3.3,1.4c-0.2,0.2-0.4,0.3-0.5,0.4c-1.8-0.8-3.5-1.5-5.3-2.2
		c-1.1-0.5-2.3-0.9-3.4-1.5c-0.2-0.1-0.4-0.2-0.6-0.3c-1.4-0.6-2.6-1.5-3.7-2.4c-0.6-0.5-1.2-1-1.7-1.6c-1.4-1.8-2.7-3.5-4.2-5.2
		c-0.4-0.5-0.8-1.1-0.5-1.9c1.5,0.2,2.7,0.8,3.7,1.7c1.1,1,2.3,1.9,3.4,2.8c1,0.7,2,1.5,3.4,1.3c0.9-0.1,1.5,0.2,2,0.9
		c0.1,0.1,0.2,0.2,0.3,0.2c1.3,1.2,2.8,2,4.6,2.3c1.6,0.3,3.2,0.6,4.7,0.8c1.2,0.2,2.5,0.2,3.7,0.3c0.5,0,1,0,1.5,0
		c0.5,0,1.1,0.1,1.6,0c1.3-0.1,2.6-0.4,3.6-1.3c0.6-0.6,1.3-1.2,1.9-1.7c0.4-0.3,0.8-0.7,1.2-1.1c0.2-0.3,0.5-0.6,0.8-0.8
		c0.9-0.7,1.4-1.7,2-2.6c0.1-0.2,0.2-0.4,0.2-0.6c0.1-0.4,0.3-0.8,0.4-1.2c0.4-1.3,0.6-2.6,0.6-4c0-0.1,0-0.2,0-0.4
		C211.2,174.3,211.1,173.5,210.7,172.7z M208.8,179.4c-0.1,0.2-0.3,0.5-0.5,0.7c-0.5,0.4-0.9,0.9-1.2,1.4c-0.2,0.3-0.4,0.5-0.6,0.8
		c-0.9,1.3-2.1,2-3.6,2.4c-1.4,0.3-2.8,0.8-4.3,1.3c-1.8,0.5-3.6,0.6-5.5,0c-1.2-0.4-2.4-0.6-3.6-0.9c-1-0.2-2.1-0.5-3-1.2
		c-1.3-0.9-2.5-2-3.1-3.6c-0.6-1.6-1.5-2.9-2.5-4.2c0-0.1-0.1-0.1-0.1-0.2c-0.2-0.2-0.5-0.4-0.8-0.3c-0.2,0.1-0.3,0.3-0.3,0.7
		c0,0.2,0.1,0.5,0.1,0.8c0.2,0.1,0.4,0.3,0.7,0.5c0.2,1.2,0.6,2.3,0.7,3.6c-1,0.1-1.7-0.2-2.5-0.7c-1.6-0.9-3-1.9-4.4-3.2
		c-1.2-1.2-2.5-2.2-4-3.1c-0.7-0.4-1.3-0.9-2-1.3c-0.1-0.1-0.2-0.1-0.3-0.2c-0.6-0.9-1.6-1.4-2.5-2c-0.7-0.5-1.7-0.6-2.6-0.4
		c0,0.4,0.1,0.7,0.1,1c0.1,0.3,0.2,0.4,0.5,0.5c0.3,0.1,0.6,0.1,0.8,0.2c1.2,0.3,1.9,1.1,2.3,2.2c0.2,0.6,0.4,1.2,0.7,1.7
		c0.3,0.5,0.6,1,1,1.4c0.9,1,1.5,2.1,1.9,3.4c0.2,0.6,0.6,1.2,0.8,1.8c0.2,0.4,0.4,0.8,0.5,1.2c0.5,1.2,0.9,2.4,1.6,3.5
		c1.2,2,3,3.3,5.1,4c1.6,0.5,3.2,0.9,4.7,1.3c0.6,0.2,1.2,0.4,1.7,0.7c1.2,0.5,2.5,1.1,3.6,1.9c1.4,1,3.1,1.6,4.7,2.2
		c0.8,0.3,1.6,0.6,2.5,0.8c0.8,0.2,1.7,0.5,2.3,1.1c0.1,0.1,0.2,0.2,0.3,0.2c0.6,0.3,0.8,0.3,1.3-0.4c-0.2-0.8-0.9-1.4-1.5-1.8
		c-0.6-0.4-1.2-0.6-1.9-1c-0.3-0.2-0.7-0.3-1-0.5c0.9-0.9,1.8-1.4,3-1.2c0.6,0.1,1.1,0,1.7,0.1c0.6,0,1.2-0.1,1.8-0.4
		c0.5-0.3,0.9-0.4,1.5-0.3c0.4,0.1,1-0.1,1.4-0.3c0.7-0.3,1.3-0.3,1.9,0.1c0.6,0.6,0.5,1.3,0.4,2c-0.3,1.5-0.7,3-1,4.4
		c-0.1,0.5-0.3,1-0.6,1.5c-0.8,1.2-1.7,2.3-2.6,3.5c-0.1,0.2-0.3,0.4-0.5,0.5c-0.6,0.4-1.1,0.9-1.5,1.4c-0.6,0.7-1.3,1.5-2,2.2
		c-0.3,0.3-0.6,0.6-0.8,0.9c-0.7,0.9-1.6,1.4-2.7,1.4c-0.9,0-1.7,0.2-2.6,0.3c-0.5,0.1-0.9,0.3-1.4,0.5c-1.6,0.6-3.1,1.3-4.8,1.4
		c-1,0.1-2.1,0.1-3.1-0.1c-1-0.2-1.9-0.8-2.8-1.2c-0.1-0.1-0.2-0.2-0.4-0.3c-0.5-0.6-0.4-1,0.4-1.2c0.8-0.2,1.6-0.4,2.4-0.6
		c0.5-0.1,1-0.4,1.3-0.9c0.2-0.4,0.5-0.7,0.8-1.1c0.3-0.5,0.4-1.1,0.9-1.5c0.1-0.1,0.1-0.2,0.1-0.3c0.1-0.3-0.3-0.6-0.5-0.5
		c-0.3,0.1-0.5,0.3-0.7,0.5c-0.7,0.7-1.3,1.4-1.9,2.1c-0.5,0.6-0.9,0.9-1.7,0.8c-0.5,0-1,0.1-1.4,0.3c-0.8,0.3-1.6,0.6-2.4,0.9
		c-0.6,0.3-1.3,0.6-1.9,0.9c-0.6,0.3-1.1,0.6-1.6,0.8c-1.3-0.5-2.6-0.9-3.9-1.4c-0.1,0-0.2-0.1-0.2-0.1c-1.1,0.1-1.9-0.7-2.7-1.3
		c-0.5-0.3-0.9-0.7-1.4-1c-0.9-0.8-1.9-1.5-2.7-2.3c-1-1-1.8-2.2-2.2-3.5c-0.3-0.9-0.6-1.7-0.9-2.6c-0.5-1.2-1.3-2.2-2.4-2.9
		c-2.3-1.5-4-3.5-5.3-5.9c-0.6-1.1-0.9-2.3-1-3.5c-0.1-1-0.2-2,0-3.1c0-0.2,0-0.4,0-0.6c0.6-1.1,0.2-2.3,0.3-3.5
		c0-0.6,0.1-1.2,0.1-1.8c0.1-0.7,0.2-1.4,0.3-2.1c0.1-0.9,0.1-1.8,0.2-2.7c0.1-0.8-0.1-1.5-0.3-2.2c-0.1-0.3-0.4-0.4-0.7-0.5
		c-0.3,0-0.5,0.1-0.6,0.4c0,0.1,0,0.2,0,0.2c0,0.9,0,1.9,0,2.8c-0.1,1.5-0.3,3.4-1.4,4.9c-0.1-0.3-0.2-0.5-0.4-0.7
		c-0.2-0.2-0.4-0.4-0.5-0.7c-0.1-0.2-0.3-0.3-0.3-0.5c-0.4-1-0.8-1.9-1.1-2.9c-0.1-0.2-0.1-0.3-0.1-0.5c-0.1-1.9-0.5-3.8-0.3-5.8
		c0.1-0.8,0-1.6,0-2.3c0-0.1,0-0.2,0-0.4c0.1-1.9-0.1-3.8-0.2-5.6c-0.1-1,0.2-2,0.3-2.9c0.2-1.4,0.5-2.9,0.5-4.3
		c0.1-1.5,0.2-3,0-4.4c-0.2-1.3,0.1-2.5,0.5-3.7c0.2-0.7,0.6-1.2,1.4-1.4c0.2,0.1,0.5,0.2,0.8,0.5c0.4,0.4,0.6,1,1.2,1.2
		c0.1,0,0.2,0.3,0.2,0.4c0.1,0.3,0.3,0.7,0.3,1.1c0.2,1,0.6,1.8,1.2,2.8c0.1-0.4,0.1-0.7,0.2-1c0.1-0.3,0.1-0.6,0.1-1
		c-0.1-0.4-0.1-0.7-0.2-1.1c-0.1-0.3-0.2-0.6-0.3-0.9c-0.1-0.3-0.2-0.6-0.4-0.9c-0.6-1.2-1.1-2.4-1.7-3.6c-0.4-0.7-0.8-1.5-1.1-2.2
		c-0.2-0.3-0.4-0.7-0.5-1c-0.5-1.6-1-3.2-1.3-4.8c-0.3-1.5-0.3-3-0.2-4.5c0.3-2.1,1-4,1.6-5.9c0.3-1.1,0.6-2.1,1-3.2
		c0.5-1.4,1-2.7,1.5-4c0.3-0.7,0.6-1.4,0.7-2.2c0.1-0.8,0.4-1.6,0.5-2.4c0.1-0.7,0.2-1.5,0.2-2.2c0-0.8,0.1-1.6,0.3-2.4
		c0.5-1.5,0.8-3.1,0.7-4.7c-0.1-1.2,0.3-2.4,0.6-3.5c0.2-1,0.4-1.9,0.4-2.9c0-0.7,0.3-1.4,0.5-2.2c0.1-0.3,0.3-0.5,0.5-0.6
		c0.3-0.2,0.6-0.4,0.9-0.6c1.1,0.8,1.8,1.9,2.3,3.2c0.2,0.4,0.3,0.8,0.4,1.2c0.1,0.1,0.2,0.2,0.4,0.3c0.2,0.1,0.4-0.1,0.5-0.3
		c0.1-0.1,0.1-0.2,0.1-0.4c0-0.6,0-1.2,0-1.7c0-1.2-0.6-2.1-1.4-2.9c-0.4-0.4-0.8-0.8-1.1-1.3c-0.5-0.7-1-1.3-1.8-1.6
		c-0.4-0.2-0.7-0.5-0.8-0.9c-0.4-0.9-0.5-1.7-0.1-2.6c0.6-1.4,1.1-2.8,1.6-4.3c0.2-0.5,0.3-1,0.3-1.6c0.1-1.4,0.2-2.9-0.2-4.3
		c-0.5-1.6-0.6-3.3-0.6-5c0-1.2-0.1-2.5,0.4-3.7c0.3-0.1,0.4,0,0.5,0.2c0.8,1.3,1.6,2.6,2.2,4c0,0.1,0.1,0.1,0.1,0.2
		c0.2,1.6,1,2.9,1.7,4.3c0.3,0.7,0.5,1.4,0.9,2c1.3,2.7,2.7,5.3,4.3,7.7c0.1,0.2,0.2,0.4,0.3,0.7c0.2,0.6-0.2,1.3-0.8,1.1
		c-0.7-0.2-1.4-0.1-2.1,0c-0.3,0-0.6,0-0.9-0.1c-0.4-0.1-0.9-0.2-1.3-0.4c-0.1,0.1-0.3,0.2-0.3,0.3c-0.4,0.8-0.2,1,0.6,1.1
		c0.9,0.1,1.8,0.3,2.7,0.1c0.7-0.1,1.4,0.2,1.8,0.8c0.4,0.6,0.9,0.9,1.5,1.2c0.6,0.2,1,0.6,1.3,1c0.6,0.7,1.3,1.2,2.1,1.6
		c1.2,0.6,2.2,1.4,3.1,2.4c0.5,0.5,1,1,1.4,1.6c0.4,0.7,0.7,1.5,0.7,2.3c0.1,0.7,0.1,1.4,0.2,2.1c0.1,1,0.4,2,0.8,3
		c0.4,0.9,0.6,1.9,0.7,3c0.2,2.1,0.4,4.2,1.5,6.1c0.5,0.9,0.6,1.9,0.7,2.9c0,0.5,0,1.1,0,1.6c0,1.2,0,2.4,0.1,3.6
		c0,0.2,0,0.4,0.1,0.6c0.1,0.1,0.3,0.2,0.4,0.2c0.3-0.1,0.6-0.3,0.7-0.6c0-0.2,0.1-0.3,0.1-0.5c0-1.8,0.2-3.5-0.1-5.3
		c0-0.1,0-0.2,0-0.4c0-0.3-0.1-0.6,0.3-0.8c0.4-0.2,0.5,0.2,0.7,0.5c1.5,1.8,2.4,3.9,3.2,6.1c0.5,1.2,0.8,2.5,1.1,3.8
		c0.4,1.5,0.8,3.1,1.2,4.7c0.4,1.4,0.7,2.9,0.8,4.4c0.2,1.9,0.4,3.8,0.4,5.7c0,0.7-0.1,1.4-0.3,2.1c-0.1,0.3-0.3,0.7-0.3,1.1
		c-0.2,1-0.6,1.9-1.2,2.7c-0.9,1.2-1.2,2.5-1.5,3.9c-0.1,0.7-0.3,1.5-0.4,2.2c-0.2,1.2-0.6,2.3-1.6,3.1c-0.7,0.6-1.3,1-2.2,1.1
		c-0.5,0.1-1,0.3-1.5,0.6c-0.6,0.3-1.2,0.7-1.8,1.1c-0.7,0.5-1.6,0.7-2.5,0.7c-0.9,0-1.7,0-2.6-0.2c-0.3-0.1-0.6-0.1-0.8,0.1
		c-0.4,0.3-0.8,0.2-1.2,0c-1-0.5-1.8-1.3-2.3-2.3c-0.5-1-1.1-1.9-2-2.5c-0.5-0.3-0.4-0.8-0.7-1.2c-0.5,0.1-0.7,0.5-1,0.9
		c0.1,0.2,0.2,0.4,0.3,0.6c0.1,0.2,0.3,0.4,0.5,0.5c0.8,0.6,1.2,1.5,1.4,2.5c-0.2,0.2-0.3,0-0.4-0.1c-0.3-0.2-0.5-0.4-0.8-0.5
		c-0.2-0.1-0.4,0-0.5,0.2c-0.1,0.2-0.1,0.5,0,0.6c0.6,0.5,1.1,1.1,1.8,1.5c1,0.5,2,1.1,3,1.7c0.8,0.5,1.8,0.6,2.7,0.8
		c0.2,0,0.3,0,0.5,0c1.1-0.1,2,0.2,2.9,0.9c0.7,0.5,1.5,0.7,2.3,1c0.3,0.1,0.6,0.2,0.8,0.4c0.4,0.6,1.1,0.8,1.8,1
		c0.5,0.2,1.1,0.5,1.6,0.7c0.7,0.3,1.3,0.4,2,0.2c1-0.2,2-0.3,2.9-0.4c1-0.1,1.9-0.5,2.7-1.2c0.7-0.7,1.7-1.2,2.4-2
		c0.2-0.3,0.5-0.5,0.8-0.8c0.1-0.1,0.1-0.2,0.2-0.3c0.9-0.8,1.3-2,1.8-3c0.5-1,0.9-1.9,1.4-2.9c0.3-0.5,0.7-1,1-1.5
		c0.6-1,1.1-2,1.7-3c0.2-0.3,0.3-0.6,0.5-0.9c0.9-1.1,1.1-2.4,1-3.8c-0.1-0.6-0.1-1.3-0.1-2c2,1.1,3.2,3.6,2.8,5
		c-0.3-0.2-0.6-0.3-0.9-0.5c-0.4-0.2-0.8,0.1-0.7,0.5c0,0.3,0.1,0.6,0.3,0.8c0.2,0.3,0.4,0.6,0.6,0.9c0.7,0.9,0.9,2,1.2,3.1
		c0,0.2,0,0.3,0,0.5c-0.1,0.3,0,0.5,0.1,0.7c0.2,0.4,0.4,0.9,0.5,1.4c0.5,2.3,1.1,4.6,1.9,6.8c0.4,1.1,0.6,2.2,0.8,3.3
		c0.2,1,0.5,1.9,0.8,2.9c0.1,0.4,0.1,0.8,0,1.2c-0.4,1.2-1,2.3-1.6,3.5c-0.2,0.4-0.5,0.7-0.8,1.1c-0.2,0.3-0.5,0.6-0.7,1
		c-0.3,0.6-0.8,1-1.3,1.5c-0.5,0.4-0.9,0.9-1.3,1.4c-0.1,0.1,0,0.4,0,0.6c0.6,0,1.1,0,1.6,0c0.2,0,0.4-0.1,0.6-0.2
		c0.2-0.1,0.3-0.3,0.5-0.4c0.4-0.2,0.9-0.4,1.3-0.6c0.3-0.3,0.6-0.7,0.9-1c0.7,0.4,1.2,1,1.3,1.8
		C209.3,177.7,209.3,178.6,208.8,179.4z"/>
	<path class="st2" d="M169.7,143.5c0.7,0.2,1.4,0.5,2.1,0.1c0.1-0.1,0.3,0,0.5,0c0.4-0.1,0.8-0.1,1.2-0.2c1.8-0.6,2.8-2.1,3.5-3.8
		c0.6-1.6,1.1-3.4,1.4-5.1c0-0.3,0.2-0.5,0.3-0.8c0.2,0.1,0.4,0.1,0.5,0.1c0.7,0.5,1.4,1,1.7,1.9c0,0.2,0.1,0.3,0.2,0.4
		c0.2,0.3,0.6,0.4,0.9,0.2c0.3-0.1,0.4-0.4,0.3-0.7c-0.1-0.5-0.3-0.9-0.4-1.4c-0.1-0.5-0.5-0.9-0.9-1.2c-0.2-0.2-0.5-0.3-0.7-0.5
		c-0.4-0.4-0.9-0.7-1.3-1.2c-0.4-0.6-0.7-1.3-1-2c-0.8-2.1-1.7-4.1-2.8-6c-0.5-0.8-1-1.6-1.5-2.4c-1-1.7-2.1-3.4-3.3-5.1
		c-0.3-0.4-0.5-0.8-0.9-1c-0.6-0.4-0.9-0.9-1.2-1.6c-0.4-0.9-0.8-1.8-1.5-2.5c-0.3-0.3-0.3-0.6-0.3-0.9c0-0.7,0.1-1.4-0.3-2
		c-0.1-0.2-0.1-0.4-0.1-0.6c0.1-0.5-0.2-0.8-0.5-1.2c-1.1-1.5-1.1-1.5-1.5-3c-0.9-0.1-1,0-1,0.7c0.1,1,0.5,2,0.9,2.9
		c0.3,0.6,0.5,1.2,0.7,1.8c0.5,1.2,0.3,2.3-0.3,3.3c-0.5,0.8-0.8,1.7-1.2,2.6c-0.3,0.7-0.6,1.4-0.8,2.2c-0.5,2-1,4-1.2,6
		c-0.1,0.8-0.1,1.6,0,2.5c0.1,0.6,0.2,1.1,0.2,1.7c0.1,1.3,0.2,2.6-0.1,3.9c-0.3,1.5-0.6,3.1-0.6,4.6c0,0.2,0,0.5,0,0.7
		c-0.2,1.1,0,2.2,0.1,3.3c0.1,0.8,0.3,1.6,0.6,2.4c0.3,0.9,0.8,1.7,1.2,2.6c0.1,0.1,0.1,0.3,0.2,0.4c0.2,0.3,0.3,0.4,1,0.2
		c-0.1-1-0.1-1.9-0.6-2.8c-0.2-0.3-0.3-0.7-0.3-1.1c-0.1-0.6,0.2-1,0.8-1.2c0.6,0.3,1,0.8,1.5,1.3c0.4,0.4,0.8,0.7,1.3,0.9
		C167.5,142.7,168.6,143.1,169.7,143.5z M165.7,138.1c-0.2-0.3-0.5-0.5-0.8-0.8c-0.4-0.4-0.7-0.8-1.1-1.2c-0.8-0.8-1.1-1.7-0.5-2.8
		c0.7-2.5,1.3-5,1.2-7.6c0-2.8,0.2-5.5,0.4-8.3c0-0.4,0.2-0.9,0.3-1.4c1.3,0,2.2,0.4,2.9,1.2c0.1,0.2,0.3,0.3,0.4,0.5
		c1.1,1.4,2.1,2.8,3.2,4.2c1.8,2.3,3,4.8,3.8,7.5c0.1,0.2,0.1,0.4,0.2,0.6c0.3,0.8,0.5,1.6,0.3,2.4c-0.2,1.2-0.4,2.3-0.6,3.5
		c-0.1,0.9-0.6,1.6-1,2.4c-0.2,0.3-0.5,0.5-0.8,0.8c-0.1,0.1-0.2,0.1-0.2,0.1c-0.8,0.9-1.9,1.1-3,1.2c-0.6,0-1.2,0-1.7-0.2
		C167.6,139.7,166.5,139.2,165.7,138.1z"/>
	<g>
	</g>
	<g>
	</g>
	<g>
	</g>
	<g>
	</g>
	<g>
	</g>
	<g>
	</g>
</g>
</svg>
