<?xml version="1.0" encoding="utf-8"?>
<!-- Generator: Adobe Illustrator 22.1.0, SVG Export Plug-In . SVG Version: 6.00 Build 0)  -->
<svg version="1.1" xmlns="http://www.w3.org/2000/svg" xmlns:xlink="http://www.w3.org/1999/xlink" x="0px" y="0px"
	 viewBox="0 0 360 360" style="enable-background:new 0 0 360 360;" xml:space="preserve">
<style type="text/css">
	.st0{fill:#3C9DAD;}
	.st1{stroke:#000000;stroke-width:0.5;stroke-miterlimit:10;}
	.st2{stroke:#000000;stroke-miterlimit:10;}
</style>
<g id="Layer_1">
	<g>
		<path d="M69.3,294.3c0.4-0.2,0.4-0.6,0.4-1c0-1,1-2.4,1.4-3.3c0.5-1.2,1.1-2.4,1.7-3.6c0.5-0.9,1-1.8,1.3-2.8c0.4-1.1,1-2,1.4-3.1
			c0.2-0.4,0.4-0.9,0.6-1.3c0.5-1,1-1.8,2.2-1.7c1.7,0.1,3.2-2.3,4-3.5l0.4-0.5c0,0,0.5,0.3,0.5,0.3c0.8,0.5,2.1,0.6,3,1
			c0.6,0.3,0.7,0.7,0.8,1.3c0.3,1.8,0.6,3.7,0.9,5.5c0.2,0.9,0.4,1.9,0.6,2.8c0.3,1.3,0.4,1,1.6,0.9c0.1,0,0.3,0,0.4,0
			c-0.3,0,1.2,0.9,1.2,1c0.5,0.3,0.8,0.6,1.4,0.8c0,0-0.3,0.6-0.3,0.6c-0.5,1-1.5,1.8-2.5,2.3c-0.1,0-0.1,0.1-0.2,0.1
			c0,0.1,0,0.1,0,0.2c0.3,1.7,0.6,3.2-0.3,4.8c-0.6,1-1.5,1.8-2.5,2.2c-1.3,0.5-2.2,0.2-3.3-0.6c0,0,0-0.7,0-0.8
			c-0.1-0.3-0.3-0.5-0.5-0.8c-0.1-0.1-0.9-1.1-1-1.1l1.1-0.3c0.6-0.2,1.1-0.4,1.3-0.7c0.2-0.3,0.5-1.2,0.2-1.5
			c-0.3-0.3-1.8,0.1-2.1,0.2c-1.5,0.3-3.1,0.8-4.6,0.4c-0.1-0.3-0.4-0.6-0.5-0.9c-0.3-0.5-0.4-1.1-0.5-1.7c0.1,0.6-0.4,0.8-0.7,1.2
			c-1,1.5-0.7,4.6-2.3,5.6c-1.2,0.7-2.3,1.6-3.5,0.5C70.6,296.7,69.5,294.3,69.3,294.3z M79.5,285.9c-0.3,0.4-0.6,0.9-0.9,1.3
			c0.1,0,0.3,0,0.4,0s0.3,0,0.4,0c0.7,0,1.4-0.1,2.1-0.2c0.6-0.1,1.3-0.2,2.1-0.3c-0.2-0.8-0.4-1.6-0.6-2.4
			c-0.2-0.8-0.4-1.7-0.7-2.5l-0.2,0.3c-0.5,0.6-1,1.2-1.5,1.9C80.3,284.7,79.9,285.3,79.5,285.9L79.5,285.9z"/>
		<path d="M99.8,291.5c0.2,0.5-1.7,2.3-1.8,2.9c-0.1,0.2-0.1,0.5-0.1,0.7c-0.1,0.5-0.2,0.9-0.4,1.3c-0.1,0.3-1,0.8-0.9,0.9
			c-0.8,0.5-1.5,0.2-2-0.5c-0.6-0.8-1-1.7-1.4-2.6c-0.3-0.6-0.1-1.4-0.5-1.9c1-2.2,2.2-4.6,3.4-7.1c1.2-2.5,2.4-5,3.5-7.5
			c0.5,0.2,1,0.4,1.5,0.7c0.5,0.2,0.9,0.5,1.3,0.9c0.4,0.3,0.7,0.7,1,1.1c0.8,1.1,0.3,2.4-0.1,3.5c-0.5,1.4-0.4,2.5-0.5,3.9
			c0,1,0,2.1,0.2,3.1c0.7-0.4,1.4-1,1.8-1.7c0.5-0.7,0.8-1.5,1.1-2.4c0.3-0.9,0.5-1.8,0.7-2.8c0.1-1,0.3-2,0.5-3.1
			c0-0.2,0.4-0.6,0.5-0.9c0.1-0.2,0.7-2.5,0.8-2.5c1,0.1,1.5,1.1,2.4,1.5c0.2,0.1,0.3,0.1,0.5,0.3c0.1,0.1,0.2,0.2,0.3,0.4
			c0.3,0.4,0.5,0.7,0.6,1.1c0.3,0.9-0.4,2-0.7,2.8c0,0.1,0,0.1-0.1,0.2c-0.9,2.8-0.7,5.9-2.1,8.5c-0.7,1.4-1.6,2.9-2.8,3.9
			c-0.5,0.4-1,0.7-1.6,0.8c-1.6,0.3-2.9-1.3-3.8-2.4C100.8,293.7,100.3,292.7,99.8,291.5z"/>
		<path d="M127.6,288.7c-0.1,1.7-1.2,2.9-2.5,4c-1,0.8-2,1.5-3.2,2c-1.7,0.9-3.5,1.5-5.2,2.3c-1.1,0.5-2.7,1.2-3.5-0.1
			c-0.3-0.5-0.5-1.1-0.6-1.7c-0.4-2.2,0.5-4,1.1-6c0.5-1.6,0.5-3,0.3-4.6c-0.1-0.8-0.6-1.9-0.4-2.7c0-0.1,0-0.2,0-0.2
			c0-0.2,0-0.3,0.2-0.3c0.9,0,0.2-1.1,0-1.6c0-0.2,0.2-2.3,0.5-2.2c2.3,0.7,4.6,1.6,6.7,2.7c2.9,1.5,6.4,4.3,6.7,7.8
			C127.6,288.3,127.6,288.5,127.6,288.7z M120.2,290.6c0.6-0.4,1.2-0.7,1.6-1c1-0.5,3.4-1.8,2-3.1c-1.4-1.3-2.6-2.3-4.4-3
			c-0.5-0.2-1.7-0.9-2.2-0.9c-0.1,0-0.3,0-0.4,0.1c-0.1,0.1,0.6,4,0.6,4.4c0,1.6-0.3,3-0.4,4.5C118,291.9,119.1,291.3,120.2,290.6z"
			/>
		<path d="M133.3,294c-0.3,1-0.6,2-1.2,2.9c-0.8,1.3-2.3,0.6-3-0.4c-0.2-0.7-0.5-1.5-0.6-2.3c-0.1-0.8,0.3-1.7,0.5-2.5
			c0.1-0.3,0.1-0.6,0.2-0.9c0-0.2,0-0.4,0.1-0.6c0.1-1.5,0.7-2.9,1-4.3c0.1-0.6,0.2-1.1,0.4-1.7c0.1-0.6,0.3-1.1,0.5-1.5
			c0.2,0,0.5,0,0.8,0.1c0.3,0.1,0.5,0.4,0.8,0.2c2-1.8,3.1-5.2,6.1-5.5c1.2,0.9,2.2,1.7,3.3,2.7c0.1,0.1,0.2,0.2,0.2,0.2
			c0.1,0.1,0.1,0.2,0.1,0.3c0.1,0.2,0.2,0.3,0.3,0.4c0.5,0.7,0.8,1.5,1.1,2.3c0.6,1.5,0.8,3.2-0.4,4.5c-0.9,0.9-2.1,1.6-3.3,2
			c-0.4,0.1-3.5,0.9-3.5,1.2c0,0.1,0,0.1,0.1,0.1c0.1,0,0.1,0.1,0.1,0.2c0.5,0.3,0.9,0.6,1.2,0.8c1.7,1.1,4,1.5,6,1.8
			c0.3,0,0.6,0.1,1.1,0.1c0.2,0.2,0.4,0.4,0.5,0.7c0.1,0.3,0.2,0.5,0.3,0.8c0.4,2.3-1.6,3.2-3.6,2.7c-1.7-0.4-3.3-0.9-4.9-1.6
			c-0.8-0.4-1.6-0.8-2.3-1.3C134.9,295.3,133.3,294.2,133.3,294z M137.9,283c-0.2,0.3-0.5,0.7-0.8,0.9c-0.3,0.3-0.6,0.6-0.8,0.9
			c-0.3,0.3-0.5,0.6-0.7,1c-0.2,0.4-0.4,0.8-0.4,1.2c0.7-0.1,1.5-0.3,2.3-0.6s1.6-0.6,2.3-0.9c-0.1-0.7-0.3-1.2-0.7-1.6
			C138.7,283.4,138.3,283.1,137.9,283z"/>
		<path d="M163.8,279.3C163.9,279.3,163.9,279.3,163.8,279.3c0.3,0.8-0.1,1.6-0.8,2.1c-0.6,0.5-1.4,0.7-2.1,0.9
			c-1.7,0.4-3.5,0.9-5.2,1.3c-0.5,0.1-2.2,0.3-2.3,0.7c-0.3,0.9,1.2,1.1,1.8,1c1.1-0.1,2.2-0.2,3.3-0.3c0.1,0,0.1,0,0.2,0
			c0.1,0,0.1,0.1,0.1,0.2c0.4,1,3,1.8,1.6,3c-1,0.9-2.3,1.4-3.6,1.6c-1.3,0.2-2.8-0.3-4,0.1c-0.7,0.2-0.9,0.7-1.2,1.3
			c-0.3,0.5-0.5,1.1-0.7,1.6c1.8,0.3,3.6,0,5.4-0.2c1.1-0.1,3.1-1.1,4.1-0.8c0.7,0.2,1.6,1.6,2,2.1c0,0.1,0.1,0.1,0.1,0.2
			c0,0.1,0,0.1-0.1,0.2c-0.2,0.5-0.5,0.9-1,1.3c-1.4,1.3-3.5,1.4-5.3,1.6c-2.4,0.3-6.1,1.1-8.2-0.5c-0.4-0.3-0.8-0.8-1-1.4
			c-0.1-0.3-0.2-0.6-0.2-0.9c-0.3-1.5-0.4-3.1,0.3-4.6c0.8-1.6,1.7-3.1,2.3-4.7c-1-0.9-1.1-2.4-1.2-3.6c0-0.2-0.1-0.5,0-0.7
			c0.1-0.2,0.3-0.4,0.6-0.5c1.4-0.7,2.9-1.1,4.4-1.5c2.4-0.6,4.7-1.1,7.1-1.3c1.1-0.1,2.4,0,3.2,0.8
			C163.6,278.9,163.7,279.1,163.8,279.3z"/>
		<path d="M181.3,297.6C181.2,297.6,181.2,297.6,181.3,297.6c-1.4-0.3-2.2-1.6-2.8-2.7c-0.1-0.2-1.5-2.9-1.4-2.9l-0.4,0.4l-0.6,0.5
			c0,0-0.3,0.3-0.3,0.3c-1.6,1.6-3.4,3.1-5.5,3.8c-1.2,0.4-2.3,0.5-3.4-0.2c-1.1-0.7-3.4-3-3.1-4.5c0.1-0.3,0.2-0.8,0.3-1.5
			c0.1-0.7,0.3-1.5,0.5-2.4c0.6-2.8,1.3-5.8,2.7-8.3c0.3-0.5,0.6-1,0.9-1.3c0.3-0.4,0.7-0.6,1.1-0.7c0.1,0.1,0.2,0.3,0.4,0.3
			c0.8,0.4,1.4,1.4,2,2c0.4,0.5-0.1,1.4-0.2,1.9c-0.2,0.7-0.4,1.3-0.6,2s-0.4,1.3-0.7,1.9c-0.2,0.6-0.4,1.2-0.5,1.6
			c-0.1,0.4-0.2,0.8-0.3,1.2c-0.2,0.8-0.4,1.9-0.5,3.2c0.3-0.1,0.5-0.2,0.8-0.4c2.4-1.7,3.8-4,5.3-6.5c0.3-0.5,0.7-1.1,1-1.7
			c0.4-0.6,0.7-1.2,1.1-1.7s0.7-1,1-1.5c0.3-0.4,0.7-0.8,0.9-1.1c0.2,0.2,0.4,0.4,0.7,0.6c0.9,0.6,1.4,1.1,2,2.1
			c0.4,0.6,0.1,1.1,0,1.8c-0.5,2.6-1.2,4.9-0.7,7.6c2.3-1.5,3.6-4,4.6-6.6c1-2.5,1.7-5.2,3.3-7.4c1.3,0.7,2.3,1.8,2.8,3.2
			c0.2,0.4,0.3,0.8,0.2,1.3c0,0.5-0.2,0.9-0.4,1.4c-0.4,1-0.9,2.1-1.3,3.1c-0.9,2.2-1.8,4.5-3.1,6.6
			C186,294.8,183.7,298.1,181.3,297.6z"/>
		<path d="M203.1,294.7c0-0.2-0.1-0.3-0.1-0.5c-0.3-1.2,0.3-3.2,0.6-4.4c0.2-1,0.3-2.1,0.5-3.2c0.2-1.1,0.7-2.1,0.9-3.2
			c0.1-0.7,0.3-1.4,0.4-2c0.2-0.7,0.4-1.3,0.6-1.8c0.3,0,0.6,0,0.9,0.1c0.3,0.1,0.6,0.3,0.7,0.4c0.7-0.5,1.3-1.1,1.8-1.9
			c0.5-0.7,1-1.4,1.6-2.1c0.5-0.7,1.1-1.3,1.8-1.8c1.6-1.3,2.7-0.8,4.2,0.2c1,0.6,2.3,1.9,2.8,2.9c0.8,1.8,1.8,3.5,2.1,5.4
			c0,0.1,0,0.3,0,0.4c0,2-1.8,3.6-3.5,4.5c-0.9,0.4-1.9,0.8-3,1.1c-1,0.3-2,0.6-2.9,1c0,0.1,0,0.1,0.1,0.1c0.1,0,0.1,0.1,0.1,0.2
			c1.4,0.8,2.7,1.7,4.2,2.2c1.6,0.5,3.3,0.7,4.9,0.9c0.3,0,0.6,0.1,0.8,0.2c0.6,0.3,0.7,1.1,0.8,1.7c0.2,1.4,0.4,2.6-1.2,3.2
			c-0.8,0.3-1.8,0.3-3,0s-2.7-0.8-4.6-1.5c-1.7-0.6-3.3-1.4-4.7-2.4c-0.6-0.4-1.2-1.5-1.8-0.9c-0.5,0.5-0.3,1.4-0.6,2.1
			c-0.3,0.9-1.3,2-2.4,1.9C204,297.4,203.4,295.7,203.1,294.7z M214.1,279.9c-0.3,0.4-0.6,0.8-0.9,1.1c-0.3,0.3-0.7,0.7-1,1
			c-0.3,0.4-0.6,0.7-0.9,1.2c-0.3,0.4-0.4,0.9-0.5,1.5c0.9-0.1,1.8-0.4,2.8-0.8c1-0.4,1.9-0.8,2.8-1.1c-0.1-0.8-0.4-1.4-0.8-1.9
			C215.1,280.4,214.6,280.1,214.1,279.9z"/>
		<path d="M242.6,294.6c-0.3,1.2-1.3,2.3-2.5,2.8c-0.8,0.4-1.7,0.4-2.4-0.2c-0.6-0.5-0.3-0.9-0.6-1.5c-0.2-0.4-0.7-0.6-1-1
			c0.5-0.1,0.9-0.2,1.3-0.4c0.6-0.3,1.4-1,0.7-1.5c-0.5-0.3-1.5,0-2,0.2c-0.6,0.2-1.4,0.4-2.1,0.4c-1.6,0-2.1-1.1-2.4-2.4
			c-0.5,1.5-1.6,2.6-1.9,4.2c-0.3,1.4-1.6,3.1-3.3,2.2c-0.6-0.4-1-1.3-1.3-1.9c-0.2-0.5-0.2-0.3-0.1-0.8c0-0.3,0.2-0.6,0.3-0.9
			c0.2-0.7,0.6-1.4,0.9-2.1c0.6-1.4,1.3-2.7,2-4.1c0.6-1.3,1.2-2.7,1.8-4c0.2-0.4,0.3-0.7,0.5-1.1c0.3-0.6,0.7-1.3,1.5-1.4
			c0.2,0,0.4,0,0.5,0c0.7-0.1,3.7-3.2,3.4-3.4c0.8,0.5,1.7,0.6,2.6,0.9c0.3,0.1,0.6,0.3,0.8,0.5c0.4,1.1,0.4,2.4,0.6,3.6
			c0.1,0.4,0.9,5.3,1.5,5c0.1,0,0.2-0.1,0.3-0.1c0.9-0.2,2.1,1.1,2.9,1.4c0,0-0.3,0.5-0.3,0.5c-0.5,1-2.5,1.7-2.1,2.7
			C242.8,292.9,242.8,293.9,242.6,294.6z M233.4,289.1c0.6,0,1.2-0.1,1.8-0.1c0.5-0.1,1.1-0.1,1.8-0.3c-0.1-0.6-0.3-1.3-0.5-2
			s-0.4-1.4-0.5-2.1l-0.2,0.3c-0.4,0.4-0.8,1-1.2,1.5c-0.4,0.6-0.7,1.1-1,1.6c-0.1,0.2-0.3,0.4-0.4,0.6c-0.1,0.2-0.2,0.4-0.4,0.6
			c0.1,0,0.3,0,0.4,0C233.1,289.1,233.2,289.1,233.4,289.1z"/>
		<path d="M250.6,295.1c0.1,0.9,0.1,1.8-0.9,2.3c-0.3,0.2-0.7,0.3-1.1,0.3c-0.4,0-0.8,0-1.2-0.1c-0.4-0.1-0.9-1.9-1-2.2
			c-0.8-2.5-0.7-5-0.3-7.6c0.2-1.3,0.8-2.6,1-3.9c0.4-1.7,0.7-3.2,1.3-4.8c0-0.1,0.1-0.2,0.2-0.3c0.6-0.6,1.4-1.3,2.3-1.3
			c0.6,0,0.9,1.9,1,2.3c0.1,0.6,0.2,1.1,0.3,1.7c0.1,0.4,0.4,0.9,0.4,1.3c0,0.1,0,0.2-0.1,0.3c-0.3,0.9-0.5,1.9-0.9,2.7
			c-0.9,2.7-1.4,5.5-1.1,8.4C250.6,294.5,250.6,294.8,250.6,295.1z"/>
		<path d="M259,291.5C259,291.5,259,291.5,259,291.5c-0.7,0.9-1.3,1.9-1.6,3c-0.4,1.1-1.2,3.7-2.9,2.8c-0.5-0.2-0.8-0.7-1-1.1
			c-0.6-0.9-1-1.9-1.3-2.9c-0.1-0.3-0.2-0.6-0.1-1c0-0.3,0.2-0.6,0.3-1c2.2-4.6,4.4-9.2,6.6-13.8c0.9,0.4,1.8,0.7,2.6,1.3
			c0.8,0.6,1.4,1.4,1.6,2.4c0.2,1.1-0.3,2.2-0.7,3.3c-0.6,2-0.6,4.2,0.1,6.1c2.1-1.2,3-3.8,3.4-6.2c0.4-2.4,0.6-4.9,1.9-7
			c0.1-0.1,0.1-0.2,0.2-0.2c0.1,0,0.2,0,0.3,0.1c0.5,0.3,0.9,0.6,1.4,1c0.5,0.4,1.1,0.8,1.5,1.3c0.4,0.5,0.7,1.2,0.5,1.8
			c-0.1,0.5-0.4,1-0.7,1.4c-0.6,1.2-0.7,2.5-0.9,3.9c-0.4,3.2-1.4,6.5-3.7,8.7c-0.8,0.8-1.9,1.4-3,1.1c-0.6-0.1-1.1-0.5-1.5-0.9
			C260.7,294.7,259.7,293.2,259,291.5z"/>
		<path d="M272.6,282.9c0.9-2.5,4.2-3.1,6.7-3.9c2.6-0.9,5.4-1.6,8.1-1.4c0.5,0,0.9,0.1,1.3,0.4c0.3,0.2,0.6,0.6,0.8,0.9
			c0.4,0.6,0.7,1.3,1,1.9c0.1,0.2,0.2,0.5,0.2,0.7c-0.1,0.8-1,1-1.8,1c-2.9,0.1-6.1-0.6-8.8,0.6c-0.1,0-0.2,0.1-0.2,0.1
			c-0.1,0.2,0.1,0.5,0.4,0.6c0.6,0.3,1.3,0.6,1.9,0.9c0.3,0.1,0.6,0.3,0.8,0.5c0.2,0.2,0.3,0.6,0.4,0.9c0.5,1.1,1.4,1.9,1.8,3
			c0.4,1.1,0.2,2.5-0.3,3.6c-0.6,1.1-1.5,2-2.5,2.7c-1.8,1.3-4,2.2-6.2,2.5c-0.9,0.1-2,0.1-2.5-0.6c-0.2-0.3-0.3-0.7-0.3-1
			c-0.1-0.5-0.1-1-0.1-1.4c0-0.3,0-0.6,0.2-0.9c0.3-0.4,0.9-0.5,1.5-0.5c2.4-0.1,4.7-1.1,6.5-2.6c0.5-0.4,1-1.1,0.6-1.6
			c-0.1-0.2-0.3-0.3-0.6-0.4c-1.3-0.6-2.6-0.9-3.9-1.1c-1.2-0.2-2.5-0.2-3.7-0.6c-0.6-0.2-1.2-0.7-1.5-1.3c-0.2-0.4-0.2-0.8-0.2-1.1
			C272.4,284,272.5,283.4,272.6,282.9z"/>
	</g>
	<path class="st0" d="M214,256.1c-0.1-0.5-0.3-0.9-0.8-1.2c-0.8-0.4-1.6-0.6-2.5-0.4c-1.3,0.2-2.6,0.1-3.9-0.2
		c-1.1-0.3-2.1-0.6-3.2-0.8c-0.4-0.1-0.7-0.3-1-0.5c-0.8-0.7-1.7-1.3-2.8-1.5c-0.8-0.2-1.6-0.5-2.3-0.9c-1.4-0.7-2.7-1.6-4.2-1.9
		c-0.2,0-0.4-0.1-0.6-0.2c-1.5-0.9-3.1-1.8-4.7-2.8c-1.5-0.9-3.1-1.9-4.6-2.9c-0.9-0.6-1.8-1.2-2.7-2c-1.1-0.9-1.9-2-2.8-3.1
		c-0.2-0.3-0.4-0.7-0.6-1.2c0.3-0.2,0.5-0.2,0.6-0.3c0.4-0.3,0.8-0.6,1.1-1c0.3-0.4,0-0.9-0.2-1.3c0,0,0-0.1,0-0.1
		c-0.4-2.1-1.5-3.9-3.2-5.3c-0.3-0.3-0.6-0.7-0.8-1.1c-0.9-1.7-1.7-3.5-2.2-5.3c-0.1-0.2-0.2-0.5-0.3-0.7c-0.3-0.6-0.6-1.3-0.9-1.9
		c-0.2-0.4-0.3-0.8-0.5-1.1c-0.8-1.2-1.1-2.6-1.7-3.9c-0.8-1.6-0.9-3.4-1.4-5.1c-0.4-1.1-0.6-2.2-0.8-3.3c0-0.2-0.1-0.3-0.2-0.5
		c-0.4-1-0.7-2-0.5-3.1c0.2-2,0.6-3.4,1.4-5.8c0-0.1,0-0.2,0-0.4c0-1.5,0-3-0.4-4.5c-0.5-1.8-0.5-3.6,0.2-5.5
		c0.6-1.7,0.7-3.5,0.6-5.2c-0.1-0.9-0.2-1.9-0.4-2.8c-0.4-1.8-0.2-3.5,0-5.2c0.2-1.2,0.6-2.3,0.9-3.5c0.2-0.9,0.5-1.8,0.7-2.7
		c0.2-1.1,0.3-2.3,0.5-3.4c0.1-1.4,0.5-2.8,1-4c0.7-1.8,1.5-3.5,2-5.3c0.2-0.8,0.3-1.6,0.2-2.4c-0.2-1.3-0.4-2.7-1-3.9
		c-0.3-0.7-0.7-1.3-0.3-2.1c0,0,0-0.1,0-0.1c-0.2-0.8,0.2-1.4,0.4-2.1c0.3-0.7,0.6-1.5,0.8-2.2c0.4-1.7,1-3.4,1.6-5.1
		c0.6-1.9,1.3-3.7,1.9-5.6c0.4-1.2,0.5-2.4,0.4-3.6c-0.3-2.8,0-5.5,1.3-8.1c0.5-0.9,0.7-1.9,0.9-2.8c0.1-0.4,0.1-0.9,0.1-1.4
		c-0.2-1.5-0.5-2.9-1-4.3c-0.1-0.3-0.1-0.6,0.1-0.9c0.7-1.1,1.2-2.3,1.7-3.6c0.3-0.8,0.6-1.5,0.7-2.4c0.1-0.8,0.1-1.6,0.3-2.3
		c0.3-1.8,0-3.5-0.3-5.3c-0.1-0.5-0.2-1.1-0.2-1.6c0-0.9,0-1.9,0-2.8c0-2.4-0.4-4.7-0.2-7c0-0.2,0-0.3,0-0.5
		c-0.3-1.8-0.6-3.6-0.9-5.3c-0.1-0.5-0.1-0.9-0.3-1.3c-0.5-1.4-1-2.9-1.6-4.3c-0.5-1.3-1.1-2.5-1.7-3.7c-0.5-1-0.9-2-1.2-3.1
		c-0.2-0.8-0.3-1.6-0.4-2.4c0-0.2,0-0.4-0.1-0.6c0-0.1-0.2-0.3-0.3-0.3c-0.1,0-0.3,0.1-0.4,0.2c-0.1,0.3-0.3,0.6-0.3,0.9
		c0,1.2-0.3,2.3-0.5,3.5c-0.1,0.6-0.3,1.2-0.5,1.8c-0.6,1.5-1.1,3-1.7,4.5c-0.2,0.4-0.3,0.8-0.5,1.2c-0.4,0.9-0.8,1.9-0.9,2.9
		c-0.1,0.7-0.1,1.4,0.1,2.1c0.1,0.8,0.4,1.6,0.7,2.4c0.1,0.4,0.2,0.8,0,1.2c-0.4,0.9-0.8,1.8-1.1,2.7c-0.5,1.3-1.1,2.5-1.5,3.8
		c-0.5,2.2-0.8,4.4-1.5,6.5c-0.3,0.8-0.3,1.6-1,2.2c-0.2,0.2-0.2,0.5-0.4,0.8c-0.8,1.6-1.5,3.2-2.3,4.8c-0.1,0.2-0.3,0.5-0.5,0.7
		c-0.9,1.4-2,2.6-2.5,4.2c-0.6,1.7-1.3,3.4-1.5,5.2c-0.1,1.3-0.2,2.6-0.4,3.9c-0.1,1.1-0.2,2.3-0.7,3.4c-0.3,0.6-0.5,1.2-0.8,1.8
		c-0.1,0.3-0.2,0.7-0.4,1c-0.9,1.7-1.9,3.3-2.9,5c-0.4,0.7-0.8,1.5-1.3,2.2c-1,1.4-1.6,2.9-2.2,4.5c-0.4,1.2-0.5,2.4-0.1,3.6
		c0.1,0.2,0.1,0.5,0.2,0.7c0.1,0.3,0,0.5-0.2,0.7c-0.7,0.4-1.1,1.2-1.8,1.7c-0.4,0.3-0.8,0.7-1.2,1c-0.8,0.9-1.6,1.7-2.1,2.7
		c-0.1,0.3-0.4,0.5-0.6,0.8c-0.5,0.6-1.1,1.2-1.4,1.8c-0.5,1.1-1.2,2-1.8,3.1c-0.7,1.2-1.4,2.3-2,3.5c-0.5,0.9-1,1.8-1.6,2.6
		c-0.5,0.6-1,1.3-1.3,2.1c-0.6,1.1-1.3,2.1-2.1,3c-0.6,0.8-1.4,1.4-1.9,2.2c-0.8,1.2-1.8,2.2-2.3,3.6c-0.1,0.2-0.3,0.4-0.4,0.6
		c-0.2,0.3-0.5,0.7-0.7,1c-0.9,1.5-1.8,3-2.6,4.5c-0.3,0.5-0.5,0.9-0.7,1.4c-0.7,1.8-1.2,3.6-1.6,5.4c-0.3,1.6-0.6,3.2-0.5,4.8
		c0.1,1.1,0,2.2,0,3.3c0,1.6,0.1,3.1,0.2,4.7c0.1,0.7,0.1,1.4-0.1,2.1c-0.2,0.5-0.4,1-0.6,1.5c-0.4,0.7-0.6,1.4-0.8,2.2
		c-0.1,0.4-0.2,0.8-0.4,1.2c-0.4,1-0.7,2.1-1.1,3.1c-0.1,0.2-0.1,0.4-0.1,0.6c0,1.1-0.1,2.2,0,3.3c0,0.6,0.1,1.2,0.4,1.8
		c0.3,0.6,0.6,1.2,0.9,1.8c0.1,0.2,0.2,0.4,0.3,0.7c0.1,0.9,0.5,1.7,0.8,2.6c0.3,0.9,0.8,1.7,1.5,2.3c1.4,1.3,2,2.9,1.7,4.8
		c-0.1,0.6,0,1.1,0,1.7c0,1.1,0.4,2.1,0.5,3.2c0.1,0.9,0.4,1.7,0.8,2.6c0.5,1.3,1,2.7,1.5,4.1c0.4,1.3,0.7,2.7,1.1,4
		c0.2,0.6,0.4,1.2,0.7,1.7c0.2,0.5,0.6,1,0.7,1.6c0.3,1.2,0.9,2.2,1.5,3.2c1.1,1.8,2.7,3.1,4.8,3.5c0.3,0.1,0.6,0,1-0.1
		c0.7-0.3,1.1-0.8,1.2-1.6c0.4-1.8,0.4-3.7,0.5-5.5c0-0.2,0-0.3,0-0.5c0-1.2,0.1-2.3,0.5-3.4c0.4-1.1,0.6-2.2,0.8-3.4
		c0.4-2.4,0.6-4.7,0.4-7.1c-0.1-0.9,0.3-1.7,1-2.5c0.5,0.2,1.1,0.4,1.5,0.7c0.9,0.7,1.5,1.7,1.7,2.8c0.3,1.8,0.6,3.7,0.8,5.5
		c0.2,1.7,0.3,3.4,0.5,5c0.3,2.8,1.6,5.1,3.6,7c0.5,0.5,0.9,1,1.2,1.7c0.6,1.5,1.2,3,1.7,4.5c0.1,0.5,0.4,0.9,0.7,1.3
		c0.6,0.9,1.3,1.7,1.8,2.6c1,1.7,2.4,3.1,3.6,4.5c0.1,0.1,0.3,0.3,0.5,0.4c0.5,0.4,1,0.9,1.5,1.3c0.8,0.7,1.7,1.3,2.7,1.7
		c0.9,0.4,1.9,0.8,2.8,1.4c1.9,1.2,3.9,1.8,6,2.2c0.6,0.1,1.2,0.3,1.7,0.7c0.4,0.3,0.8,0.5,1.3,0.6c0.3,0,0.6,0.1,0.8,0.2
		c0.8,0.4,1.7,0.4,2.5,0.2c1.6-0.3,3.3-0.2,4.9-0.7c0.2,0,0.3,0,0.5,0c0.8,0.1,1.6,0.1,2.3,0.2c1.2,0.2,2.4,0.2,3.6,0
		c1.1-0.2,2.3-0.2,3.4-0.2c0.8,0,1.5-0.1,2.2-0.6c0.3-0.2,0.7-0.3,1-0.5c1.5-0.6,3-1.2,4.5-1.8c0.8-0.3,1.6-0.8,2.1-1.4
		c0.2-0.2,0.3-0.4,0.5-0.5c1.2-0.6,2.4-1.3,3.8-1.2c1.4,0,2.6-0.5,3.8-1.2c0.7-0.5,1.3-1,1.6-1.8c0.2-0.6,0.6-1.1,1.1-1.5
		C214.1,257.6,214.1,256.9,214,256.1z M150.6,185.7c0.1,0.9,0.2,1.9,0.3,2.8c0.2,1.2,0.2,2.5,0,3.7c-0.2,1.5-0.6,3-1.7,4.2
		c-1.1,1.2-2.3,2-3.9,2.2c-0.5,0.1-1,0-1.5-0.2c-1-0.5-2-1.1-2.6-2c-0.5-0.7-1-1.5-1.4-2.3c-0.3-0.8-0.9-1.6-1.4-2.3
		c-0.1-0.2-0.2-0.4-0.3-0.6c0.5-0.9,0.9-1.7,1.4-2.6c0.4-0.7,0.6-1.5,0.6-2.2c0-0.9,0.3-1.7,0.3-2.5c0.1-0.6,0.2-1.2,0.2-1.8
		c0.1-1.4,0.5-2.7,1.1-3.9c0.2-0.4,0.5-0.9,0.6-1.3c0.3-1.3,1.2-2.2,2-3.2c1.3-1.7,2.9-3.1,4.4-4.7c0.5-0.5,1-1.1,1.5-1.6
		c0.2-0.2,0.5-0.5,0.7-0.7c0.4-0.3,0.7-0.2,0.9,0.2c0.3,0.6,0.4,1.2,0.3,1.8c-0.1,1-0.2,2-0.4,2.9c-0.2,1.2-0.2,2.4-0.1,3.6
		c0,0.6,0,1.2,0.1,1.8c0.1,0.6,0.3,1.1,0.5,1.6c-0.7,1.1-1.1,2.2-1.3,3.3c-0.1,0.4-0.1,0.7-0.3,1.1
		C150.5,183.8,150.5,184.8,150.6,185.7z"/>
	<path class="st0" d="M241.4,207.1c-0.1-0.8-0.2-1.6-0.7-2.4c-0.3-0.5-0.5-1.1-0.1-1.6c0.1-1.2,0.7-2.4,0.7-3.6c0-0.7,0-1.3-0.2-2
		c-0.3-0.7-0.6-1.5-0.9-2.2c-0.8-1.9-1.3-4-1.7-6c-0.3-1.8-0.6-3.6-1.2-5.3c-0.3-0.8-0.7-1.7-1.2-2.4c-0.4-0.7-0.5-1.5-0.3-2.2
		c0.2-0.7,0.2-1.5,0.2-2.2c0-0.7-0.2-1.4-0.5-2c-0.9-1.7-2-3.2-3.4-4.5c-0.4-0.4-0.9-0.7-1.4-0.8c-0.4-0.1-0.9-0.4-1.3-0.1
		c-0.4,0.2-0.8,0.2-1.2,0.3c-0.6,0.1-0.7,0.3-0.5,0.8c0.4,1,0.6,2,0.7,3c0.1,1.3,0.1,2.6-0.4,3.9c-0.7,1.9-1.6,3.6-2.8,5.2
		c-0.2,0.3-0.4,0.6-0.6,1c-0.4,0.7-0.5,1.6-0.7,2.4c-0.1,0.5-0.2,1.1-0.5,1.5c-0.8,1-1.6,1.9-2.5,2.9c-0.3,0.4-0.8,0.7-1.2,1.1
		c-0.5,0.5-1,0.9-1.6,1c-0.7,0.2-1.4,0.4-2.2,0.3c-0.9-0.1-1.9-0.2-2.8-0.3c-0.7,0-1.2-0.4-1.7-0.9c-0.4-0.5-0.4-0.8,0.1-1.2
		c0.4-0.4,0.9-0.7,1.5-0.9c1.2-0.4,2.2-1,3.1-1.9c0.8-0.8,1.3-1.5,1.5-2.6c0.1-0.7,0.4-1.4,0.5-2c0.5-2,1.6-3.9,2.3-5.8
		c0.5-1.3,1.1-2.7,1.1-4.2c0-0.2,0-0.4,0.1-0.6c0.1-0.8,0.1-1.5,0-2.3c-0.2-1.3-0.2-2.5-0.4-3.8c-0.1-1.2-0.1-2.4-0.5-3.5
		c-0.4-1.4-0.7-2.8-1.1-4.2c-0.4-1.4-0.7-2.9-1.1-4.3c-0.6-2-1.4-3.9-2.2-5.9c-0.6-1.5-1.2-3.1-1.9-4.6c-0.5-1.2-1-2.5-2.1-3.4
		c-0.6-0.5-1.1-1-1.6-1.4c0-0.1,0-0.2,0-0.3c-0.1-0.9-0.2-1.7-0.4-2.5c-0.2-0.6-0.6-1.1-1-1.7c-0.5-0.7-0.7-1.5-0.5-2.4
		c0.1-1,0.1-2-0.1-2.9c-0.2-1.1-0.1-2.2-0.7-3.2c-0.3-0.5-0.7-1-1-1.5c-0.7-1-1.4-2-2.5-2.5c-0.4-0.2-0.7-0.5-1-0.7
		c-0.5-0.3-1-0.6-1.5-0.9c-0.3-0.2-0.5-0.4-0.7-0.7c-0.1-0.2-0.2-0.5-0.3-0.7c-0.4-0.8-0.7-1.7-1.2-2.4c-1.3-1.7-2.4-3.6-3.5-5.5
		c-1.3-2.3-2.3-4.6-3.6-6.9c-0.1-0.2-0.2-0.5-0.3-0.7c-0.2-0.6-0.5-1.2-0.8-1.8c-0.2-0.4-0.4-0.8-0.6-1.2c-0.6-1.4-1.2-2.7-1.8-4.1
		c-0.5-1-1-2.1-1.5-3.1c-0.2-0.6-0.6-1.2-1-1.7c-0.2-0.3-0.4-0.5-0.5-0.8c-0.1-0.7-0.6-1.2-0.9-1.7c-0.1-0.2-0.4-0.3-0.6-0.3
		c-0.3,0.1-0.4,0.3-0.3,0.6c0.1,0.5,0.1,1,0.2,1.5c0.1,0.7,0.1,1.3,0.2,2c0,0.2,0.1,0.4,0,0.6c-0.1,0.9-0.1,1.7-0.3,2.6
		c-0.3,1.8-0.5,3.7-0.5,5.5c0,1.5,0.2,3,0.3,4.5c0.2,1.6,0.4,3.1-0.1,4.6c-0.2,0.9-0.6,1.7-0.7,2.6c-0.1,0.9-0.5,1.6-0.9,2.4
		c-0.7,1.4-1,3-1.1,4.5c0,0.2,0.1,0.5,0.2,0.7c0.2,0.4,0.6,0.7,1,0.9c0.4,0.2,0.5,0.5,0.4,1c-0.1,0.2-0.1,0.3-0.2,0.5
		c-0.6,1.6-1,3.2-1.1,4.8c0,0.9-0.1,1.8-0.1,2.7c0,1.5-0.3,2.9-0.7,4.2c-0.4,1.2-0.4,2.4-1,3.5c-0.1,1.5-0.7,2.8-1,4.2
		c-0.4,1.4-0.7,2.8-0.9,4.2c-0.1,0.7-0.2,1.5-0.2,2.2c-0.2,1.3-0.5,2.6-0.9,3.8c-0.3,0.9-0.7,1.8-1.1,2.6c-0.8,1.7-1,3.6-1.2,5.4
		c-0.1,2.8,0.1,5.5,1.3,8.1c0.2,0.4,0.1,0.7,0,1c-0.4,0.7-0.5,1.5-0.6,2.3c0,0.2-0.1,0.5-0.1,0.7c-0.2,1.3-0.3,2.6-0.4,3.9
		c-0.1,1.4-0.1,2.8-0.2,4.2c0,1.1-0.3,2.2-0.5,3.3c-0.3,1.8-0.3,3.7-0.6,5.5c0,0.2,0,0.3,0,0.5c0,0.5,0,1,0,1.5
		c0.1,1.9-0.1,3.7,0.2,5.6c0.1,0.5,0.1,1.1,0,1.6c-0.1,1.3-0.2,2.5-0.3,3.8c-0.1,0.7-0.1,1.5,0.2,2.2c0.1,0.2,0,0.5,0.1,0.7
		c0.1,1.6,0.6,3.1,1.3,4.5c0.4,0.8,1,1.6,1.7,2.3c0.2,0.2,0.3,0.4,0.4,0.6c0.6,1,0.5,2.1,0.4,3.3c-0.1,0.5-0.1,1,0,1.6
		c0.1,0.6,0.2,1.2,0.3,1.8c0.1,0.7,0.3,1.3,0.6,2c0.8,1.9,1.9,3.7,3.2,5.4c0.5,0.6,0.9,1.2,1.2,1.9c0.4,0.8,1,1.4,1.7,2
		c0.4,0.4,0.8,0.8,1.2,1.2c0.7,0.8,1.3,1.6,2,2.3c0.7,0.6,1.2,1.4,1.5,2.2c0.1,0.3,0.2,0.5,0.4,0.8c0.9,1.3,2,2.4,3.2,3.4
		c0.4,0.4,0.9,0.7,1.4,1c0.8,0.5,1.6,0.9,2.5,1.4c0.8,0.5,1.6,1,2.5,1.3c1.3,0.5,2.7,0.9,4,1.2c1.2,0.3,2.3,0.1,3.2-0.8
		c0.2-0.2,0.4-0.3,0.7-0.3c0.2,0.4,0.4,0.7,0.9,0.8c1.4,0.5,2.7,1.2,4.1,1.6c0.2,0.1,0.4,0.2,0.7,0.3c0.5,0.2,0.9,0.4,1.4,0.5
		c2.2,0.3,4.3,0.4,6.4-0.6c0.2-0.1,0.4-0.1,0.6-0.2c1-0.6,2-0.8,3.1-1c1.2-0.2,2.4-0.7,3.3-1.6c0.4-0.4,0.8-0.7,1.2-1
		c0.7-0.7,1.4-1.3,1.9-2.1c0.6-0.9,1.3-1.8,1.9-2.7c0.7-1.1,1.8-1.8,2.5-3c0.1-0.2,0.4-0.3,0.6-0.5c0.2-0.1,0.3-0.3,0.4-0.4
		c0.4-0.9,0.9-1.8,1.3-2.7c0.4-1.1,0.9-2.1,1.2-3.2c0.4-1.3,0.7-2.6,0.5-4c-0.1-1.1-0.6-1.9-1.7-2.3c-1.3-0.5-2.5-0.6-3.6,0.2
		c-0.1,0.1-0.2,0.1-0.3,0.2c-1.3,0.7-2.7,1.1-4.2,0.8c-1.6-0.3-3.2-0.4-4.8-0.4c-1.3,0-2.4,0.4-3.3,1.4c-0.2,0.2-0.4,0.3-0.5,0.4
		c-1.8-0.8-3.5-1.5-5.3-2.2c-1.2-0.5-2.3-0.9-3.4-1.5c-0.2-0.1-0.4-0.2-0.6-0.3c-1.4-0.6-2.6-1.4-3.7-2.4c-0.6-0.5-1.2-1-1.7-1.6
		c-1.4-1.8-2.8-3.5-4.2-5.2c-0.4-0.5-0.8-1.1-0.5-1.9c1.5,0.2,2.7,0.8,3.7,1.7c1.1,1,2.3,1.9,3.4,2.8c1,0.7,2,1.5,3.4,1.3
		c0.9-0.1,1.5,0.2,2,0.9c0.1,0.1,0.2,0.2,0.3,0.2c1.3,1.2,2.8,1.9,4.6,2.2c1.6,0.3,3.2,0.6,4.7,0.8c1.2,0.2,2.5,0.2,3.7,0.3
		c0.5,0,1,0,1.5,0c0.5,0,1.1,0,1.6,0c1.3,0,2.6-0.3,3.7-1.3c0.6-0.6,1.2-1.2,1.9-1.7c0.4-0.3,0.8-0.7,1.2-1.1
		c0.2-0.3,0.5-0.6,0.8-0.8c0.9-0.7,1.4-1.7,2-2.6c0.1-0.2,0.2-0.4,0.2-0.6c0.1-0.4,0.3-0.8,0.4-1.2c0.5-1.3,0.6-2.6,0.6-4
		C241.4,207.3,241.4,207.2,241.4,207.1z M206,164.5c-0.2,1.2-0.4,2.4-0.6,3.5c-0.1,0.9-0.6,1.6-1,2.4c-0.2,0.3-0.5,0.5-0.8,0.8
		c-0.1,0-0.2,0.1-0.2,0.1c-0.8,0.9-1.9,1.1-3,1.2c-0.6,0-1.2,0-1.7-0.2c-1.1-0.5-2.2-1-3-2.1c-0.2-0.3-0.5-0.5-0.8-0.8
		c-0.4-0.4-0.7-0.8-1.1-1.2c-0.8-0.8-1.1-1.7-0.5-2.8c0.7-2.5,1.2-5,1.2-7.6c0-2.8,0.2-5.5,0.4-8.3c0-0.4,0.2-0.9,0.3-1.4
		c1.2,0,2.2,0.4,2.9,1.2c0.1,0.2,0.3,0.3,0.4,0.5c1.1,1.4,2.1,2.8,3.2,4.2c1.8,2.3,3,4.8,3.8,7.5c0.1,0.2,0.1,0.4,0.2,0.6
		C206,162.9,206.2,163.7,206,164.5z"/>
</g>
<g id="Layer_2">
	<path class="st1" d="M158.4,170.4c-0.4,0-0.4,0.3-0.5,0.6c-0.5,1.2-1.5,2.9-2.3,3.7c-0.4-0.2-0.8-0.4-1.3-0.5
		c0-0.2-0.1-0.5-0.1-0.7c-0.1-1.6,0.2-3.2,0.4-4.8c0.1-0.6,0.1-1.1,0-1.7c-0.2-1.3-0.4-2.5-0.5-3.8c0-0.3,0-0.7,0.2-0.9
		c0.9-1.7,1.1-3.5,1.6-5.3c0.1-0.2,0-0.5,0-0.7c0-1.4,0-2.7,0-4.1c0-0.2,0-0.3-0.1-0.5c-0.1-0.1-0.2-0.2-0.4-0.3
		c-0.1,0-0.3,0.1-0.4,0.2c-0.1,0.3-0.1,0.6-0.1,0.8c-0.1,1.7-0.5,3.3-1.2,4.9c-1,2-2.2,3.9-3.7,5.5c-1.4,1.5-2.6,3.1-4.2,4.5
		c-0.1,0.1-0.2,0.3-0.3,0.4c-0.2,0.2-0.4,0.4-0.6,0.6c-0.3,0.3-0.6,0.7-0.9,1c-0.3,0.4-0.5,0.7-0.8,1.1c-1.1,1.3-2.1,2.8-2.7,4.4
		c-1.2,2.8-2.2,5.8-2.5,8.9c0,0.2,0,0.4,0,0.6c-0.1,1.2-0.3,2.4-0.7,3.5c-0.3,0.6-0.6,1.3-0.9,1.9c-0.4,0.8-1,1.5-1.7,2.1
		c-0.7,0.6-1.6,1.1-2.3,1.6c-0.4,0.3-0.8,0.3-1.3,0.1c-0.4-0.1-0.7-0.3-0.9-0.7c-0.1-0.2-0.2-0.4-0.3-0.5c-0.1-0.1-0.3-0.1-0.4,0
		c-0.1,0.1-0.2,0.3-0.2,0.4c0.2,0.7,0.4,1.5,1.3,1.9c0.1,0.1,0.2,0.2,0.4,0.3c-0.2,0.4-0.4,0.8-0.6,1.2c-0.3,0.5-0.2,0.6,0.4,1.1
		c0.1-0.1,0.3-0.2,0.4-0.4c0.1-0.2,0.2-0.5,0.3-0.7c0.4-0.7,0.9-1.2,1.7-1.3c0.1,0,0.3-0.1,0.4-0.2c0.8-0.4,1.6-0.8,2.3-1.4
		c0,0,0.1,0,0.3,0c0.8,1.4,1.7,2.7,2.8,4c0.6,0.7,1.1,1.4,1.8,2c0.4,0.4,0.9,0.8,1.3,1.3c0.2,0.2,0.4,0.4,0.7,0.5
		c1.8,0.8,3.6,1.2,5.5,0.6c0.3-0.1,0.5-0.2,0.8-0.4c1.7-1.1,2.7-2.7,3.2-4.5c0.4-1.6,0.9-3.2,1-4.8c0.1-0.7,0.2-1.5,0.2-2.2
		c0.1-1.6,0.3-3.2,0-4.8c-0.2-0.9,0-1.7,0.3-2.5c0.5-1.3,1-2.5,1.8-3.6c0.8-1.2,1.6-2.4,2.4-3.6c0.8-1.2,0.9-2.5,1.1-3.9
		C158.8,170.6,158.7,170.4,158.4,170.4z M151.2,181.8c-0.1,0.4-0.1,0.7-0.3,1.1c-0.3,0.9-0.4,1.8-0.3,2.8c0.1,0.9,0.2,1.9,0.3,2.8
		c0.1,1.2,0.2,2.5,0,3.7c-0.2,1.5-0.6,3-1.7,4.2c-1,1.2-2.3,2-3.9,2.2c-0.5,0.1-1,0-1.4-0.2c-1-0.4-2-1-2.6-2
		c-0.5-0.7-1-1.5-1.4-2.3c-0.3-0.8-0.9-1.6-1.4-2.3c-0.1-0.2-0.2-0.4-0.3-0.6c0.5-0.9,0.9-1.7,1.4-2.6c0.4-0.7,0.6-1.5,0.6-2.2
		c0-0.9,0.3-1.7,0.3-2.6c0.1-0.6,0.2-1.2,0.3-1.8c0.1-1.4,0.5-2.7,1.1-3.9c0.2-0.4,0.5-0.9,0.6-1.4c0.3-1.3,1.2-2.2,2-3.2
		c1.3-1.7,2.9-3.1,4.4-4.7c0.5-0.5,1-1.1,1.5-1.6c0.2-0.2,0.5-0.5,0.7-0.7c0.4-0.3,0.7-0.2,0.9,0.2c0.3,0.6,0.4,1.2,0.3,1.8
		c-0.1,1-0.2,2-0.4,2.9c-0.2,1.2-0.2,2.4-0.1,3.6c0,0.6,0,1.2,0.1,1.8c0.1,0.6,0.3,1.1,0.5,1.6C151.8,179.7,151.4,180.7,151.2,181.8
		z"/>
	<path class="st1" d="M199.7,175.5c0.7,0.2,1.4,0.5,2.1,0.1c0.1-0.1,0.3,0,0.5,0c0.4-0.1,0.8-0.1,1.2-0.2c1.8-0.6,2.8-2.1,3.5-3.8
		c0.6-1.6,1.1-3.4,1.4-5.1c0-0.3,0.2-0.5,0.3-0.8c0.2,0.1,0.4,0.1,0.5,0.1c0.7,0.5,1.4,1,1.7,1.9c0,0.2,0.1,0.3,0.2,0.4
		c0.2,0.3,0.6,0.4,0.9,0.2c0.3-0.1,0.4-0.4,0.3-0.7c-0.1-0.5-0.3-0.9-0.4-1.4c-0.1-0.5-0.5-0.9-0.9-1.2c-0.2-0.2-0.5-0.3-0.7-0.5
		c-0.4-0.4-0.9-0.7-1.3-1.2c-0.4-0.6-0.7-1.3-1-2c-0.8-2.1-1.7-4.1-2.8-6c-0.5-0.8-1-1.6-1.5-2.4c-1-1.7-2.1-3.4-3.3-5.1
		c-0.3-0.4-0.5-0.8-0.9-1c-0.6-0.4-0.9-0.9-1.2-1.6c-0.4-0.9-0.8-1.8-1.5-2.5c-0.3-0.3-0.3-0.6-0.3-0.9c0-0.7,0.1-1.4-0.3-2
		c-0.1-0.2-0.1-0.4-0.1-0.6c0.1-0.5-0.2-0.8-0.5-1.2c-1.1-1.5-1.1-1.5-1.5-3c-0.9-0.1-1,0-1,0.7c0.1,1,0.5,2,0.9,2.9
		c0.3,0.6,0.5,1.2,0.7,1.8c0.5,1.2,0.3,2.3-0.3,3.3c-0.5,0.8-0.8,1.7-1.2,2.6c-0.3,0.7-0.6,1.4-0.8,2.2c-0.5,2-1,4-1.2,6
		c-0.1,0.8-0.1,1.6,0,2.5c0.1,0.6,0.2,1.1,0.2,1.7c0.1,1.3,0.2,2.6-0.1,3.9c-0.3,1.5-0.6,3.1-0.6,4.6c0,0.2,0,0.5,0,0.7
		c-0.2,1.1,0,2.2,0.1,3.3c0.1,0.8,0.3,1.6,0.6,2.4c0.3,0.9,0.8,1.7,1.2,2.6c0.1,0.1,0.1,0.3,0.2,0.4c0.2,0.3,0.3,0.4,1,0.2
		c-0.1-1-0.1-1.9-0.6-2.8c-0.2-0.3-0.3-0.7-0.3-1.1c-0.1-0.6,0.2-1,0.8-1.2c0.6,0.3,1,0.8,1.5,1.3c0.4,0.4,0.8,0.7,1.3,0.9
		C197.5,174.7,198.6,175.1,199.7,175.5z M195.7,170.1c-0.2-0.3-0.5-0.5-0.8-0.8c-0.4-0.4-0.7-0.8-1.1-1.2c-0.8-0.8-1.1-1.7-0.5-2.8
		c0.7-2.5,1.3-5,1.2-7.6c0-2.8,0.2-5.5,0.4-8.3c0-0.4,0.2-0.9,0.3-1.4c1.3,0,2.2,0.4,2.9,1.2c0.1,0.2,0.3,0.3,0.4,0.5
		c1.1,1.4,2.1,2.8,3.2,4.2c1.8,2.3,3,4.8,3.8,7.5c0.1,0.2,0.1,0.4,0.2,0.6c0.3,0.8,0.5,1.6,0.3,2.4c-0.2,1.2-0.4,2.3-0.6,3.5
		c-0.1,0.9-0.6,1.6-1,2.4c-0.2,0.3-0.5,0.5-0.8,0.8c-0.1,0.1-0.2,0.1-0.2,0.1c-0.8,0.9-1.9,1.1-3,1.2c-0.6,0-1.2,0-1.7-0.2
		C197.6,171.7,196.5,171.2,195.7,170.1z"/>
	<path class="st2" d="M213.2,255c-0.8-0.4-1.6-0.6-2.5-0.4c-1.3,0.2-2.6,0.1-3.9-0.3c-1.1-0.3-2.2-0.5-3.2-0.8
		c-0.4-0.1-0.7-0.3-1-0.5c-0.8-0.7-1.7-1.3-2.8-1.6c-0.8-0.2-1.6-0.5-2.3-0.9c-1.4-0.7-2.7-1.6-4.2-1.9c-0.2,0-0.4-0.1-0.6-0.2
		c-1.6-0.9-3.1-1.8-4.7-2.8c-1.5-0.9-3.1-1.9-4.6-2.9c-0.9-0.6-1.8-1.2-2.7-2c-1.1-0.9-1.9-2-2.8-3.1c-0.2-0.3-0.4-0.7-0.7-1.2
		c0.3-0.2,0.5-0.2,0.6-0.3c0.4-0.3,0.8-0.6,1.1-1c0.3-0.4,0-0.9-0.2-1.3c0,0,0-0.1,0-0.1c-0.4-2.1-1.5-3.9-3.2-5.3
		c-0.3-0.3-0.6-0.7-0.8-1.1c-0.9-1.7-1.7-3.5-2.2-5.3c-0.1-0.2-0.2-0.5-0.3-0.7c-0.3-0.6-0.6-1.3-0.9-1.9c-0.2-0.4-0.3-0.8-0.5-1.1
		c-0.8-1.2-1.1-2.6-1.7-3.9c-0.8-1.6-0.9-3.4-1.4-5.1c-0.3-1.1-0.5-2.2-0.8-3.3c0-0.2-0.1-0.3-0.2-0.5c-0.4-1-0.7-2-0.5-3.1
		c0.3-2,0.6-3.4,1.4-5.8c0-0.1,0-0.2,0-0.4c0-1.5,0-3-0.4-4.5c-0.5-1.8-0.4-3.6,0.2-5.5c0.6-1.7,0.7-3.5,0.6-5.2
		c-0.1-0.9-0.2-1.9-0.4-2.8c-0.4-1.8-0.2-3.5,0-5.3c0.2-1.2,0.6-2.3,0.9-3.5c0.2-0.9,0.5-1.8,0.7-2.7c0.2-1.1,0.3-2.3,0.4-3.4
		c0.1-1.4,0.5-2.7,1-4c0.7-1.8,1.5-3.5,1.9-5.3c0.2-0.8,0.3-1.6,0.2-2.4c-0.2-1.3-0.4-2.7-1-3.9c-0.3-0.7-0.7-1.3-0.3-2.1
		c0,0,0-0.1,0-0.1c-0.2-0.8,0.2-1.4,0.4-2.1c0.3-0.7,0.6-1.5,0.8-2.2c0.4-1.7,1-3.4,1.6-5.1c0.6-1.9,1.3-3.7,1.9-5.6
		c0.4-1.2,0.6-2.4,0.4-3.6c-0.3-2.8,0-5.5,1.3-8.1c0.5-0.9,0.7-1.8,0.9-2.8c0.1-0.4,0.1-0.9,0.1-1.3c-0.2-1.5-0.5-2.9-1-4.3
		c-0.1-0.3-0.1-0.6,0.1-0.9c0.7-1.1,1.2-2.3,1.7-3.6c0.3-0.8,0.6-1.5,0.7-2.4c0.1-0.8,0.1-1.6,0.3-2.3c0.3-1.8,0-3.5-0.3-5.3
		c-0.1-0.5-0.2-1.1-0.2-1.6c0-0.9,0-1.9,0-2.8c0-2.3-0.4-4.7-0.2-7c0-0.2,0-0.3-0.1-0.5c-0.3-1.8-0.6-3.6-0.9-5.3
		c-0.1-0.4-0.1-0.9-0.3-1.3c-0.5-1.4-1-2.9-1.6-4.3c-0.5-1.3-1.1-2.5-1.7-3.7c-0.5-1-0.9-2-1.2-3.1c-0.2-0.8-0.3-1.6-0.4-2.4
		c0-0.2,0-0.4-0.1-0.6c-0.1-0.1-0.2-0.3-0.3-0.3c-0.1,0-0.3,0.1-0.4,0.2c-0.1,0.3-0.3,0.6-0.3,0.9c0,1.2-0.3,2.4-0.5,3.5
		c-0.1,0.6-0.3,1.2-0.5,1.8c-0.6,1.5-1.1,3-1.7,4.5c-0.2,0.4-0.3,0.8-0.5,1.2c-0.4,0.9-0.8,1.9-0.9,2.9c-0.1,0.7-0.1,1.4,0.1,2.1
		c0.1,0.8,0.4,1.6,0.7,2.4c0.1,0.4,0.2,0.8,0,1.2c-0.4,0.9-0.8,1.8-1.1,2.7c-0.5,1.3-1.1,2.5-1.5,3.8c-0.5,2.2-0.8,4.4-1.5,6.5
		c-0.3,0.8-0.3,1.6-1,2.2c-0.2,0.2-0.2,0.5-0.4,0.8c-0.8,1.6-1.5,3.2-2.3,4.8c-0.1,0.3-0.3,0.5-0.5,0.7c-0.9,1.4-2,2.6-2.5,4.2
		c-0.6,1.7-1.3,3.4-1.5,5.2c-0.1,1.3-0.2,2.6-0.4,3.9c-0.1,1.1-0.1,2.3-0.7,3.4c-0.3,0.6-0.5,1.2-0.8,1.8c-0.1,0.3-0.2,0.7-0.4,1
		c-0.9,1.7-1.9,3.4-2.9,5c-0.4,0.7-0.8,1.5-1.3,2.2c-1,1.4-1.6,2.9-2.2,4.5c-0.4,1.2-0.5,2.4-0.1,3.6c0.1,0.2,0.1,0.5,0.2,0.7
		c0.1,0.3,0,0.5-0.2,0.7c-0.7,0.4-1.1,1.2-1.8,1.7c-0.4,0.3-0.8,0.7-1.2,1c-0.7,0.9-1.6,1.7-2.1,2.7c-0.1,0.3-0.4,0.5-0.6,0.8
		c-0.5,0.6-1.1,1.2-1.4,1.9c-0.5,1.1-1.2,2-1.8,3.1c-0.7,1.2-1.4,2.3-2,3.5c-0.5,0.9-1,1.8-1.6,2.6c-0.5,0.7-1,1.3-1.3,2.1
		c-0.6,1.1-1.3,2.1-2.1,3c-0.6,0.8-1.4,1.4-1.9,2.2c-0.7,1.2-1.8,2.2-2.3,3.6c-0.1,0.2-0.3,0.4-0.4,0.6c-0.2,0.3-0.5,0.7-0.7,1
		c-0.9,1.5-1.7,3-2.6,4.5c-0.3,0.5-0.5,0.9-0.7,1.4c-0.7,1.8-1.2,3.6-1.6,5.4c-0.3,1.6-0.6,3.2-0.5,4.8c0.1,1.1,0,2.2,0,3.3
		c0,1.6,0.1,3.1,0.2,4.7c0.1,0.7,0.1,1.4-0.2,2.1c-0.2,0.5-0.3,1-0.6,1.5c-0.4,0.7-0.6,1.4-0.9,2.2c-0.1,0.4-0.3,0.8-0.4,1.2
		c-0.4,1-0.7,2.1-1.1,3.1c-0.1,0.2-0.1,0.4-0.1,0.6c0,1.1-0.1,2.2,0,3.3c0,0.6,0.1,1.2,0.4,1.8c0.3,0.6,0.6,1.2,0.9,1.8
		c0.1,0.2,0.3,0.4,0.3,0.7c0.1,0.9,0.5,1.7,0.8,2.6c0.3,0.9,0.8,1.7,1.6,2.3c1.4,1.3,2,2.9,1.7,4.8c-0.1,0.6,0,1.1,0,1.7
		c0,1.1,0.4,2.1,0.5,3.2c0.1,0.9,0.4,1.7,0.8,2.6c0.5,1.3,1.1,2.7,1.5,4.1c0.4,1.3,0.7,2.7,1.1,4c0.2,0.6,0.4,1.2,0.7,1.7
		c0.2,0.5,0.6,1,0.7,1.6c0.3,1.2,0.9,2.2,1.5,3.2c1.1,1.8,2.7,3.1,4.8,3.5c0.3,0.1,0.6,0,1-0.1c0.7-0.3,1.1-0.8,1.2-1.6
		c0.4-1.8,0.4-3.7,0.5-5.5c0-0.2,0-0.3,0-0.5c0-1.2,0.1-2.3,0.5-3.4c0.4-1.1,0.6-2.2,0.8-3.4c0.4-2.4,0.6-4.7,0.4-7.1
		c-0.1-0.9,0.3-1.7,1-2.5c0.5,0.2,1.1,0.4,1.5,0.7c0.9,0.7,1.5,1.7,1.7,2.8c0.3,1.8,0.6,3.7,0.8,5.5c0.2,1.7,0.3,3.4,0.5,5
		c0.3,2.8,1.6,5.1,3.6,7c0.5,0.5,0.9,1,1.2,1.7c0.6,1.5,1.2,3,1.7,4.5c0.1,0.5,0.4,0.9,0.7,1.3c0.6,0.9,1.3,1.7,1.8,2.6
		c1,1.7,2.4,3.1,3.6,4.5c0.1,0.2,0.3,0.3,0.5,0.4c0.5,0.4,1,0.9,1.5,1.3c0.8,0.7,1.7,1.3,2.7,1.7c0.9,0.4,1.9,0.8,2.8,1.4
		c1.8,1.2,3.9,1.8,6,2.2c0.6,0.1,1.2,0.3,1.7,0.7c0.4,0.3,0.8,0.5,1.3,0.6c0.3,0,0.6,0.1,0.8,0.2c0.8,0.4,1.7,0.4,2.5,0.3
		c1.6-0.3,3.3-0.2,4.9-0.7c0.2,0,0.3,0,0.5,0c0.8,0.1,1.6,0.1,2.3,0.2c1.2,0.2,2.4,0.2,3.6,0.1c1.1-0.2,2.3-0.2,3.4-0.2
		c0.8,0,1.5-0.1,2.2-0.6c0.3-0.2,0.7-0.3,1-0.5c1.5-0.6,3-1.2,4.5-1.8c0.8-0.3,1.5-0.8,2.1-1.4c0.2-0.2,0.3-0.4,0.5-0.5
		c1.2-0.6,2.4-1.3,3.8-1.3c1.4,0,2.7-0.5,3.8-1.2c0.7-0.4,1.3-1,1.6-1.8c0.2-0.6,0.6-1.1,1.1-1.5c0.8-0.6,0.8-1.3,0.7-2.1
		C213.9,255.6,213.7,255.2,213.2,255z M210,258.2c-0.3,0.4-0.7,0.7-1.1,1c-0.5,0.3-1,0.6-1.5,0.9c-1.2,0.6-2.5,1.2-3.7,1.6
		c-2,0.6-3.9,1.5-5.8,2.3c-0.6,0.2-1.2,0.5-1.8,0.5c-0.6,0-1.1,0.2-1.7,0.4c-0.4,0.1-0.8,0.2-1.2,0.3c-1.7,0.5-1.7,0.5-3.4,0.1
		c-0.8-0.2-1.6-0.4-2.4-0.6c-2-0.6-4-0.6-5.9,0.3c-0.4,0.2-0.8,0.3-1.3,0.5c-1.4,0.4-2.8,0.2-4-0.7c-1-0.7-2-1.1-3.3-1.2
		c-0.8,0-1.5-0.4-2.3-0.6c-0.2,0-0.3-0.2-0.5-0.2c-1.4-0.1-2.6-0.8-3.9-1.1c-0.2-0.1-0.5-0.2-0.7-0.3c-0.8-0.3-1.6-0.7-2.4-1
		c-0.3-0.1-0.6-0.2-0.8-0.4c-1.2-1-2.5-2.1-3.7-3.1c-0.8-0.7-1.6-1.3-2.2-2.1c-0.7-0.9-1.5-1.7-1.9-2.8c-0.2-0.5-0.3-0.9-0.4-1.4
		c-0.1-0.6-0.1-0.8,0.4-1.6c0.4-0.1,0.6,0.2,0.6,0.6c0,0.4,0,0.8,0,1.3c0.4,0.4,0.8,0.7,1.4,0.8c0.5,0.1,1,0.2,1.4,0.4
		c0,0,0.1,0,0.1,0c1.5,0.2,2.6,1.2,3.9,1.7c0.4,0.2,0.8,0.3,1.3,0.4c0.1,0,0.2-0.1,0.4-0.2c-0.2-0.6-0.6-1-1.1-1.3
		c-0.5-0.3-0.9-0.6-1.3-0.9c-0.3-0.2-0.6-0.4-1-0.6c-1.1-0.5-2.2-0.9-3.4-1.4c-0.1-0.2-0.3-0.5-0.3-0.8c-0.2-1-0.9-1.6-1.7-2
		c-2.2-1-3.8-2.6-5.3-4.3c-0.3-0.4-0.6-0.9-0.8-1.4c-0.4-1.2-0.7-2.4-1-3.6c-0.2-0.9-0.3-1.8-0.4-2.7c-0.1-1.2-0.3-2.4-0.4-3.5
		c-0.1-1-0.3-2-0.5-3c-0.3-1.6-0.9-3.2-1.2-4.8c0-0.2-0.1-0.3-0.2-0.5c-0.4-0.9-0.8-1.8-1.2-2.7c-0.3-0.6-0.5-1.3-0.4-2
		c0-0.9,0.2-1.6,1.2-1.9c0.4-0.1,0.4-0.2,0.5-1c-0.7-0.1-1.2-0.7-2-0.5c-0.4-0.5-0.5-1-0.4-1.6c0.1-1.1-0.1-2-0.8-2.9
		c-0.4-0.4-0.7-1-0.8-1.5c-0.3-0.9-0.9-1.5-1.7-2c-0.4,0.1-0.7,0.3-0.5,0.7c0.2,0.4-0.1,0.6-0.1,1c0.1,0.1,0.2,0.3,0.3,0.5
		c1,1.3,1.4,2.7,1.6,4.3c0.1,0.7,0.2,1.4,0.2,2.1c0.1,0.7,0.1,1.4,0.1,2.1c0,0.4-0.1,0.8-0.2,1.1c-0.8,1.4-1,3.1-1.8,4.4
		c-0.2,0.3-0.2,0.6-0.3,0.9c-0.1,1-0.5,1.9-0.8,2.8c-1.1,2.6-1.6,5.3-1.7,8.2c0,0.5,0,1.1-0.1,1.6c-0.2,1.3-0.3,2.6-0.2,3.9
		c0.1,0.8,0,1.6-0.2,2.3c-0.1,0.3-0.2,0.5-0.4,0.8c-0.6,0.8-0.8,0.8-1.6,0.2c-0.3-0.2-0.6-0.4-0.9-0.6c-0.5-0.2-0.9-0.5-1.1-1
		c-0.5-1.2-1.1-2.3-1.6-3.5c-0.3-0.8-0.3-1.7-0.4-2.5c-0.2-2.1-0.8-4-1.5-6c-0.6-1.8-1.4-3.5-1.7-5.4c-0.1-0.5-0.2-1-0.3-1.5
		c-0.2-1.3-0.5-2.5-0.7-3.8c-0.2-1.1-0.1-2.2,0.2-3.3c0.5-1.5,0.5-2.9,0.1-4.4c-0.1-0.5-0.1-1,0-1.5c0.1-0.6,0.2-1.1,0.2-1.7
		c0.1-1,0.5-2,0.9-2.9c0.2-0.5,0.1-0.9-0.2-1c-0.3-0.1-0.5,0.1-0.8,0.5c-0.5,0.8-0.9,1.7-0.9,2.7c0,0.2,0,0.4-0.1,0.6
		c-0.4,1.5-0.5,3-0.6,4.5c0,0.4-0.1,0.9-0.2,1.3c0,0.1-0.2,0.3-0.3,0.4c-0.5-0.1-0.7-0.6-0.9-0.9c-0.5-0.7-0.8-1.5-1.2-2.3
		c-0.1-0.2-0.1-0.4-0.1-0.6c0.1-0.6,0-1-0.2-1.6c-0.1-0.3-0.2-0.7-0.2-1.1c0-0.1,0-0.2,0-0.4c0-0.4-0.4-0.7-0.2-1.2
		c0.2-1,0.4-2.1,0.6-3.1c0.4-1.7,1-3.3,1.4-5c0.3-1.2,0.4-2.5,0.4-3.8c0-2.3,0-4.7,0.1-7c0-0.9,0.1-1.9,0.1-2.8
		c0-1.2,0.4-2.4,0.7-3.6c0.5-2,1.2-3.8,2.1-5.6c0.6-1.1,1.1-2.3,1.6-3.5c0.1-0.2,0.2-0.5,0.3-0.7c0.7-1.2,1.3-2.6,2.2-3.7
		c0.2-0.2,0.3-0.4,0.4-0.6c0.3-0.7,0.8-1.2,1.4-1.7c0.7-0.6,1.4-1.3,2-2c0.2-0.2,0.5-0.4,0.8-0.6c0.9-0.6,1.7-1.3,2.4-2.1
		c1.2-1.3,2-2.8,2.5-4.5c0.4-1.3,0.8-2.6,1.4-3.8c0.5-1,1.1-2,1.7-3c0.3-0.5,0.6-1,0.9-1.5c0.4-0.6,0.8-1.2,1.2-1.7
		c0.5-0.7,1.1-1.3,1.7-2c0.6-0.6,1.3-1.1,2.1-1.5c0.5,0.3,0.7,0.8,0.8,1.4c0.1,1.2,0.3,2.4-0.2,3.5c-0.2,0.6-0.3,1.2-0.4,1.8
		c0,0.2,0.1,0.4,0.3,0.5c0.2,0.2,0.5,0,0.7-0.1c0.1-0.1,0.1-0.2,0.2-0.3c0.8-1.7,1.1-3.5,0.9-5.4c-0.1-0.5-0.2-1-0.4-1.4
		c-0.3-1.1-0.7-2.2-1-3.3c-0.1-0.3-0.1-0.6-0.1-0.9c0-1.9,0.5-3.7,1.6-5.2c0.3-0.4,0.6-0.8,0.9-1.1c0.3-0.4,0.6-0.9,0.9-1.3
		c0.6-0.9,1.3-1.8,1.9-2.7c1.1-1.6,1.9-3.3,2.6-5.2c0.6-1.8,0.9-3.7,1.1-5.5c0.1-1.5,0.6-2.9,1.5-4.1c0.3-0.4,0.5-0.9,0.7-1.3
		c0.9-1.7,1.7-3.4,2.6-5.1c0.7-1.4,1.4-2.7,2-4.1c0.6-1.6,1.2-3.1,1.4-4.8c0.2-1.3,0.3-2.7,0.5-4c0.2-1,0.5-2,0.7-3
		c0.2-0.8,0.5-1.6,0.7-2.5c0.2-1.2,0.8-2.1,1.4-3.2c0.3-0.5,0.6-1,0.8-1.5c0.3-0.7,0.7-1.3,1.1-1.9c0.7-0.9,1.1-2,1.3-3.2
		c0.1-0.6,0.1-1.1,0.5-1.6c0.4-0.5,0.1-0.8-0.7-1.2c-0.5,0.7-1,1.5-1.2,2.3c-0.3,0.8-0.5,1.7-0.9,2.7c-0.3-0.4-0.4-0.7-0.4-1
		c-0.1-1.4-0.1-2.9,0.5-4.3c0.7-1.7,1.4-3.5,2.1-5.3c0.6,0.4,0.6,0.5,0.8,0.8c0.8,1.8,1.6,3.7,2.4,5.5c0.2,0.6,0.5,1.1,0.6,1.7
		c0.2,0.5,0.3,1.1,0.2,1.7c-0.1,0.6,0,1.2,0,1.8c0.4,2.7,0.2,5.4,0,8.1c-0.1,1-0.1,2.1-0.1,3.1c0,0.7,0.1,1.3,0.2,2
		c0.3,1.4,0.6,2.7,0.9,4.1c0.2,1,0.3,2,0,2.9c0,0,0,0.1,0,0.1c-0.2,1.9-1,3.6-2.3,5c-0.3,0.3-0.5,0.7-0.7,1
		c-0.5,0.8-1.1,1.6-1.6,2.5c-0.5,0.7-0.9,1.5-0.9,2.4c0,0.4-0.1,0.7-0.1,1.1c0,0.7-0.2,1.4-0.7,1.9c-0.2,0.2-0.3,0.4-0.4,0.6
		c-0.2,0.4-0.3,0.8-0.7,1.2c-0.2,0.2-0.2,0.4,0,0.6c0.2,0.2,0.4,0.1,0.6,0c0.3-0.3,0.6-0.5,0.9-0.8c0.4-0.4,0.8-0.9,1.2-1.4
		c0.1-0.6,0.1-1.3,0.6-1.9c0.4-0.5,0.6-1.3,0.9-1.8c0.4,0,0.4,0.2,0.5,0.4c0.1,0.3,0.2,0.5,0.3,0.8c0.6,1.1,0.4,2.1,0.1,3.2
		c-0.3,1.3-1,2.5-1.4,3.8c-0.9,2.5-1.6,5.1-1.3,7.8c0.1,0.6,0.1,1.2,0.2,1.8c0.1,1.2,0,2.4-0.5,3.5c-0.4,1.1-0.8,2.2-1.3,3.2
		c-0.4,0.8-0.9,1.6-1.5,2.2c-0.4-0.3-0.5-0.8-0.7-1.2c-0.2-0.4-0.3-0.8-0.5-1.3c-0.1-0.4-0.2-0.8-0.2-1.2c0-0.7,0-1.5-0.4-2.1
		c-0.2-0.3-0.1-0.6-0.2-0.9c0-0.1-0.3-0.2-0.4-0.1c-0.1,0.1-0.2,0.2-0.3,0.4c-0.1,0.1-0.1,0.3-0.1,0.5c0.1,1.6,0.1,3.2,0.2,4.8
		c0,0.4,0,0.9,0,1.4c0.1,1.1,0.3,2.1,0.7,3.1c1,2.2,1.3,4.4,1.2,6.7c0,0.7,0,1.3-0.1,2c-0.1,1.5-0.5,3-1.1,4.4
		c-0.2,0.3-0.2,0.7-0.4,1c0,0.1,0,0.3-0.1,0.4c-0.6,1.3-0.7,2.8-1.1,4.1c-0.5,1.5-1,3-1.5,4.6c-0.7,2.6-1.3,5.2-1,7.9
		c0.1,1.1,0.1,2.3,0.1,3.5c0,0.8,0.1,1.6,0.1,2.3c0,0.9-0.2,1.9-0.3,2.8c-0.1,1-0.1,2-0.1,3c0,0.7,0,1.5,0.1,2.2
		c0.1,1,0,2.1-0.2,3.1c-0.2,0.8-0.1,1.6-0.1,2.3c0,1,0.1,2,0.3,2.9c0.3,1,0.2,2-0.1,2.9c-0.6,1.6-1.2,3.2-1.9,4.8
		c-0.7,1.6-1.1,3.2-1.2,4.9c-0.1,1.1,0.1,2.2,0.4,3.3c0,0.1,0.1,0.2,0.1,0.4c0.1,1.5,1,2.7,1.9,3.8c0.2,0.2,0.4,0.3,0.6,0.2
		c0.3-0.1,0.4-0.4,0.4-0.7c-0.1-0.9-0.3-1.7-0.4-2.5c-0.2-1.8-0.3-3.6-0.4-5.4c0-0.1,0.1-0.2,0.1-0.5c0.7,0.2,1.2,0.6,1.4,1.2
		c0.2,0.7,0.5,1.4,0.6,2.1c0.4,2.1,0.9,4.2,1.8,6.1c0.5,1.1,0.7,2.4,0.9,3.6c0.1,1.1,0.5,2.2,1.1,3.1c0.2,0.3,0.3,0.7,0.4,1
		c0.1,0.2,0.2,0.3,0.3,0.5c0.6,1.2,1.6,2.1,2.7,2.8c0.6,0.4,0.9,0.9,1.2,1.6c0.5,1.1,1,2.1,1.4,3.1c-0.3,0.9-0.4,1-1.3,1
		c-1.2,0-2.3,0.1-3.4,0.5c-0.7,0.2-1.4,0.2-2-0.2c-1.1-0.7-2.3-0.9-3.6-0.7c-0.9-0.6-1.9-1.2-2.9-1.5c-0.3-0.1-0.6-0.1-0.8,0.1
		c-0.3,0.2-0.3,0.6,0,0.8c0.1,0.1,0.3,0.2,0.4,0.2c0.8,0.2,1.4,0.6,2,1.1c1.1,0.9,2.3,1.5,3.6,1.8c0.5,0.1,1,0.4,1.5,0.6
		c0.7,0.4,1.4,0.7,2.1,1c1.5,0.5,2.8,1.3,4.1,2.2c2.1,1.5,4.2,3,6.5,4.3c0.6,0.3,1,0.7,1.4,1.2c0.2,0.3,0.4,0.6,0.3,1.1
		c-0.2,0.1-0.5,0.3-0.7,0.3c-0.7,0.1-1.4,0.2-2.1,0.2c-0.2,0-0.5-0.1-0.7-0.2c-0.2,0-0.3-0.1-0.5-0.2c-0.2-0.1-0.5,0.1-0.6,0.3
		c-0.1,0.2,0,0.4,0.2,0.5c0.6,0.4,1.2,0.7,1.8,1c0.3,0.1,0.6,0.2,0.8,0.2c0.8,0.3,1.6,0.2,2.4-0.2c1-0.5,2.1-0.6,3.3-0.5
		c0.5,0.1,1,0.2,1.4,0.5c0.5,0.4,1,0.8,1.5,1.3c0.8,0.7,1.6,1.2,2.7,1.4c0.7,0.1,1.5,0.3,2.2,0.5c1.1,0.3,2.2,0.6,3.3,1.1
		c1,0.4,1.9,1.2,2.6,2.1c0.5,0.6,0.6,1.3,0.8,2.1c0,0.2,0.1,0.4,0.4,0.4c0.2,0,0.4-0.1,0.5-0.2c0.3-0.2,0.4-0.5,0.4-0.9
		c0-0.4,0.1-0.7,0.5-1c0.6,0.2,1.3,0.4,2,0.5c0.8,0.2,1.6,0.4,2.4,0.3c0.3,0,0.7,0.1,0.9,0.2C210.2,257,210.4,257.6,210,258.2z"/>
	<path class="st2" d="M240.7,204.7c-0.3-0.5-0.5-1.1-0.1-1.6c0.1-1.2,0.6-2.4,0.7-3.6c0-0.7,0-1.3-0.2-1.9c-0.3-0.7-0.6-1.5-0.9-2.2
		c-0.8-1.9-1.3-4-1.7-6c-0.3-1.8-0.6-3.6-1.2-5.3c-0.3-0.8-0.7-1.6-1.2-2.4c-0.4-0.7-0.5-1.5-0.3-2.1c0.2-0.7,0.2-1.5,0.2-2.2
		c0.1-0.7-0.2-1.4-0.5-2c-0.9-1.7-2-3.2-3.4-4.5c-0.4-0.4-0.9-0.7-1.3-0.8c-0.4-0.1-0.9-0.4-1.3-0.1c-0.4,0.2-0.8,0.2-1.2,0.3
		c-0.6,0.1-0.7,0.3-0.5,0.8c0.4,1,0.6,2,0.7,3c0.1,1.3,0.1,2.6-0.4,3.9c-0.7,1.9-1.6,3.6-2.8,5.2c-0.2,0.3-0.4,0.6-0.6,1
		c-0.4,0.7-0.5,1.6-0.7,2.4c-0.1,0.5-0.2,1.1-0.5,1.5c-0.8,1-1.6,1.9-2.5,2.9c-0.4,0.4-0.8,0.7-1.2,1.1c-0.5,0.5-1,0.9-1.6,1
		c-0.7,0.2-1.4,0.4-2.2,0.3c-0.9-0.1-1.9-0.2-2.8-0.3c-0.7,0-1.2-0.4-1.7-0.9c-0.4-0.5-0.4-0.8,0.1-1.2c0.4-0.4,0.9-0.7,1.5-0.9
		c1.2-0.4,2.2-1,3.1-1.9c0.8-0.7,1.3-1.6,1.5-2.6c0.1-0.7,0.4-1.4,0.5-2c0.5-2,1.6-3.9,2.3-5.8c0.5-1.3,1.1-2.7,1.1-4.2
		c0-0.2,0-0.4,0.1-0.6c0.1-0.8,0.1-1.6,0-2.3c-0.2-1.3-0.2-2.5-0.4-3.8c-0.1-1.2-0.1-2.4-0.5-3.5c-0.4-1.4-0.7-2.8-1.1-4.2
		c-0.4-1.4-0.7-2.9-1.1-4.3c-0.7-2-1.4-3.9-2.2-5.9c-0.6-1.5-1.2-3.1-1.9-4.6c-0.5-1.2-1-2.5-2.1-3.4c-0.6-0.5-1.1-1-1.6-1.4
		c0-0.1,0-0.2,0-0.3c-0.1-0.9-0.2-1.7-0.4-2.6c-0.2-0.6-0.6-1.1-1-1.7c-0.5-0.7-0.7-1.5-0.5-2.4c0.1-1,0.1-2-0.1-2.9
		c-0.1-1.1-0.1-2.2-0.7-3.2c-0.3-0.6-0.7-1-1-1.5c-0.7-1-1.4-2-2.5-2.5c-0.4-0.2-0.7-0.5-1-0.7c-0.5-0.3-1-0.6-1.5-0.9
		c-0.3-0.2-0.5-0.4-0.7-0.7c-0.1-0.2-0.2-0.5-0.3-0.7c-0.4-0.8-0.7-1.7-1.2-2.4c-1.3-1.7-2.4-3.6-3.5-5.5c-1.3-2.3-2.3-4.6-3.6-6.9
		c-0.1-0.2-0.2-0.5-0.3-0.7c-0.3-0.6-0.5-1.2-0.8-1.8c-0.2-0.4-0.4-0.8-0.6-1.2c-0.6-1.4-1.2-2.7-1.8-4.1c-0.5-1.1-1-2.1-1.4-3.1
		c-0.3-0.6-0.6-1.2-1-1.7c-0.2-0.3-0.4-0.5-0.5-0.8c-0.1-0.7-0.6-1.2-0.9-1.7c-0.1-0.2-0.4-0.3-0.6-0.3c-0.3,0.1-0.4,0.3-0.3,0.6
		c0.1,0.5,0.1,1,0.2,1.5c0.1,0.7,0.1,1.3,0.2,2c0,0.2,0.1,0.4,0,0.6c-0.1,0.9-0.2,1.7-0.3,2.6c-0.3,1.8-0.5,3.7-0.5,5.5
		c0,1.5,0.2,3,0.3,4.6c0.2,1.6,0.4,3.1-0.1,4.6c-0.2,0.9-0.6,1.7-0.7,2.6c-0.1,0.9-0.5,1.6-0.9,2.4c-0.7,1.4-1,3-1.1,4.5
		c0,0.2,0.1,0.5,0.2,0.7c0.2,0.4,0.6,0.7,1,0.9c0.3,0.2,0.5,0.6,0.3,1c-0.1,0.2-0.1,0.3-0.1,0.5c-0.6,1.6-1,3.1-1.1,4.8
		c-0.1,0.9-0.1,1.8-0.1,2.7c0,1.5-0.3,2.9-0.7,4.2c-0.4,1.2-0.4,2.4-1,3.6c-0.1,1.5-0.7,2.8-1,4.2c-0.4,1.4-0.7,2.8-0.9,4.2
		c-0.1,0.7-0.2,1.5-0.3,2.2c-0.2,1.3-0.5,2.6-0.9,3.8c-0.3,0.9-0.7,1.8-1.1,2.6c-0.8,1.7-1.1,3.6-1.1,5.4c-0.1,2.8,0.1,5.5,1.3,8.1
		c0.2,0.4,0.1,0.7,0,1.1c-0.4,0.7-0.5,1.5-0.6,2.3c0,0.2-0.1,0.5-0.1,0.7c-0.1,1.3-0.3,2.6-0.4,3.9c-0.1,1.4-0.1,2.8-0.2,4.2
		c0,1.1-0.3,2.2-0.5,3.3c-0.3,1.8-0.3,3.7-0.6,5.5c0,0.2,0,0.3,0,0.5c0,0.5,0,1,0,1.5c0.1,1.8-0.1,3.7,0.2,5.5
		c0.1,0.5,0.1,1.1,0,1.6c-0.1,1.3-0.2,2.5-0.3,3.8c-0.1,0.7-0.1,1.5,0.2,2.2c0.1,0.2,0,0.5,0.1,0.7c0.1,1.6,0.6,3.1,1.3,4.5
		c0.4,0.8,1,1.6,1.7,2.3c0.2,0.2,0.3,0.4,0.4,0.6c0.6,1,0.5,2.2,0.4,3.3c-0.1,0.5-0.1,1.1,0,1.6c0.1,0.6,0.2,1.2,0.3,1.8
		c0.1,0.7,0.3,1.4,0.6,2c0.8,1.9,1.9,3.7,3.2,5.4c0.4,0.6,0.9,1.2,1.2,1.9c0.4,0.8,1,1.4,1.7,1.9c0.4,0.4,0.8,0.8,1.2,1.2
		c0.7,0.8,1.3,1.6,2,2.3c0.7,0.6,1.2,1.4,1.5,2.2c0.1,0.3,0.2,0.5,0.4,0.8c0.9,1.3,2,2.4,3.2,3.4c0.4,0.4,0.9,0.7,1.4,1
		c0.8,0.5,1.6,0.9,2.5,1.4c0.8,0.5,1.6,1,2.5,1.3c1.3,0.5,2.6,0.9,4,1.2c1.2,0.3,2.3,0.1,3.2-0.8c0.2-0.2,0.4-0.3,0.7-0.3
		c0.2,0.4,0.4,0.7,0.9,0.8c1.4,0.5,2.7,1.2,4.1,1.6c0.2,0.1,0.5,0.2,0.7,0.3c0.5,0.2,0.9,0.4,1.4,0.5c2.2,0.3,4.4,0.4,6.4-0.6
		c0.2-0.1,0.4-0.1,0.6-0.2c1-0.6,2-0.8,3.2-1c1.2-0.2,2.4-0.7,3.3-1.6c0.4-0.4,0.8-0.7,1.2-1.1c0.7-0.7,1.4-1.3,1.9-2.1
		c0.6-0.9,1.3-1.8,1.9-2.7c0.7-1.1,1.8-1.8,2.5-3c0.1-0.2,0.4-0.3,0.6-0.5c0.2-0.1,0.3-0.3,0.4-0.4c0.4-0.9,0.9-1.8,1.3-2.7
		c0.4-1.1,0.9-2.1,1.2-3.2c0.4-1.3,0.7-2.6,0.5-4c-0.1-1.1-0.6-1.9-1.7-2.3c-1.3-0.5-2.5-0.6-3.6,0.2c-0.1,0.1-0.2,0.1-0.3,0.2
		c-1.3,0.7-2.7,1.1-4.2,0.8c-1.6-0.3-3.2-0.4-4.8-0.4c-1.3,0-2.4,0.4-3.3,1.4c-0.2,0.2-0.4,0.3-0.5,0.4c-1.8-0.8-3.5-1.5-5.3-2.2
		c-1.1-0.5-2.3-0.9-3.4-1.5c-0.2-0.1-0.4-0.2-0.6-0.3c-1.4-0.6-2.6-1.5-3.7-2.4c-0.6-0.5-1.2-1-1.7-1.6c-1.4-1.8-2.7-3.5-4.2-5.2
		c-0.4-0.5-0.8-1.1-0.5-1.9c1.5,0.2,2.7,0.8,3.7,1.7c1.1,1,2.3,1.9,3.4,2.8c1,0.7,2,1.5,3.4,1.3c0.9-0.1,1.5,0.2,2,0.9
		c0.1,0.1,0.2,0.2,0.3,0.2c1.3,1.2,2.8,2,4.6,2.3c1.6,0.3,3.2,0.6,4.7,0.8c1.2,0.2,2.5,0.2,3.7,0.3c0.5,0,1,0,1.5,0
		c0.5,0,1.1,0.1,1.6,0c1.3-0.1,2.6-0.4,3.6-1.3c0.6-0.6,1.3-1.2,1.9-1.7c0.4-0.3,0.8-0.7,1.2-1.1c0.2-0.3,0.5-0.6,0.8-0.8
		c0.9-0.7,1.4-1.7,2-2.6c0.1-0.2,0.2-0.4,0.2-0.6c0.1-0.4,0.3-0.8,0.4-1.2c0.4-1.3,0.6-2.6,0.6-4c0-0.1,0-0.2,0-0.4
		C241.3,206.3,241.1,205.5,240.7,204.7z M238.8,211.4c-0.1,0.2-0.3,0.5-0.5,0.7c-0.5,0.4-0.9,0.9-1.2,1.4c-0.2,0.3-0.4,0.5-0.6,0.8
		c-0.9,1.3-2.1,2-3.6,2.4c-1.4,0.3-2.8,0.8-4.3,1.3c-1.8,0.5-3.6,0.6-5.5,0c-1.2-0.4-2.4-0.6-3.6-0.9c-1-0.2-2.1-0.5-3-1.2
		c-1.3-0.9-2.5-2-3.1-3.6c-0.6-1.6-1.5-2.9-2.5-4.2c0-0.1-0.1-0.1-0.1-0.2c-0.2-0.2-0.5-0.4-0.8-0.3c-0.2,0.1-0.3,0.3-0.3,0.7
		c0,0.2,0.1,0.5,0.1,0.8c0.2,0.1,0.4,0.3,0.7,0.5c0.2,1.2,0.6,2.3,0.7,3.6c-1,0.1-1.7-0.2-2.5-0.7c-1.6-0.9-3-1.9-4.4-3.2
		c-1.2-1.2-2.5-2.2-4-3.1c-0.7-0.4-1.3-0.9-2-1.3c-0.1-0.1-0.2-0.1-0.3-0.2c-0.6-0.9-1.6-1.4-2.5-2c-0.7-0.5-1.7-0.6-2.6-0.4
		c0,0.4,0.1,0.7,0.1,1c0.1,0.3,0.2,0.4,0.5,0.5c0.3,0.1,0.6,0.1,0.8,0.2c1.2,0.3,1.9,1.1,2.3,2.2c0.2,0.6,0.4,1.2,0.7,1.7
		c0.3,0.5,0.6,1,1,1.4c0.9,1,1.5,2.1,1.9,3.4c0.2,0.6,0.6,1.2,0.8,1.8c0.2,0.4,0.4,0.8,0.5,1.2c0.5,1.2,0.9,2.4,1.6,3.5
		c1.2,2,3,3.3,5.1,4c1.6,0.5,3.2,0.9,4.7,1.3c0.6,0.2,1.2,0.4,1.7,0.7c1.2,0.5,2.5,1.1,3.6,1.9c1.4,1,3.1,1.6,4.7,2.2
		c0.8,0.3,1.6,0.6,2.5,0.8c0.8,0.2,1.7,0.5,2.3,1.1c0.1,0.1,0.2,0.2,0.3,0.2c0.6,0.3,0.8,0.3,1.3-0.4c-0.2-0.8-0.9-1.4-1.5-1.8
		c-0.6-0.4-1.2-0.6-1.9-1c-0.3-0.2-0.7-0.3-1-0.5c0.9-0.9,1.8-1.4,3-1.2c0.6,0.1,1.1,0,1.7,0.1c0.6,0,1.2-0.1,1.8-0.4
		c0.5-0.3,0.9-0.4,1.5-0.3c0.4,0.1,1-0.1,1.4-0.3c0.7-0.3,1.3-0.3,1.9,0.1c0.6,0.6,0.5,1.3,0.4,2c-0.3,1.5-0.7,3-1,4.4
		c-0.1,0.5-0.3,1-0.6,1.5c-0.8,1.2-1.7,2.3-2.6,3.5c-0.1,0.2-0.3,0.4-0.5,0.5c-0.6,0.4-1.1,0.9-1.5,1.4c-0.6,0.7-1.3,1.5-2,2.2
		c-0.3,0.3-0.6,0.6-0.8,0.9c-0.7,0.9-1.6,1.4-2.7,1.4c-0.9,0-1.7,0.2-2.6,0.3c-0.5,0.1-0.9,0.3-1.4,0.5c-1.6,0.6-3.1,1.3-4.8,1.4
		c-1,0.1-2.1,0.1-3.1-0.1c-1-0.2-1.9-0.8-2.8-1.2c-0.1-0.1-0.2-0.2-0.4-0.3c-0.5-0.6-0.4-1,0.4-1.2c0.8-0.2,1.6-0.4,2.4-0.6
		c0.5-0.1,1-0.4,1.3-0.9c0.2-0.4,0.5-0.7,0.8-1.1c0.3-0.5,0.4-1.1,0.9-1.5c0.1-0.1,0.1-0.2,0.1-0.3c0.1-0.3-0.3-0.6-0.5-0.5
		c-0.3,0.1-0.5,0.3-0.7,0.5c-0.7,0.7-1.3,1.4-1.9,2.1c-0.5,0.6-0.9,0.9-1.7,0.8c-0.5,0-1,0.1-1.4,0.3c-0.8,0.3-1.6,0.6-2.4,0.9
		c-0.6,0.3-1.3,0.6-1.9,0.9c-0.6,0.3-1.1,0.6-1.6,0.8c-1.3-0.5-2.6-0.9-3.9-1.4c-0.1,0-0.2-0.1-0.2-0.1c-1.1,0.1-1.9-0.7-2.7-1.3
		c-0.5-0.3-0.9-0.7-1.4-1c-0.9-0.8-1.9-1.5-2.7-2.3c-1-1-1.8-2.2-2.2-3.5c-0.3-0.9-0.6-1.7-0.9-2.6c-0.5-1.2-1.3-2.2-2.4-2.9
		c-2.3-1.5-4-3.5-5.3-5.9c-0.6-1.1-0.9-2.3-1-3.5c-0.1-1-0.2-2,0-3.1c0-0.2,0-0.4,0-0.6c0.6-1.1,0.2-2.3,0.3-3.5
		c0-0.6,0.1-1.2,0.1-1.8c0.1-0.7,0.2-1.4,0.3-2.1c0.1-0.9,0.1-1.8,0.2-2.7c0.1-0.8-0.1-1.5-0.3-2.2c-0.1-0.3-0.4-0.4-0.7-0.5
		c-0.3,0-0.5,0.1-0.6,0.4c0,0.1,0,0.2,0,0.2c0,0.9,0,1.9,0,2.8c-0.1,1.5-0.3,3.4-1.4,4.9c-0.1-0.3-0.2-0.5-0.4-0.7
		c-0.2-0.2-0.4-0.4-0.5-0.7c-0.1-0.2-0.3-0.3-0.3-0.5c-0.4-1-0.8-1.9-1.1-2.9c-0.1-0.2-0.1-0.3-0.1-0.5c-0.1-1.9-0.5-3.8-0.3-5.8
		c0.1-0.8,0-1.6,0-2.3c0-0.1,0-0.2,0-0.4c0.1-1.9-0.1-3.8-0.2-5.6c-0.1-1,0.2-2,0.3-2.9c0.2-1.4,0.5-2.9,0.5-4.3
		c0.1-1.5,0.2-3,0-4.4c-0.2-1.3,0.1-2.5,0.5-3.7c0.2-0.7,0.6-1.2,1.4-1.4c0.2,0.1,0.5,0.2,0.8,0.5c0.4,0.4,0.6,1,1.2,1.2
		c0.1,0,0.2,0.3,0.2,0.4c0.1,0.3,0.3,0.7,0.3,1.1c0.2,1,0.6,1.8,1.2,2.8c0.1-0.4,0.1-0.7,0.2-1c0.1-0.3,0.1-0.6,0.1-1
		c-0.1-0.4-0.1-0.7-0.2-1.1c-0.1-0.3-0.2-0.6-0.3-0.9c-0.1-0.3-0.2-0.6-0.4-0.9c-0.6-1.2-1.1-2.4-1.7-3.6c-0.4-0.7-0.8-1.5-1.1-2.2
		c-0.2-0.3-0.4-0.7-0.5-1c-0.5-1.6-1-3.2-1.3-4.8c-0.3-1.5-0.3-3-0.2-4.5c0.3-2.1,1-4,1.6-5.9c0.3-1.1,0.6-2.1,1-3.2
		c0.5-1.4,1-2.7,1.5-4c0.3-0.7,0.6-1.4,0.7-2.2c0.1-0.8,0.4-1.6,0.5-2.4c0.1-0.7,0.2-1.5,0.2-2.2c0-0.8,0.1-1.6,0.3-2.4
		c0.5-1.5,0.8-3.1,0.7-4.7c-0.1-1.2,0.3-2.4,0.6-3.5c0.2-1,0.4-1.9,0.4-2.9c0-0.7,0.3-1.4,0.5-2.2c0.1-0.3,0.3-0.5,0.5-0.6
		c0.3-0.2,0.6-0.4,0.9-0.6c1.1,0.8,1.8,1.9,2.3,3.2c0.2,0.4,0.3,0.8,0.4,1.2c0.1,0.1,0.2,0.2,0.4,0.3c0.2,0.1,0.4-0.1,0.5-0.3
		c0.1-0.1,0.1-0.2,0.1-0.4c0-0.6,0-1.2,0-1.7c0-1.2-0.6-2.1-1.4-2.9c-0.4-0.4-0.8-0.8-1.1-1.3c-0.5-0.7-1-1.3-1.8-1.6
		c-0.4-0.2-0.7-0.5-0.8-0.9c-0.4-0.9-0.5-1.7-0.1-2.6c0.6-1.4,1.1-2.8,1.6-4.3c0.2-0.5,0.3-1,0.3-1.6c0.1-1.4,0.2-2.9-0.2-4.3
		c-0.5-1.6-0.6-3.3-0.6-5c0-1.2-0.1-2.5,0.4-3.7c0.3-0.1,0.4,0,0.5,0.2c0.8,1.3,1.6,2.6,2.2,4c0,0.1,0.1,0.1,0.1,0.2
		c0.2,1.6,1,2.9,1.7,4.3c0.3,0.7,0.5,1.4,0.9,2c1.3,2.7,2.7,5.3,4.3,7.7c0.1,0.2,0.2,0.4,0.3,0.7c0.2,0.6-0.2,1.3-0.8,1.1
		c-0.7-0.2-1.4-0.1-2.1,0c-0.3,0-0.6,0-0.9-0.1c-0.4-0.1-0.9-0.2-1.3-0.4c-0.1,0.1-0.3,0.2-0.3,0.3c-0.4,0.8-0.2,1,0.6,1.1
		c0.9,0.1,1.8,0.3,2.7,0.1c0.7-0.1,1.4,0.2,1.8,0.8c0.4,0.6,0.9,0.9,1.5,1.2c0.6,0.2,1,0.6,1.3,1c0.6,0.7,1.3,1.2,2.1,1.6
		c1.2,0.6,2.2,1.4,3.1,2.4c0.5,0.5,1,1,1.4,1.6c0.4,0.7,0.7,1.5,0.7,2.3c0.1,0.7,0.1,1.4,0.2,2.1c0.1,1,0.4,2,0.8,3
		c0.4,0.9,0.6,1.9,0.7,3c0.2,2.1,0.4,4.2,1.5,6.1c0.5,0.9,0.6,1.9,0.7,2.9c0,0.5,0,1.1,0,1.6c0,1.2,0,2.4,0.1,3.6
		c0,0.2,0,0.4,0.1,0.6c0.1,0.1,0.3,0.2,0.4,0.2c0.3-0.1,0.6-0.3,0.7-0.6c0-0.2,0.1-0.3,0.1-0.5c0-1.8,0.2-3.5-0.1-5.3
		c0-0.1,0-0.2,0-0.4c0-0.3-0.1-0.6,0.3-0.8c0.4-0.2,0.5,0.2,0.7,0.5c1.5,1.8,2.4,3.9,3.2,6.1c0.5,1.2,0.8,2.5,1.1,3.8
		c0.4,1.5,0.8,3.1,1.2,4.7c0.4,1.4,0.7,2.9,0.8,4.4c0.2,1.9,0.4,3.8,0.4,5.7c0,0.7-0.1,1.4-0.3,2.1c-0.1,0.3-0.3,0.7-0.3,1.1
		c-0.2,1-0.6,1.9-1.2,2.7c-0.9,1.2-1.2,2.5-1.5,3.9c-0.1,0.7-0.3,1.5-0.4,2.2c-0.2,1.2-0.6,2.3-1.6,3.1c-0.7,0.6-1.3,1-2.2,1.1
		c-0.5,0.1-1,0.3-1.5,0.6c-0.6,0.3-1.2,0.7-1.8,1.1c-0.7,0.5-1.6,0.7-2.5,0.7c-0.9,0-1.7,0-2.6-0.2c-0.3-0.1-0.6-0.1-0.8,0.1
		c-0.4,0.3-0.8,0.2-1.2,0c-1-0.5-1.8-1.3-2.3-2.3c-0.5-1-1.1-1.9-2-2.5c-0.5-0.3-0.4-0.8-0.7-1.2c-0.5,0.1-0.7,0.5-1,0.9
		c0.1,0.2,0.2,0.4,0.3,0.6c0.1,0.2,0.3,0.4,0.5,0.5c0.8,0.6,1.2,1.5,1.4,2.5c-0.2,0.2-0.3,0-0.4-0.1c-0.3-0.2-0.5-0.4-0.8-0.5
		c-0.2-0.1-0.4,0-0.5,0.2c-0.1,0.2-0.1,0.5,0,0.6c0.6,0.5,1.1,1.1,1.8,1.5c1,0.5,2,1.1,3,1.7c0.8,0.5,1.8,0.6,2.7,0.8
		c0.2,0,0.3,0,0.5,0c1.1-0.1,2,0.2,2.9,0.9c0.7,0.5,1.5,0.7,2.3,1c0.3,0.1,0.6,0.2,0.8,0.4c0.4,0.6,1.1,0.8,1.8,1
		c0.5,0.2,1.1,0.5,1.6,0.7c0.7,0.3,1.3,0.4,2,0.2c1-0.2,2-0.3,2.9-0.4c1-0.1,1.9-0.5,2.7-1.2c0.7-0.7,1.7-1.2,2.4-2
		c0.2-0.3,0.5-0.5,0.8-0.8c0.1-0.1,0.1-0.2,0.2-0.3c0.9-0.8,1.3-2,1.8-3c0.5-1,0.9-1.9,1.4-2.9c0.3-0.5,0.7-1,1-1.5
		c0.6-1,1.1-2,1.7-3c0.2-0.3,0.3-0.6,0.5-0.9c0.9-1.1,1.1-2.4,1-3.8c-0.1-0.6-0.1-1.3-0.1-2c2,1.1,3.2,3.6,2.8,5
		c-0.3-0.2-0.6-0.3-0.9-0.5c-0.4-0.2-0.8,0.1-0.7,0.5c0,0.3,0.1,0.6,0.3,0.8c0.2,0.3,0.4,0.6,0.6,0.9c0.7,0.9,0.9,2,1.2,3.1
		c0,0.2,0,0.3,0,0.5c-0.1,0.3,0,0.5,0.1,0.7c0.2,0.4,0.4,0.9,0.5,1.4c0.5,2.3,1.1,4.6,1.9,6.8c0.4,1.1,0.6,2.2,0.8,3.3
		c0.2,1,0.5,1.9,0.8,2.9c0.1,0.4,0.1,0.8,0,1.2c-0.4,1.2-1,2.3-1.6,3.5c-0.2,0.4-0.5,0.7-0.8,1.1c-0.2,0.3-0.5,0.6-0.7,1
		c-0.3,0.6-0.8,1-1.3,1.5c-0.5,0.4-0.9,0.9-1.3,1.4c-0.1,0.1,0,0.4,0,0.6c0.6,0,1.1,0,1.6,0c0.2,0,0.4-0.1,0.6-0.2
		c0.2-0.1,0.3-0.3,0.5-0.4c0.4-0.2,0.9-0.4,1.3-0.6c0.3-0.3,0.6-0.7,0.9-1c0.7,0.4,1.2,1,1.3,1.8
		C239.3,209.7,239.3,210.6,238.8,211.4z"/>
</g>
</svg>
