<?xml version="1.0" encoding="utf-8"?>
<!-- Generator: Adobe Illustrator 24.0.3, SVG Export Plug-In . SVG Version: 6.00 Build 0)  -->
<svg version="1.1" xmlns="http://www.w3.org/2000/svg" xmlns:xlink="http://www.w3.org/1999/xlink" x="0px" y="0px"
	 viewBox="0 0 612 792" style="enable-background:new 0 0 612 792;" xml:space="preserve">
<style type="text/css">
	.st0{font-family:'Impact';}
	.st1{font-size:12px;}
	.st2{fill:#FEE000;}
	.st3{fill:#6CBE45;}
	.st4{fill:#DE1C8E;}
	.st5{fill:#263C93;}
	.st6{fill:#FDBE2A;}
	.st7{fill:#7CD2F2;}
	.st8{font-family:'MyriadPro-Regular';}
	.st9{font-size:11px;}
	.st10{fill:#FFFFFF;}
</style>
<g id="crossbar">
	<path d="M94.12,207.27l0.8,0.16c0,0,4.64,0.95,8.28,0.05c0,0,7.89-0.07,10.27,0.21c1.87,0.22,5.11-1.06,6.39-1.62
		c0.38-0.16,0.78-0.23,1.19-0.2l52.5,4.19l9.71,3.59c1.72,0.63,3.17,2.82,3.6,5.45l1.51,9.07c0.01,0.05,0.01,0.09,0.01,0.14
		l1.54,15.09c0.13,1.29,0,2.53-0.38,3.56l-0.39,1.08c-0.6,1.65-1.77,2.58-3.1,2.47l-1.84-0.15l-15.07-1.2l-4.34-0.62l-15.19-2.16
		l-18.24-1.46l-14.38-2.36l-14.67-0.8l-3.93-0.21l-1.57-0.09c-2.2-0.12-4.22-2.96-4.52-6.35l-0.55-6.1l-1.15-12.84l-0.27-3.02
		C90,209.53,91.76,206.8,94.12,207.27z"/>
</g>
<g id="left_brick">
	<path d="M190.82,114.77c-0.36-0.99-0.85-1.89-1.46-2.67c-2.08-2.64-7.13-9.34-8.64-13.88c-1.7-5.13-8.1-20.28-9.49-23.55
		c-0.18-0.42-0.38-0.81-0.61-1.2c-2.49-4.21-4.23-8.54-5.97-13.44c-0.18-0.51-0.36-1.02-0.62-1.44c-0.31-0.5-0.7-0.79-1.08-1.05
		c-2.14-1.5-4.83-6.06-6.68-3.32c-0.85,1.25-1.83,1.59-2.88,1.37c-1.9-0.37-4.02-2.53-6-4.13c-3.25-2.63-8.81,3.66-11.35,5.31
		c-2.56,1.66-5.12,3.32-7.68,4.97l-1.88,1.21l-6.47,4.18c-4.63,3-6.79,9.66-4.81,14.88l1.41,3.73l6.59,17.39l10.05,26.55
		c0.08,0.22,0.16,0.45,0.23,0.69l10.47,34.64c0.05,0.17,0.11,0.36,0.18,0.53L159.81,209l15.11,47.63l13.03,36.11l1.58,4.4
		c1.15,3.19,3.64,5.29,6.63,5.6l1.96,0.2c1.88,0.19,3.83-0.33,5.57-1.5l20.15-13.55c0.28-0.18,0.55-0.39,0.81-0.6l11.43-9.4
		c0.27-0.23,0.65-0.45,1.09-0.67c5.06-2.49,3.94-9.42,3.24-13.51l0.82-11.17c-0.03-0.18-0.71-1.85-1.69-4.21
		c-2.65-6.38-7.52-17.78-7.68-18.23L190.82,114.77z"/>
	<g>
		<g>
			<path d="M67.9,362.12l3.94,26.49H64.8l-0.37-4.76h-2.46l-0.41,4.76h-7.12l3.51-26.49H67.9z M64.25,379.15
				c-0.35-3-0.7-6.71-1.05-11.12c-0.7,5.07-1.14,8.78-1.32,11.12H64.25z"/>
			<path d="M89.09,373.66H82.2v-4.6c0-1.34-0.07-2.17-0.22-2.51s-0.47-0.5-0.97-0.5c-0.57,0-0.93,0.2-1.08,0.61
				s-0.23,1.28-0.23,2.62v12.3c0,1.29,0.08,2.13,0.23,2.52s0.5,0.59,1.03,0.59c0.51,0,0.85-0.2,1.01-0.59
				c0.16-0.39,0.24-1.32,0.24-2.77v-3.33h6.89v1.03c0,2.74-0.19,4.69-0.58,5.83c-0.39,1.15-1.24,2.15-2.57,3.01
				c-1.33,0.86-2.96,1.29-4.9,1.29c-2.02,0-3.68-0.37-4.99-1.1c-1.31-0.73-2.18-1.74-2.6-3.03c-0.43-1.29-0.64-3.24-0.64-5.83v-7.74
				c0-1.91,0.07-3.34,0.2-4.29s0.52-1.87,1.17-2.76s1.55-1.58,2.7-2.09c1.15-0.51,2.47-0.76,3.97-0.76c2.03,0,3.7,0.39,5.02,1.18
				c1.32,0.78,2.19,1.76,2.6,2.93c0.41,1.17,0.62,2.99,0.62,5.46V373.66z"/>
			<path d="M105.43,362.12v5.3h-4.09v21.19h-6.89v-21.19h-4.07v-5.3H105.43z"/>
			<path d="M113.89,362.12v26.49H107v-26.49H113.89z"/>
			<path d="M133.03,362.12l-3.5,26.49h-10.46l-3.98-26.49h7.26c0.84,7.3,1.45,13.47,1.81,18.52c0.36-5.1,0.73-9.63,1.13-13.59
				l0.48-4.92H133.03z"/>
			<path d="M146.1,362.12l3.94,26.49H143l-0.37-4.76h-2.46l-0.41,4.76h-7.12l3.51-26.49H146.1z M142.45,379.15
				c-0.35-3-0.7-6.71-1.05-11.12c-0.7,5.07-1.14,8.78-1.32,11.12H142.45z"/>
			<path d="M165.08,362.12v5.3h-4.09v21.19h-6.89v-21.19h-4.07v-5.3H165.08z"/>
			<path d="M166.65,362.12h11.48v5.3h-4.6v5.02h4.3v5.04h-4.3v5.82h5.06v5.3h-11.94V362.12z"/>
		</g>
	</g>
	<text transform="matrix(1 0 0 1 54.6196 404.3904)" class="st0 st1">Type- Impact Regular </text>
	<rect x="53.62" y="435.48" class="st2" width="71.62" height="71.62"/>
	<rect x="196.53" y="435.48" class="st3" width="71.62" height="71.62"/>
	<rect x="124.9" y="435.48" class="st4" width="71.62" height="71.62"/>
	<rect x="268.15" y="435.48" class="st5" width="71.62" height="71.62"/>
	<rect x="411.06" y="435.48" class="st6" width="71.62" height="71.62"/>
	<rect x="339.44" y="435.48" class="st7" width="71.62" height="71.62"/>
	<g>
		<g>
			<path d="M312.32,158.54l4.99,33.55h-8.92l-0.47-6.03h-3.12l-0.52,6.03h-9.02l4.45-33.55H312.32z M307.7,180.11
				c-0.44-3.8-0.88-8.5-1.33-14.09c-0.89,6.42-1.45,11.12-1.67,14.09H307.7z"/>
			<path d="M339.17,173.15h-8.72v-5.83c0-1.7-0.09-2.75-0.28-3.17s-0.6-0.63-1.23-0.63c-0.72,0-1.17,0.26-1.37,0.77
				c-0.19,0.51-0.29,1.62-0.29,3.32v15.58c0,1.63,0.1,2.69,0.29,3.19c0.19,0.5,0.63,0.75,1.31,0.75c0.65,0,1.07-0.25,1.27-0.75
				c0.2-0.5,0.3-1.67,0.3-3.51v-4.22h8.72v1.31c0,3.47-0.25,5.94-0.74,7.39c-0.49,1.45-1.58,2.73-3.25,3.82
				c-1.68,1.09-3.75,1.64-6.21,1.64c-2.56,0-4.66-0.46-6.32-1.39c-1.66-0.93-2.76-2.21-3.29-3.84c-0.54-1.64-0.81-4.1-0.81-7.39
				v-9.8c0-2.42,0.08-4.23,0.25-5.44c0.17-1.21,0.66-2.37,1.48-3.49s1.96-2,3.42-2.64c1.46-0.64,3.13-0.96,5.03-0.96
				c2.57,0,4.69,0.5,6.36,1.49c1.67,0.99,2.77,2.23,3.29,3.71c0.52,1.48,0.79,3.79,0.79,6.92V173.15z"/>
			<path d="M359.87,158.54v6.71h-5.18v26.84h-8.72v-26.84h-5.16v-6.71H359.87z"/>
			<path d="M370.58,158.54v33.55h-8.72v-33.55H370.58z"/>
			<path d="M394.83,158.54l-4.44,33.55h-13.25l-5.04-33.55h9.2c1.07,9.24,1.83,17.06,2.29,23.46c0.45-6.47,0.93-12.21,1.44-17.22
				l0.61-6.24H394.83z"/>
			<path d="M411.38,158.54l4.99,33.55h-8.92l-0.47-6.03h-3.12l-0.52,6.03h-9.02l4.45-33.55H411.38z M406.76,180.11
				c-0.44-3.8-0.88-8.5-1.33-14.09c-0.89,6.42-1.45,11.12-1.67,14.09H406.76z"/>
			<path d="M435.43,158.54v6.71h-5.18v26.84h-8.72v-26.84h-5.16v-6.71H435.43z"/>
			<path d="M437.42,158.54h14.55v6.71h-5.82v6.36h5.45V178h-5.45v7.38h6.4v6.71h-15.13V158.54z"/>
			<path d="M480.34,186.37v5.72h-18.42l0-4.79c5.46-8.93,8.7-14.45,9.73-16.57c1.03-2.12,1.54-3.77,1.54-4.96
				c0-0.91-0.16-1.59-0.47-2.04c-0.31-0.45-0.79-0.67-1.42-0.67s-1.11,0.25-1.42,0.75c-0.31,0.5-0.47,1.49-0.47,2.96v3.19h-7.5
				v-1.22c0-1.88,0.1-3.36,0.29-4.45s0.67-2.15,1.43-3.2c0.76-1.05,1.75-1.84,2.96-2.38c1.22-0.54,2.67-0.81,4.37-0.81
				c3.33,0,5.85,0.83,7.55,2.48s2.56,3.74,2.56,6.27c0,1.92-0.48,3.95-1.44,6.09c-0.96,2.14-3.79,6.69-8.49,13.64H480.34z"/>
			<path d="M503.34,169.9v11.19c0,2.54-0.14,4.39-0.41,5.55c-0.28,1.16-0.85,2.25-1.72,3.25c-0.87,1.01-1.92,1.73-3.15,2.18
				c-1.23,0.44-2.6,0.66-4.12,0.66c-2,0-3.67-0.23-4.99-0.69s-2.38-1.18-3.17-2.17c-0.79-0.98-1.35-2.01-1.68-3.1
				c-0.33-1.08-0.5-2.81-0.5-5.17V169.9c0-3.08,0.27-5.39,0.8-6.92c0.53-1.53,1.59-2.76,3.17-3.69s3.5-1.39,5.75-1.39
				c1.84,0,3.48,0.32,4.93,0.96c1.45,0.64,2.54,1.43,3.25,2.35c0.72,0.93,1.21,1.97,1.46,3.13
				C503.21,165.5,503.34,167.35,503.34,169.9z M494.97,167.08c0-1.78-0.09-2.9-0.26-3.35c-0.17-0.45-0.58-0.67-1.21-0.67
				c-0.62,0-1.03,0.24-1.23,0.72c-0.2,0.48-0.3,1.58-0.3,3.31v16.37c0,1.95,0.09,3.12,0.28,3.52s0.59,0.6,1.21,0.6
				c0.62,0,1.03-0.23,1.22-0.7c0.19-0.47,0.29-1.53,0.29-3.17V167.08z"/>
			<path d="M524.4,186.37v5.72h-18.42l0-4.79c5.46-8.93,8.7-14.45,9.73-16.57c1.03-2.12,1.54-3.77,1.54-4.96
				c0-0.91-0.16-1.59-0.47-2.04c-0.31-0.45-0.79-0.67-1.42-0.67s-1.11,0.25-1.42,0.75c-0.31,0.5-0.47,1.49-0.47,2.96v3.19h-7.5
				v-1.22c0-1.88,0.1-3.36,0.29-4.45s0.67-2.15,1.43-3.2c0.76-1.05,1.75-1.84,2.96-2.38c1.22-0.54,2.67-0.81,4.37-0.81
				c3.33,0,5.85,0.83,7.55,2.48s2.56,3.74,2.56,6.27c0,1.92-0.48,3.95-1.44,6.09c-0.96,2.14-3.79,6.69-8.49,13.64H524.4z"/>
			<path d="M547.4,169.9v11.19c0,2.54-0.14,4.39-0.41,5.55c-0.28,1.16-0.85,2.25-1.72,3.25c-0.87,1.01-1.92,1.73-3.15,2.18
				c-1.23,0.44-2.6,0.66-4.12,0.66c-2,0-3.67-0.23-4.99-0.69s-2.38-1.18-3.17-2.17c-0.79-0.98-1.35-2.01-1.68-3.1
				c-0.33-1.08-0.5-2.81-0.5-5.17V169.9c0-3.08,0.27-5.39,0.8-6.92c0.53-1.53,1.59-2.76,3.17-3.69s3.5-1.39,5.75-1.39
				c1.84,0,3.48,0.32,4.93,0.96c1.45,0.64,2.54,1.43,3.25,2.35c0.72,0.93,1.21,1.97,1.46,3.13
				C547.27,165.5,547.4,167.35,547.4,169.9z M539.03,167.08c0-1.78-0.09-2.9-0.26-3.35c-0.17-0.45-0.58-0.67-1.21-0.67
				c-0.62,0-1.03,0.24-1.23,0.72c-0.2,0.48-0.3,1.58-0.3,3.31v16.37c0,1.95,0.09,3.12,0.28,3.52s0.59,0.6,1.21,0.6
				c0.62,0,1.03-0.23,1.22-0.7c0.19-0.47,0.29-1.53,0.29-3.17V167.08z"/>
			<path d="M559.61,158.54l-1.37,25.26h-6.47l-1.37-25.26H559.61z M558.92,185.38v6.71h-7.83v-6.71H558.92z"/>
		</g>
	</g>
	<g>
		<g>
			<path d="M326.34,733l3.64,24.49h-6.51l-0.34-4.4h-2.28l-0.38,4.4h-6.58l3.25-24.49H326.34z M322.96,748.74
				c-0.32-2.77-0.65-6.2-0.97-10.29c-0.65,4.69-1.06,8.12-1.22,10.29H322.96z"/>
			<path d="M345.93,743.66h-6.37v-4.26c0-1.24-0.07-2.01-0.2-2.32c-0.14-0.31-0.44-0.46-0.9-0.46c-0.52,0-0.86,0.19-1,0.56
				c-0.14,0.37-0.21,1.18-0.21,2.42v11.38c0,1.19,0.07,1.97,0.21,2.33c0.14,0.36,0.46,0.54,0.95,0.54c0.47,0,0.78-0.18,0.93-0.55
				s0.22-1.22,0.22-2.56v-3.08h6.37v0.95c0,2.54-0.18,4.33-0.54,5.39c-0.36,1.06-1.15,1.99-2.38,2.79c-1.23,0.8-2.74,1.2-4.53,1.2
				c-1.87,0-3.4-0.34-4.61-1.01s-2.01-1.61-2.41-2.81c-0.39-1.2-0.59-2.99-0.59-5.39v-7.15c0-1.76,0.06-3.09,0.18-3.97
				c0.12-0.88,0.48-1.73,1.08-2.55c0.6-0.82,1.43-1.46,2.5-1.93c1.06-0.47,2.29-0.7,3.67-0.7c1.88,0,3.42,0.36,4.64,1.09
				c1.22,0.72,2.02,1.63,2.41,2.71c0.38,1.08,0.57,2.77,0.57,5.05V743.66z"/>
			<path d="M361.04,733v4.9h-3.78v19.59h-6.37V737.9h-3.77V733H361.04z"/>
			<path d="M368.86,733v24.49h-6.37V733H368.86z"/>
			<path d="M386.56,733l-3.24,24.49h-9.67L369.96,733h6.72c0.78,6.75,1.34,12.45,1.67,17.12c0.33-4.72,0.68-8.91,1.05-12.57
				l0.44-4.55H386.56z"/>
			<path d="M398.64,733l3.64,24.49h-6.51l-0.34-4.4h-2.28l-0.38,4.4h-6.58l3.25-24.49H398.64z M395.26,748.74
				c-0.32-2.77-0.65-6.2-0.97-10.29c-0.65,4.69-1.06,8.12-1.22,10.29H395.26z"/>
			<path d="M416.19,733v4.9h-3.78v19.59h-6.37V737.9h-3.77V733H416.19z"/>
			<path d="M417.64,733h10.62v4.9h-4.25v4.64h3.98v4.66h-3.98v5.38h4.67v4.9h-11.04V733z"/>
			<path d="M448.96,753.31v4.17h-13.45l0-3.49c3.98-6.51,6.35-10.54,7.1-12.09s1.13-2.75,1.13-3.62c0-0.67-0.11-1.16-0.34-1.49
				c-0.23-0.33-0.57-0.49-1.04-0.49c-0.46,0-0.81,0.18-1.04,0.54s-0.34,1.08-0.34,2.16v2.33h-5.48v-0.89c0-1.37,0.07-2.45,0.21-3.24
				c0.14-0.79,0.49-1.57,1.04-2.34s1.28-1.35,2.16-1.74c0.89-0.39,1.95-0.59,3.19-0.59c2.43,0,4.27,0.6,5.51,1.81
				c1.25,1.21,1.87,2.73,1.87,4.58c0,1.4-0.35,2.88-1.05,4.45c-0.7,1.56-2.77,4.88-6.19,9.95H448.96z"/>
			<path d="M465.75,741.28v8.17c0,1.86-0.1,3.21-0.3,4.05c-0.2,0.85-0.62,1.64-1.25,2.38c-0.64,0.74-1.4,1.27-2.3,1.59
				c-0.9,0.32-1.9,0.48-3.01,0.48c-1.46,0-2.68-0.17-3.65-0.51c-0.97-0.34-1.74-0.86-2.31-1.58c-0.58-0.72-0.98-1.47-1.23-2.26
				c-0.24-0.79-0.36-2.05-0.36-3.77v-8.55c0-2.25,0.19-3.93,0.58-5.05c0.39-1.12,1.16-2.02,2.31-2.69c1.15-0.67,2.55-1.01,4.2-1.01
				c1.34,0,2.54,0.23,3.6,0.7c1.06,0.47,1.85,1.04,2.37,1.72s0.88,1.44,1.07,2.28C465.66,738.08,465.75,739.43,465.75,741.28z
				 M459.64,739.23c0-1.3-0.06-2.12-0.19-2.44c-0.13-0.33-0.42-0.49-0.88-0.49c-0.45,0-0.75,0.17-0.9,0.52
				c-0.15,0.35-0.22,1.15-0.22,2.41v11.95c0,1.42,0.07,2.28,0.2,2.57c0.14,0.29,0.43,0.44,0.88,0.44c0.45,0,0.75-0.17,0.89-0.51
				c0.14-0.34,0.21-1.11,0.21-2.31V739.23z"/>
			<path d="M481.12,753.31v4.17h-13.45l0-3.49c3.98-6.51,6.35-10.54,7.1-12.09s1.13-2.75,1.13-3.62c0-0.67-0.11-1.16-0.34-1.49
				c-0.23-0.33-0.57-0.49-1.04-0.49c-0.46,0-0.81,0.18-1.04,0.54s-0.34,1.08-0.34,2.16v2.33h-5.48v-0.89c0-1.37,0.07-2.45,0.21-3.24
				c0.14-0.79,0.49-1.57,1.04-2.34s1.28-1.35,2.16-1.74c0.89-0.39,1.95-0.59,3.19-0.59c2.43,0,4.27,0.6,5.51,1.81
				c1.25,1.21,1.87,2.73,1.87,4.58c0,1.4-0.35,2.88-1.05,4.45c-0.7,1.56-2.77,4.88-6.19,9.95H481.12z"/>
			<path d="M497.91,741.28v8.17c0,1.86-0.1,3.21-0.3,4.05c-0.2,0.85-0.62,1.64-1.25,2.38c-0.64,0.74-1.4,1.27-2.3,1.59
				c-0.9,0.32-1.9,0.48-3.01,0.48c-1.46,0-2.68-0.17-3.65-0.51c-0.97-0.34-1.74-0.86-2.31-1.58c-0.58-0.72-0.98-1.47-1.23-2.26
				c-0.24-0.79-0.36-2.05-0.36-3.77v-8.55c0-2.25,0.19-3.93,0.58-5.05c0.39-1.12,1.16-2.02,2.31-2.69c1.15-0.67,2.55-1.01,4.2-1.01
				c1.34,0,2.54,0.23,3.6,0.7c1.06,0.47,1.85,1.04,2.37,1.72s0.88,1.44,1.07,2.28C497.82,738.08,497.91,739.43,497.91,741.28z
				 M491.8,739.23c0-1.3-0.06-2.12-0.19-2.44c-0.13-0.33-0.42-0.49-0.88-0.49c-0.45,0-0.75,0.17-0.9,0.52
				c-0.15,0.35-0.22,1.15-0.22,2.41v11.95c0,1.42,0.07,2.28,0.2,2.57c0.14,0.29,0.43,0.44,0.88,0.44c0.45,0,0.75-0.17,0.89-0.51
				c0.14-0.34,0.21-1.11,0.21-2.31V739.23z"/>
			<path d="M506.82,733l-1,18.44h-4.72l-1-18.44H506.82z M506.32,752.58v4.9h-5.72v-4.9H506.32z"/>
		</g>
	</g>
	<text transform="matrix(1 0 0 1 53.6196 523.5483)"><tspan x="0" y="0" class="st8 st9">C= 2</tspan><tspan x="0" y="13.2" class="st8 st9">M= 7</tspan><tspan x="0" y="26.4" class="st8 st9">Y= 99</tspan><tspan x="0" y="39.6" class="st8 st9">K= 0</tspan></text>
	<text transform="matrix(1 0 0 1 129.2436 523.5483)"><tspan x="0" y="0" class="st8 st9">C= 7</tspan><tspan x="0" y="13.2" class="st8 st9">M=98</tspan><tspan x="0" y="26.4" class="st8 st9">Y= .11</tspan><tspan x="0" y="39.6" class="st8 st9">K= 0</tspan></text>
	<text transform="matrix(1 0 0 1 196.5634 523.5483)"><tspan x="0" y="0" class="st8 st9">C= 61</tspan><tspan x="0" y="13.2" class="st8 st9">M= 0</tspan><tspan x="0" y="26.4" class="st8 st9">Y= 99</tspan><tspan x="0" y="39.6" class="st8 st9">K= 0</tspan></text>
	<text transform="matrix(1 0 0 1 268.153 523.5481)"><tspan x="0" y="0" class="st8 st9">C= 100</tspan><tspan x="0" y="13.2" class="st8 st9">M= 92</tspan><tspan x="0" y="26.4" class="st8 st9">Y= 3</tspan><tspan x="0" y="39.6" class="st8 st9">K= 0</tspan></text>
	<text transform="matrix(1 0 0 1 339.7777 523.5479)"><tspan x="0" y="0" class="st8 st9">C= 46</tspan><tspan x="0" y="13.2" class="st8 st9">M= 0</tspan><tspan x="0" y="26.4" class="st8 st9">Y= 2 </tspan><tspan x="0" y="39.6" class="st8 st9">K= 0</tspan></text>
	<text transform="matrix(1 0 0 1 411.0612 523.5486)"><tspan x="0" y="0" class="st8 st9">C= .14</tspan><tspan x="0" y="13.2" class="st8 st9">M= 27</tspan><tspan x="0" y="26.4" class="st8 st9">Y= 93</tspan><tspan x="0" y="39.6" class="st8 st9">K= 0</tspan></text>
	<text transform="matrix(1 0 0 1 89.0045 523.0366)"><tspan x="0" y="0" class="st8 st9">R= 254</tspan><tspan x="0" y="13.2" class="st8 st9">G= 224</tspan><tspan x="0" y="26.4" class="st8 st9">B= 0</tspan></text>
	<text transform="matrix(1 0 0 1 444.9516 523.0366)"><tspan x="0" y="0" class="st8 st9">R= 253</tspan><tspan x="0" y="13.2" class="st8 st9">G=190</tspan><tspan x="0" y="26.4" class="st8 st9">B= 42</tspan></text>
	<text transform="matrix(1 0 0 1 371.2487 523.0359)"><tspan x="0" y="0" class="st8 st9">R= 124</tspan><tspan x="0" y="13.2" class="st8 st9">G= 210</tspan><tspan x="0" y="26.4" class="st8 st9">B= 242</tspan></text>
	<text transform="matrix(1 0 0 1 303.9651 523.0364)"><tspan x="0" y="0" class="st8 st9">R= 38</tspan><tspan x="0" y="13.2" class="st8 st9">G= 60</tspan><tspan x="0" y="26.4" class="st8 st9">B=147</tspan></text>
	<text transform="matrix(1 0 0 1 228.0546 523.0364)"><tspan x="0" y="0" class="st8 st9">R= 108</tspan><tspan x="0" y="13.2" class="st8 st9">G= 190</tspan><tspan x="0" y="26.4" class="st8 st9">B= 69</tspan></text>
	<text transform="matrix(1 0 0 1 158.7154 523.0366)"><tspan x="0" y="0" class="st8 st9">R= 222</tspan><tspan x="0" y="13.2" class="st8 st9">G= 28</tspan><tspan x="0" y="26.4" class="st8 st9">B=142</tspan></text>
	<g>
		<g>
			<path d="M312.32,55.36l4.99,33.55h-8.92l-0.47-6.03h-3.12l-0.52,6.03h-9.02l4.45-33.55H312.32z M307.7,76.93
				c-0.44-3.8-0.88-8.5-1.33-14.09c-0.89,6.42-1.45,11.12-1.67,14.09H307.7z"/>
			<path d="M339.17,69.97h-8.72v-5.83c0-1.7-0.09-2.75-0.28-3.17s-0.6-0.63-1.23-0.63c-0.72,0-1.17,0.26-1.37,0.77
				c-0.19,0.51-0.29,1.62-0.29,3.32V80c0,1.63,0.1,2.69,0.29,3.19c0.19,0.5,0.63,0.75,1.31,0.75c0.65,0,1.07-0.25,1.27-0.75
				c0.2-0.5,0.3-1.67,0.3-3.51v-4.22h8.72v1.31c0,3.47-0.25,5.94-0.74,7.39c-0.49,1.45-1.58,2.73-3.25,3.82
				c-1.68,1.09-3.75,1.64-6.21,1.64c-2.56,0-4.66-0.46-6.32-1.39c-1.66-0.93-2.76-2.21-3.29-3.84c-0.54-1.64-0.81-4.1-0.81-7.39
				v-9.8c0-2.42,0.08-4.23,0.25-5.44c0.17-1.21,0.66-2.37,1.48-3.49s1.96-2,3.42-2.64c1.46-0.64,3.13-0.96,5.03-0.96
				c2.57,0,4.69,0.5,6.36,1.49c1.67,0.99,2.77,2.23,3.29,3.71c0.52,1.48,0.79,3.79,0.79,6.92V69.97z"/>
			<path d="M359.87,55.36v6.71h-5.18v26.84h-8.72V62.07h-5.16v-6.71H359.87z"/>
			<path d="M370.58,55.36v33.55h-8.72V55.36H370.58z"/>
			<path d="M394.83,55.36l-4.44,33.55h-13.25l-5.04-33.55h9.2c1.07,9.24,1.83,17.06,2.29,23.46c0.45-6.47,0.93-12.21,1.44-17.22
				l0.61-6.24H394.83z"/>
			<path d="M411.38,55.36l4.99,33.55h-8.92l-0.47-6.03h-3.12l-0.52,6.03h-9.02l4.45-33.55H411.38z M406.76,76.93
				c-0.44-3.8-0.88-8.5-1.33-14.09c-0.89,6.42-1.45,11.12-1.67,14.09H406.76z"/>
			<path d="M435.43,55.36v6.71h-5.18v26.84h-8.72V62.07h-5.16v-6.71H435.43z"/>
			<path d="M437.42,55.36h14.55v6.71h-5.82v6.36h5.45v6.38h-5.45v7.38h6.4v6.71h-15.13V55.36z"/>
			<path d="M315.04,122.19v5.72h-18.42l0-4.79c5.46-8.93,8.7-14.45,9.73-16.57c1.03-2.12,1.54-3.77,1.54-4.96
				c0-0.91-0.16-1.59-0.47-2.04c-0.31-0.45-0.79-0.67-1.42-0.67s-1.11,0.25-1.42,0.75c-0.31,0.5-0.47,1.49-0.47,2.96v3.19h-7.5
				v-1.22c0-1.88,0.1-3.36,0.29-4.45s0.67-2.15,1.43-3.2c0.76-1.05,1.75-1.84,2.96-2.38c1.22-0.54,2.67-0.81,4.37-0.81
				c3.33,0,5.85,0.83,7.55,2.48s2.56,3.74,2.56,6.27c0,1.92-0.48,3.95-1.44,6.09c-0.96,2.14-3.79,6.69-8.49,13.64H315.04z"/>
			<path d="M338.05,105.72v11.19c0,2.54-0.14,4.39-0.41,5.55c-0.28,1.16-0.85,2.25-1.72,3.25c-0.87,1.01-1.92,1.73-3.15,2.18
				c-1.23,0.44-2.6,0.66-4.12,0.66c-2,0-3.67-0.23-4.99-0.69s-2.38-1.18-3.17-2.17c-0.79-0.98-1.35-2.01-1.68-3.1
				c-0.33-1.08-0.5-2.81-0.5-5.17v-11.71c0-3.08,0.27-5.39,0.8-6.92c0.53-1.53,1.59-2.76,3.17-3.69s3.5-1.39,5.75-1.39
				c1.84,0,3.48,0.32,4.93,0.96c1.45,0.64,2.54,1.43,3.25,2.35c0.72,0.93,1.21,1.97,1.46,3.13
				C337.92,101.32,338.05,103.17,338.05,105.72z M329.67,102.9c0-1.78-0.09-2.9-0.26-3.35c-0.17-0.45-0.58-0.67-1.21-0.67
				c-0.62,0-1.03,0.24-1.23,0.72c-0.2,0.48-0.3,1.58-0.3,3.31v16.37c0,1.95,0.09,3.12,0.28,3.52s0.59,0.6,1.21,0.6
				c0.62,0,1.03-0.23,1.22-0.7c0.19-0.47,0.29-1.53,0.29-3.17V102.9z"/>
			<path d="M359.1,122.19v5.72h-18.42l0-4.79c5.46-8.93,8.7-14.45,9.73-16.57c1.03-2.12,1.54-3.77,1.54-4.96
				c0-0.91-0.16-1.59-0.47-2.04c-0.31-0.45-0.79-0.67-1.42-0.67s-1.11,0.25-1.42,0.75c-0.31,0.5-0.47,1.49-0.47,2.96v3.19h-7.5
				v-1.22c0-1.88,0.1-3.36,0.29-4.45s0.67-2.15,1.43-3.2c0.76-1.05,1.75-1.84,2.96-2.38c1.22-0.54,2.67-0.81,4.37-0.81
				c3.33,0,5.85,0.83,7.55,2.48s2.56,3.74,2.56,6.27c0,1.92-0.48,3.95-1.44,6.09c-0.96,2.14-3.79,6.69-8.49,13.64H359.1z"/>
			<path d="M382.11,105.72v11.19c0,2.54-0.14,4.39-0.41,5.55c-0.28,1.16-0.85,2.25-1.72,3.25c-0.87,1.01-1.92,1.73-3.15,2.18
				c-1.23,0.44-2.6,0.66-4.12,0.66c-2,0-3.67-0.23-4.99-0.69s-2.38-1.18-3.17-2.17c-0.79-0.98-1.35-2.01-1.68-3.1
				c-0.33-1.08-0.5-2.81-0.5-5.17v-11.71c0-3.08,0.27-5.39,0.8-6.92c0.53-1.53,1.59-2.76,3.17-3.69s3.5-1.39,5.75-1.39
				c1.84,0,3.48,0.32,4.93,0.96c1.45,0.64,2.54,1.43,3.25,2.35c0.72,0.93,1.21,1.97,1.46,3.13
				C381.98,101.32,382.11,103.17,382.11,105.72z M373.73,102.9c0-1.78-0.09-2.9-0.26-3.35c-0.17-0.45-0.58-0.67-1.21-0.67
				c-0.62,0-1.03,0.24-1.23,0.72c-0.2,0.48-0.3,1.58-0.3,3.31v16.37c0,1.95,0.09,3.12,0.28,3.52s0.59,0.6,1.21,0.6
				c0.62,0,1.03-0.23,1.22-0.7c0.19-0.47,0.29-1.53,0.29-3.17V102.9z"/>
			<path d="M394.31,94.36l-1.37,25.26h-6.47l-1.37-25.26H394.31z M393.63,121.2v6.71h-7.83v-6.71H393.63z"/>
		</g>
	</g>
</g>
<g id="right_brick">
	<path d="M121.32,188.77l0.1,8.58l0,16.68c0,0.18,0,0.36-0.01,0.54l-2.09,33.83c-0.01,0.23-0.02,0.46-0.01,0.69l0.8,44.62l0.07,3.79
		c0.1,5.3-4.59,9.67-10.46,9.76l-10.58,0.17l-22.28,0.35l-5.24,0.08c-6.28,0.1-11.28-4.7-10.8-10.34l0.16-1.91
		c0,0,0.96-10.55-0.92-19.45c-0.09-0.43-0.15-0.86-0.18-1.29c-0.21-3.41-1.17-19.13-1.02-24.22c0.13-4.5-2.57-12.59-3.73-15.83
		c-0.34-0.95-0.51-1.94-0.51-2.94l0.01-125.71c0-0.61,0.06-1.22,0.19-1.83c0.85-3.93,1.69-7.86,2.53-11.8
		c0.25,0,1.8-11.47,3.09-12.61c1.52-1.33,6.09-0.83,8.27-0.96c3.21-0.18,6.41-0.36,9.61-0.54c4.49-0.25,8.48-1.19,13.01-0.55
		c4.36,0.61,8.55,1.95,12.82,2.9c3.6,0.8,10.17,0.96,12.41,3.82c3.08,3.91,3.63,9.52,6.01,13.82c0.31,0.73,0.63,1.46,0.81,2.22
		c1.04,4.51,0.17,10.01,0.17,14.62l0,8.17l-2.13,46.87l0,3.66L121.32,188.77"/>
	<path d="M369.59,659.53l0.44,0.09c0,0,2.53,0.52,4.52,0.03c0,0,4.31-0.04,5.6,0.12c1.02,0.12,2.79-0.58,3.49-0.89
		c0.21-0.09,0.43-0.13,0.65-0.11l28.66,2.28l5.3,1.96c0.94,0.35,1.73,1.54,1.97,2.98l0.82,4.95c0,0.03,0.01,0.05,0.01,0.07
		l0.84,8.24c0.07,0.7,0,1.38-0.21,1.95l-0.22,0.59c-0.33,0.9-0.97,1.41-1.69,1.35l-1-0.08l-8.23-0.66l-2.37-0.34l-8.29-1.18
		l-9.96-0.8l-7.85-1.29l-8.01-0.44l-2.14-0.12l-0.86-0.05c-1.2-0.07-2.3-1.62-2.47-3.47l-0.3-3.33l-0.63-7.01l-0.15-1.65
		C367.34,660.76,368.3,659.27,369.59,659.53z"/>
	<path d="M432.64,619.26c-0.2-0.54-0.46-1.03-0.8-1.46c-1.13-1.44-3.89-5.1-4.72-7.58c-0.93-2.8-4.42-11.07-5.18-12.86
		c-0.1-0.23-0.21-0.44-0.33-0.65c-1.36-2.3-2.31-4.66-3.26-7.34c-0.1-0.28-0.2-0.56-0.34-0.79c-0.17-0.27-0.38-0.43-0.59-0.57
		c-1.17-0.82-2.64-3.31-3.65-1.81c-0.46,0.68-1,0.87-1.57,0.75c-1.04-0.2-2.2-1.38-3.27-2.26c-1.77-1.44-4.81,2-6.2,2.9
		c-1.4,0.91-2.79,1.81-4.19,2.71l-1.02,0.66l-3.53,2.28c-2.53,1.64-3.71,5.27-2.63,8.12l0.77,2.04l3.59,9.49l5.49,14.49
		c0.05,0.12,0.09,0.25,0.13,0.38l5.71,18.91c0.03,0.1,0.06,0.2,0.1,0.29l8.56,23.72l8.25,26l7.11,19.71l0.86,2.4
		c0.63,1.74,1.99,2.89,3.62,3.06l1.07,0.11c1.03,0.11,2.09-0.18,3.04-0.82l11-7.4c0.15-0.1,0.3-0.21,0.44-0.33l6.24-5.13
		c0.15-0.12,0.35-0.24,0.59-0.36c2.76-1.36,2.15-5.14,1.77-7.38l0.45-6.1c-0.02-0.1-0.39-1.01-0.92-2.3
		c-1.45-3.48-4.1-9.71-4.19-9.95L432.64,619.26z"/>
	<path d="M394.7,659.65l0.05,4.68l0,9.11c0,0.1,0,0.19-0.01,0.29l-1.14,18.46c-0.01,0.12-0.01,0.25-0.01,0.38l0.44,24.36l0.04,2.07
		c0.05,2.89-2.5,5.28-5.71,5.33l-5.78,0.09l-12.16,0.19l-2.86,0.04c-3.43,0.06-6.16-2.56-5.9-5.65l0.09-1.04
		c0,0,0.52-5.76-0.5-10.62c-0.05-0.23-0.08-0.47-0.1-0.7c-0.12-1.86-0.64-10.44-0.56-13.22c0.07-2.46-1.4-6.88-2.04-8.64
		c-0.19-0.52-0.28-1.06-0.28-1.6l0.01-68.62c0-0.33,0.04-0.67,0.11-1c0.46-2.15,0.92-4.29,1.38-6.44c0.14,0,0.98-6.26,1.69-6.88
		c0.83-0.73,3.33-0.46,4.51-0.52c1.75-0.1,3.5-0.2,5.24-0.29c2.45-0.14,4.63-0.65,7.1-0.3c2.38,0.33,4.67,1.06,7,1.58
		c1.96,0.44,5.55,0.53,6.77,2.08c1.68,2.14,1.98,5.19,3.28,7.54c0.17,0.4,0.34,0.79,0.44,1.21c0.57,2.46,0.09,5.46,0.09,7.98l0,4.46
		l-1.16,25.59l0,2L394.7,659.65"/>
	<path d="M467.87,312.35l0.48,0.1c0,0,2.81,0.57,5.01,0.03c0,0,4.77-0.04,6.21,0.13c1.13,0.14,3.09-0.64,3.87-0.98
		c0.23-0.1,0.47-0.14,0.72-0.12l31.77,2.53l5.88,2.17c1.04,0.38,1.92,1.71,2.18,3.3l0.91,5.49c0,0.03,0.01,0.06,0.01,0.08l0.93,9.13
		c0.08,0.78,0,1.53-0.23,2.16l-0.24,0.65c-0.37,1-1.07,1.56-1.88,1.5l-1.11-0.09l-9.12-0.73l-2.63-0.37l-9.19-1.31l-11.04-0.88
		l-8.7-1.43l-8.88-0.48l-2.38-0.13l-0.95-0.05c-1.33-0.07-2.55-1.79-2.74-3.84l-0.33-3.69l-0.7-7.77l-0.16-1.83
		C465.38,313.72,466.44,312.07,467.87,312.35z"/>
	<g>
		<path d="M528.31,266.18c-0.21-0.58-0.49-1.1-0.84-1.54c-1.2-1.53-4.12-5.4-4.99-8.02c-0.98-2.96-4.68-11.72-5.48-13.61
			c-0.1-0.24-0.22-0.47-0.35-0.69c-1.44-2.43-2.44-4.93-3.45-7.77c-0.1-0.29-0.21-0.59-0.36-0.83c-0.18-0.29-0.41-0.46-0.62-0.61
			c-1.24-0.87-2.79-3.5-3.86-1.92c-0.49,0.73-1.06,0.92-1.66,0.79c-1.1-0.21-2.32-1.46-3.47-2.39c-1.88-1.52-5.09,2.12-6.56,3.07
			c-1.48,0.96-2.96,1.92-4.44,2.87l-1.09,0.7l-3.74,2.42c-2.68,1.73-3.93,5.58-2.78,8.6l0.81,2.16l3.81,10.05l5.81,15.35
			c0.05,0.13,0.09,0.26,0.14,0.4l6.05,20.02c0.03,0.1,0.07,0.21,0.1,0.31l9.06,25.12l8.74,27.53l7.53,20.87l0.91,2.54
			c0.67,1.84,2.11,3.06,3.83,3.24l1.13,0.11c1.09,0.11,2.21-0.19,3.22-0.87l11.64-7.83c0.16-0.11,0.32-0.22,0.47-0.35l6.61-5.43
			c0.16-0.13,0.37-0.26,0.63-0.38c2.92-1.44,2.28-5.45,1.87-7.81l0.47-6.46c-0.02-0.1-0.41-1.07-0.98-2.43
			c-1.53-3.69-4.34-10.28-4.44-10.54L528.31,266.18z"/>
		<path d="M488.13,308.95l0.06,4.96l0,9.64c0,0.1,0,0.21-0.01,0.31l-1.21,19.55c-0.01,0.13-0.01,0.27-0.01,0.4l0.46,25.79l0.04,2.19
			c0.06,3.06-2.65,5.59-6.05,5.64l-6.12,0.1l-12.88,0.2l-3.03,0.05c-3.63,0.06-6.52-2.71-6.24-5.98l0.09-1.1
			c0,0,0.56-6.1-0.53-11.24c-0.05-0.25-0.09-0.5-0.11-0.75c-0.12-1.97-0.67-11.06-0.59-14c0.08-2.6-1.49-7.28-2.16-9.15
			c-0.2-0.55-0.29-1.12-0.29-1.7l0.01-72.66c0-0.35,0.04-0.71,0.11-1.06c0.49-2.27,0.98-4.55,1.46-6.82c0.15,0,1.04-6.63,1.79-7.29
			c0.88-0.77,3.52-0.48,4.78-0.55c1.85-0.1,3.7-0.21,5.55-0.31c2.59-0.15,4.9-0.69,7.52-0.32c2.52,0.35,4.94,1.13,7.41,1.67
			c2.08,0.46,5.88,0.56,7.17,2.21c1.78,2.26,2.1,5.5,3.47,7.99c0.18,0.42,0.36,0.84,0.47,1.28c0.6,2.61,0.1,5.78,0.1,8.45l0,4.72
			l-1.23,27.09l0,2.12L488.13,308.95"/>
	</g>
</g>
<g id="_x32_020">
	<g>
		<path class="st10" d="M158.41,223.26c0.18-1.49-0.11-2.77-0.87-3.85c-0.76-1.08-2-1.72-3.71-1.93c-0.87-0.11-1.64-0.04-2.31,0.2
			c-0.66,0.24-1.23,0.65-1.7,1.22c-0.47,0.57-0.79,1.17-0.97,1.79c-0.18,0.63-0.33,1.49-0.47,2.6L148.3,224l3.86,0.47l0.23-1.88
			c0.11-0.87,0.26-1.44,0.45-1.71c0.2-0.27,0.46-0.39,0.79-0.35c0.33,0.04,0.55,0.2,0.68,0.49c0.13,0.28,0.16,0.69,0.09,1.23
			c-0.09,0.7-0.47,1.64-1.15,2.82c-0.68,1.18-2.75,4.23-6.2,9.14l-0.35,2.82l9.48,1.16l0.41-3.37l-4.73-0.58
			c2.92-3.79,4.7-6.29,5.35-7.49C157.87,225.56,158.27,224.39,158.41,223.26z"/>
		<path class="st10" d="M145.81,223.66c0.18-1.5,0.25-2.59,0.2-3.29c-0.05-0.7-0.22-1.34-0.53-1.93c-0.3-0.59-0.8-1.12-1.5-1.59
			c-0.7-0.47-1.52-0.76-2.47-0.88c-1.16-0.14-2.18,0.01-3.06,0.45c-0.88,0.45-1.51,1.1-1.9,1.97c-0.38,0.87-0.69,2.21-0.91,4.02
			l-0.84,6.89c-0.17,1.39-0.21,2.42-0.12,3.07c0.09,0.66,0.31,1.3,0.64,1.93c0.33,0.63,0.83,1.12,1.48,1.47
			c0.65,0.36,1.49,0.6,2.52,0.72c0.78,0.1,1.51,0.05,2.17-0.13c0.66-0.18,1.26-0.54,1.78-1.08s0.89-1.14,1.12-1.81
			c0.23-0.67,0.43-1.75,0.61-3.24L145.81,223.66z M140.13,233.11c-0.13,0.26-0.36,0.38-0.68,0.34c-0.32-0.04-0.51-0.18-0.58-0.43
			c-0.07-0.25-0.03-0.94,0.11-2.09l1.18-9.64c0.12-1.02,0.26-1.66,0.39-1.93c0.14-0.27,0.37-0.38,0.69-0.34
			c0.33,0.04,0.52,0.2,0.58,0.47c0.06,0.28,0.02,0.94-0.11,1.99l-1.2,9.78C140.39,232.23,140.27,232.84,140.13,233.11z"/>
		<path class="st10" d="M133.46,220.21c0.18-1.49-0.11-2.77-0.87-3.85c-0.76-1.08-2-1.72-3.71-1.93c-0.87-0.11-1.64-0.04-2.31,0.2
			c-0.66,0.24-1.23,0.65-1.7,1.22c-0.47,0.57-0.79,1.17-0.97,1.79c-0.18,0.63-0.33,1.49-0.47,2.6l-0.09,0.72l3.86,0.47l0.23-1.88
			c0.11-0.87,0.26-1.44,0.45-1.72c0.2-0.27,0.46-0.39,0.79-0.35c0.33,0.04,0.55,0.2,0.68,0.49c0.13,0.28,0.16,0.69,0.09,1.23
			c-0.09,0.7-0.47,1.64-1.15,2.82c-0.68,1.18-2.75,4.23-6.2,9.14l-0.35,2.82l9.48,1.16l0.41-3.37l-4.73-0.58
			c2.92-3.79,4.7-6.29,5.35-7.49S133.32,221.34,133.46,220.21z"/>
		<path class="st10" d="M170.76,226.72c0.18-1.5,0.25-2.59,0.2-3.29c-0.05-0.7-0.22-1.34-0.53-1.93c-0.3-0.59-0.8-1.12-1.5-1.59
			c-0.7-0.47-1.52-0.76-2.47-0.88c-1.16-0.14-2.18,0.01-3.06,0.45c-0.88,0.45-1.51,1.1-1.9,1.97c-0.38,0.87-0.69,2.21-0.91,4.02
			l-0.84,6.89c-0.17,1.39-0.21,2.42-0.12,3.07c0.09,0.66,0.31,1.3,0.64,1.93c0.33,0.63,0.83,1.12,1.48,1.47
			c0.65,0.36,1.49,0.6,2.52,0.72c0.78,0.1,1.51,0.05,2.17-0.13c0.66-0.18,1.26-0.54,1.78-1.08c0.52-0.54,0.89-1.14,1.12-1.81
			c0.23-0.67,0.43-1.75,0.61-3.24L170.76,226.72z M165.08,236.16c-0.13,0.26-0.36,0.38-0.68,0.34c-0.32-0.04-0.51-0.18-0.58-0.43
			c-0.07-0.25-0.03-0.94,0.11-2.09l1.18-9.64c0.12-1.02,0.26-1.66,0.39-1.93c0.14-0.27,0.37-0.38,0.69-0.34
			c0.33,0.04,0.52,0.2,0.58,0.47c0.06,0.28,0.02,0.94-0.11,1.99l-1.2,9.78C165.34,235.28,165.21,235.9,165.08,236.16z"/>
	</g>
</g>
<g id="_x21_">
	<g>
		
			<rect x="199.76" y="240.83" transform="matrix(0.931 -0.3649 0.3649 0.931 -77.2947 93.7794)" class="st10" width="19.47" height="21.18"/>
		<polygon class="st10" points="138.26,101.94 195.07,236.59 202.4,233.75 210.05,230.79 206.32,220.66 192.04,181.88 159.24,92.85 
			137.91,101.1 		"/>
	</g>
</g>
<g id="activate">
	<g>
		<polygon class="st10" points="78.16,231.97 78.32,226.24 108.14,227.04 108.4,217.35 78.58,216.54 78.74,210.78 71.28,210.58 
			70.7,231.77 		"/>
		<path class="st10" d="M71.34,240.6c-1.15,1.83-1.77,4.17-1.85,7.02c-0.06,2.1,0.25,3.97,0.92,5.61c0.67,1.64,1.61,2.93,2.83,3.88
			c1.22,0.95,2.5,1.53,3.84,1.75c1.34,0.22,3.35,0.37,6.04,0.44l10.89,0.3c3.65,0.1,6.4-0.13,8.23-0.68
			c1.84-0.55,3.29-1.73,4.37-3.55c1.08-1.81,1.66-4.14,1.73-6.98c0.07-2.73-0.47-5.05-1.63-6.95c-1.16-1.9-2.55-3.14-4.15-3.73
			c-1.6-0.59-4.33-0.94-8.19-1.04l-1.45-0.04l-0.26,9.69l4.69,0.13c2.05,0.06,3.34,0.2,3.89,0.44c0.55,0.24,0.81,0.72,0.79,1.44
			c-0.02,0.75-0.31,1.23-0.87,1.43c-0.56,0.2-1.74,0.28-3.55,0.23l-17.32-0.47c-1.89-0.05-3.11-0.19-3.68-0.42
			c-0.56-0.23-0.83-0.74-0.81-1.54c0.02-0.71,0.27-1.16,0.74-1.35c0.47-0.19,1.65-0.27,3.54-0.22l6.48,0.18l0.26-9.69l-3.54-0.1
			c-3.48-0.09-6.05,0.13-7.72,0.67C73.9,237.59,72.49,238.77,71.34,240.6z"/>
		<path class="st10" d="M69.33,282.33l37.15,5.95l0.27-10.02l-6.68-0.76l0.09-3.47l6.71-0.34l0.27-9.91l-37.43,4.53L69.33,282.33z
			 M93.45,277.44c-3.29-0.34-8.5-1.1-15.61-2.28c6.23-0.33,11.46-0.68,15.7-1.05L93.45,277.44z"/>
		
			<rect x="85.33" y="182.93" transform="matrix(0.0271 -0.9996 0.9996 0.0271 -113.7708 286.2599)" class="st10" width="9.7" height="37.29"/>
		<polygon class="st10" points="104.13,99.38 103.94,106.49 95.74,106.27 95.9,100.21 88.81,100.02 88.65,106.08 81.58,105.89 
			81.75,99.42 74.29,99.21 73.86,115.38 111.14,116.39 111.59,99.58 		"/>
		<polygon class="st10" points="110.59,136.5 110.85,126.81 81.03,126 81.19,120.24 73.73,120.04 73.16,141.23 80.62,141.43 
			80.77,135.69 		"/>
		<path class="st10" d="M103.36,155.79l0.09-3.47l6.71-0.34l0.27-9.91l-37.43,4.53l-0.38,14.01l37.15,5.95l0.27-10.02L103.36,155.79
			z M81.14,153.45c6.23-0.33,11.46-0.68,15.7-1.05l-0.09,3.34C93.46,155.39,88.25,154.63,81.14,153.45z"/>
		<path class="st10" d="M72.46,166.83l-0.28,10.22l6.91,0.86c5.56,0.71,11.92,1.42,19.09,2.11c-7.12,0.32-15.83,0.93-26.14,1.84
			l-0.28,10.22l37.43-4.59l0.4-14.73L72.46,166.83z"/>
	</g>
	<g>
		<path d="M130.56,688.97l0.52,0.1c0,0,2.99,0.61,5.34,0.03c0,0,5.09-0.05,6.62,0.14c1.21,0.14,3.29-0.69,4.13-1.05
			c0.24-0.11,0.5-0.15,0.77-0.13l33.87,2.7l6.27,2.31c1.11,0.41,2.04,1.82,2.32,3.52l0.97,5.85c0,0.03,0.01,0.06,0.01,0.09
			l0.99,9.74c0.09,0.83,0,1.63-0.25,2.3l-0.25,0.7c-0.39,1.06-1.14,1.66-2,1.59l-1.18-0.09l-9.72-0.78l-2.8-0.4l-9.8-1.39
			l-11.77-0.94l-9.28-1.52l-9.47-0.52l-2.53-0.14l-1.01-0.06c-1.42-0.08-2.72-1.91-2.92-4.1l-0.36-3.94l-0.74-8.29l-0.17-1.95
			C127.9,690.43,129.04,688.67,130.56,688.97z"/>
		<path d="M192.96,629.28c-0.23-0.64-0.55-1.22-0.94-1.72c-1.34-1.71-4.6-6.03-5.57-8.96c-1.1-3.31-5.23-13.08-6.12-15.2
			c-0.11-0.27-0.24-0.53-0.39-0.77c-1.61-2.72-2.73-5.51-3.85-8.68c-0.11-0.33-0.23-0.66-0.4-0.93c-0.2-0.32-0.45-0.51-0.7-0.68
			c-1.38-0.97-3.12-3.91-4.31-2.14c-0.55,0.81-1.18,1.02-1.86,0.89c-1.22-0.24-2.6-1.63-3.87-2.67c-2.09-1.7-5.68,2.36-7.33,3.42
			c-1.65,1.07-3.3,2.14-4.96,3.21l-1.21,0.78l-4.18,2.7c-2.99,1.94-4.38,6.23-3.1,9.6l0.91,2.41l4.25,11.22l6.49,17.13
			c0.05,0.14,0.11,0.29,0.15,0.45l6.75,22.35c0.04,0.11,0.07,0.23,0.12,0.34l10.11,28.04l9.75,30.73l8.41,23.3l1.02,2.84
			c0.74,2.06,2.35,3.41,4.28,3.61l1.27,0.13c1.21,0.13,2.47-0.21,3.6-0.97l13-8.75c0.18-0.12,0.36-0.25,0.52-0.39l7.38-6.06
			c0.18-0.15,0.42-0.29,0.7-0.43c3.26-1.61,2.54-6.08,2.09-8.72l0.53-7.21c-0.02-0.11-0.46-1.19-1.09-2.71
			c-1.71-4.11-4.85-11.48-4.95-11.76L192.96,629.28z"/>
		<path d="M148.11,677.03l0.06,5.53l0,10.76c0,0.12,0,0.23-0.01,0.35l-1.35,21.83c-0.01,0.15-0.01,0.3-0.01,0.44l0.52,28.79
			l0.04,2.45c0.06,3.42-2.96,6.24-6.75,6.3l-6.83,0.11l-14.37,0.23l-3.38,0.05c-4.05,0.07-7.28-3.03-6.97-6.67l0.11-1.23
			c0,0,0.62-6.81-0.59-12.55c-0.06-0.28-0.1-0.55-0.12-0.83c-0.14-2.2-0.75-12.34-0.66-15.63c0.09-2.91-1.66-8.13-2.41-10.21
			c-0.22-0.61-0.33-1.25-0.33-1.9l0.01-81.12c0-0.39,0.04-0.79,0.12-1.18c0.55-2.54,1.09-5.07,1.63-7.61c0.16,0,1.16-7.4,2-8.14
			c0.98-0.86,3.93-0.54,5.33-0.62c2.07-0.12,4.13-0.23,6.2-0.35c2.9-0.16,5.47-0.77,8.39-0.36c2.82,0.39,5.52,1.26,8.27,1.87
			c2.32,0.52,6.56,0.62,8.01,2.46c1.99,2.53,2.34,6.14,3.88,8.92c0.2,0.47,0.41,0.94,0.52,1.43c0.67,2.91,0.11,6.46,0.11,9.43
			l0,5.27l-1.37,30.25l0,2.36L148.11,677.03"/>
		<g>
			<path class="st10" d="M172.04,699.29c0.12-0.96-0.07-1.79-0.56-2.49c-0.49-0.7-1.29-1.11-2.39-1.25
				c-0.56-0.07-1.06-0.03-1.49,0.13c-0.43,0.16-0.79,0.42-1.1,0.78c-0.3,0.37-0.51,0.75-0.62,1.16c-0.11,0.4-0.22,0.96-0.3,1.68
				l-0.06,0.46l2.49,0.31l0.15-1.21c0.07-0.56,0.17-0.93,0.29-1.11c0.13-0.18,0.3-0.25,0.51-0.23c0.21,0.03,0.36,0.13,0.44,0.31
				c0.08,0.18,0.1,0.45,0.06,0.79c-0.06,0.45-0.3,1.06-0.74,1.82c-0.44,0.76-1.77,2.73-4,5.9l-0.22,1.82l6.12,0.75l0.27-2.17
				l-3.05-0.37c1.88-2.45,3.03-4.06,3.45-4.83C171.7,700.77,171.95,700.02,172.04,699.29z"/>
			<path class="st10" d="M163.92,699.55c0.12-0.97,0.16-1.67,0.13-2.13c-0.03-0.45-0.14-0.87-0.34-1.25
				c-0.2-0.38-0.52-0.72-0.97-1.03c-0.45-0.3-0.98-0.49-1.59-0.57c-0.75-0.09-1.41,0.01-1.97,0.29c-0.57,0.29-0.98,0.71-1.22,1.27
				c-0.25,0.56-0.44,1.43-0.59,2.6l-0.54,4.45c-0.11,0.9-0.14,1.56-0.08,1.98c0.06,0.43,0.2,0.84,0.41,1.24
				c0.22,0.4,0.53,0.72,0.95,0.95c0.42,0.23,0.96,0.39,1.63,0.47c0.5,0.06,0.97,0.03,1.4-0.08c0.43-0.12,0.81-0.35,1.15-0.7
				c0.34-0.35,0.58-0.74,0.72-1.17c0.15-0.43,0.28-1.13,0.4-2.09L163.92,699.55z M160.25,705.64c-0.09,0.17-0.23,0.24-0.44,0.22
				c-0.21-0.03-0.33-0.12-0.37-0.28c-0.04-0.16-0.02-0.61,0.07-1.35l0.76-6.22c0.08-0.66,0.16-1.07,0.25-1.24
				c0.09-0.17,0.24-0.25,0.44-0.22c0.21,0.03,0.33,0.13,0.37,0.31c0.04,0.18,0.01,0.6-0.07,1.28l-0.77,6.31
				C160.42,705.08,160.34,705.47,160.25,705.64z"/>
			<path class="st10" d="M155.94,697.32c0.12-0.96-0.07-1.79-0.56-2.49c-0.49-0.7-1.29-1.11-2.39-1.25
				c-0.56-0.07-1.06-0.03-1.49,0.13c-0.43,0.16-0.79,0.42-1.1,0.78c-0.3,0.37-0.51,0.75-0.62,1.16c-0.11,0.4-0.22,0.96-0.3,1.68
				l-0.06,0.46l2.49,0.31l0.15-1.21c0.07-0.56,0.17-0.93,0.29-1.11c0.13-0.18,0.3-0.25,0.51-0.23c0.21,0.03,0.36,0.13,0.44,0.31
				c0.08,0.18,0.1,0.45,0.06,0.79c-0.06,0.45-0.3,1.06-0.74,1.82c-0.44,0.76-1.77,2.73-4,5.9l-0.22,1.82l6.12,0.75l0.27-2.17
				l-3.05-0.37c1.88-2.45,3.03-4.06,3.45-4.83C155.6,698.8,155.85,698.05,155.94,697.32z"/>
			<path class="st10" d="M180.02,701.52c0.12-0.97,0.16-1.67,0.13-2.13c-0.03-0.45-0.14-0.87-0.34-1.25
				c-0.2-0.38-0.52-0.72-0.97-1.03c-0.45-0.3-0.98-0.49-1.59-0.57c-0.75-0.09-1.41,0.01-1.97,0.29c-0.57,0.29-0.98,0.71-1.22,1.27
				c-0.25,0.56-0.44,1.43-0.59,2.6l-0.54,4.45c-0.11,0.9-0.14,1.56-0.08,1.98c0.06,0.43,0.2,0.84,0.41,1.24
				c0.22,0.4,0.53,0.72,0.95,0.95c0.42,0.23,0.96,0.39,1.63,0.47c0.5,0.06,0.97,0.03,1.4-0.08c0.43-0.12,0.81-0.35,1.15-0.7
				c0.34-0.35,0.58-0.74,0.72-1.17c0.15-0.43,0.28-1.13,0.4-2.09L180.02,701.52z M176.35,707.62c-0.09,0.17-0.23,0.24-0.44,0.22
				c-0.21-0.03-0.33-0.12-0.37-0.28c-0.04-0.16-0.02-0.61,0.07-1.35l0.76-6.22c0.08-0.66,0.16-1.07,0.25-1.24
				c0.09-0.17,0.24-0.25,0.44-0.22c0.21,0.03,0.33,0.13,0.37,0.31c0.04,0.18,0.01,0.6-0.07,1.28l-0.77,6.31
				C176.52,707.05,176.43,707.45,176.35,707.62z"/>
		</g>
		<g>
			
				<rect x="198.73" y="710.62" transform="matrix(0.931 -0.3649 0.3649 0.931 -247.6589 124.2755)" class="st10" width="12.56" height="13.67"/>
			<polygon class="st10" points="159.04,621 195.7,707.89 200.43,706.06 205.37,704.15 202.96,697.61 193.74,672.59 172.58,615.14 
				158.82,620.47 			"/>
		</g>
		<g>
			<polygon class="st10" points="120.26,704.91 120.36,701.21 139.61,701.73 139.78,695.48 120.53,694.95 120.63,691.24 
				115.82,691.11 115.45,704.78 			"/>
			<path class="st10" d="M115.86,710.48c-0.74,1.18-1.14,2.69-1.19,4.53c-0.04,1.36,0.16,2.56,0.59,3.62
				c0.43,1.06,1.04,1.89,1.83,2.5c0.79,0.61,1.61,0.99,2.47,1.13c0.86,0.14,2.16,0.24,3.9,0.28l7.03,0.19
				c2.36,0.06,4.13-0.08,5.31-0.44c1.18-0.35,2.12-1.12,2.82-2.29c0.7-1.17,1.07-2.67,1.12-4.5c0.05-1.76-0.3-3.26-1.05-4.48
				c-0.75-1.22-1.64-2.03-2.68-2.41c-1.03-0.38-2.79-0.6-5.28-0.67l-0.94-0.03l-0.17,6.26l3.02,0.08c1.32,0.04,2.16,0.13,2.51,0.28
				c0.35,0.15,0.52,0.46,0.51,0.93c-0.01,0.49-0.2,0.79-0.56,0.92c-0.36,0.13-1.12,0.18-2.29,0.15l-11.17-0.3
				c-1.22-0.03-2.01-0.12-2.37-0.27c-0.36-0.15-0.54-0.48-0.52-1c0.01-0.46,0.17-0.75,0.48-0.87c0.31-0.13,1.07-0.17,2.28-0.14
				l4.18,0.11l0.17-6.26l-2.29-0.06c-2.25-0.06-3.9,0.08-4.98,0.43C117.51,708.53,116.6,709.3,115.86,710.48z"/>
			<path class="st10" d="M114.57,737.4l23.97,3.84l0.18-6.47l-4.31-0.49l0.06-2.24l4.33-0.22l0.17-6.39l-24.15,2.93L114.57,737.4z
				 M130.13,734.25c-2.13-0.22-5.48-0.71-10.07-1.47c4.02-0.21,7.4-0.44,10.13-0.68L130.13,734.25z"/>
			
				<rect x="124.89" y="673.27" transform="matrix(0.0271 -0.9996 0.9996 0.0271 -560.4988 794.7086)" class="st10" width="6.26" height="24.06"/>
			<polygon class="st10" points="137.02,619.35 136.9,623.94 131.61,623.8 131.71,619.89 127.14,619.77 127.03,623.68 
				122.47,623.55 122.58,619.38 117.77,619.25 117.48,629.68 141.54,630.33 141.83,619.48 			"/>
			<polygon class="st10" points="141.19,643.31 141.36,637.05 122.12,636.53 122.22,632.82 117.4,632.69 117.03,646.36 
				121.85,646.49 121.95,642.79 			"/>
			<path class="st10" d="M136.52,655.75l0.06-2.24l4.33-0.22l0.17-6.39l-24.15,2.93l-0.24,9.04l23.97,3.84l0.18-6.47L136.52,655.75z
				 M122.19,654.24c4.02-0.21,7.4-0.44,10.13-0.68l-0.06,2.15C130.13,655.5,126.78,655,122.19,654.24z"/>
			<path class="st10" d="M116.59,662.88l-0.18,6.6l4.46,0.56c3.59,0.46,7.69,0.91,12.32,1.36c-4.6,0.2-10.22,0.6-16.86,1.19
				l-0.18,6.6l24.15-2.96l0.26-9.5L116.59,662.88z"/>
		</g>
	</g>
	<path d="M326.44,321.81l0.46,0.09c0,0,2.67,0.54,4.76,0.03c0,0,4.53-0.04,5.9,0.12c1.08,0.13,2.93-0.61,3.68-0.93
		c0.22-0.09,0.45-0.13,0.69-0.11l30.18,2.41l5.58,2.06c0.99,0.36,1.82,1.62,2.07,3.13l0.87,5.21c0,0.03,0.01,0.05,0.01,0.08
		l0.88,8.67c0.08,0.74,0,1.46-0.22,2.05l-0.23,0.62c-0.35,0.95-1.02,1.48-1.78,1.42l-1.06-0.08l-8.66-0.69l-2.5-0.35l-8.73-1.24
		l-10.49-0.84l-8.26-1.36l-8.43-0.46l-2.26-0.12l-0.9-0.05c-1.26-0.07-2.42-1.7-2.6-3.65l-0.32-3.51l-0.66-7.38l-0.16-1.73
		C324.07,323.11,325.09,321.54,326.44,321.81z"/>
	<path d="M382.03,268.64c-0.21-0.57-0.49-1.09-0.84-1.54c-1.19-1.52-4.1-5.37-4.97-7.98c-0.98-2.95-4.66-11.66-5.45-13.54
		c-0.1-0.24-0.22-0.47-0.35-0.69c-1.43-2.42-2.43-4.91-3.43-7.73c-0.1-0.29-0.21-0.59-0.36-0.83c-0.18-0.28-0.4-0.45-0.62-0.61
		c-1.23-0.86-2.78-3.49-3.84-1.91c-0.49,0.72-1.05,0.91-1.65,0.79c-1.09-0.21-2.31-1.45-3.45-2.37c-1.87-1.51-5.06,2.11-6.53,3.05
		c-1.47,0.95-2.94,1.91-4.42,2.86l-1.08,0.7l-3.72,2.41c-2.66,1.72-3.9,5.55-2.77,8.55l0.81,2.14l3.79,10l5.78,15.26
		c0.05,0.13,0.09,0.26,0.13,0.4l6.02,19.91c0.03,0.1,0.07,0.21,0.1,0.31l9.01,24.98l8.69,27.38l7.49,20.76l0.91,2.53
		c0.66,1.83,2.09,3.04,3.81,3.22l1.13,0.11c1.08,0.11,2.2-0.19,3.2-0.86l11.58-7.79c0.16-0.11,0.32-0.22,0.47-0.35l6.57-5.4
		c0.16-0.13,0.37-0.26,0.62-0.38c2.91-1.43,2.26-5.42,1.86-7.77l0.47-6.42c-0.02-0.1-0.41-1.06-0.97-2.42
		c-1.53-3.67-4.32-10.22-4.41-10.48L382.03,268.64z"/>
	<path d="M342.08,311.17l0.06,4.93l0,9.59c0,0.1,0,0.21-0.01,0.31l-1.2,19.44c-0.01,0.13-0.01,0.26-0.01,0.4l0.46,25.65l0.04,2.18
		c0.06,3.05-2.64,5.56-6.01,5.61l-6.08,0.1l-12.81,0.2l-3.01,0.05c-3.61,0.06-6.49-2.7-6.21-5.95l0.09-1.1c0,0,0.55-6.07-0.53-11.18
		c-0.05-0.25-0.09-0.49-0.11-0.74c-0.12-1.96-0.67-11-0.58-13.92c0.08-2.59-1.48-7.24-2.14-9.1c-0.2-0.54-0.29-1.11-0.29-1.69
		l0.01-72.27c0-0.35,0.04-0.7,0.11-1.05c0.49-2.26,0.97-4.52,1.46-6.78c0.15,0,1.04-6.6,1.78-7.25c0.87-0.77,3.5-0.48,4.75-0.55
		c1.84-0.1,3.68-0.21,5.52-0.31c2.58-0.15,4.88-0.68,7.48-0.32c2.51,0.35,4.91,1.12,7.37,1.67c2.07,0.46,5.84,0.55,7.13,2.19
		c1.77,2.25,2.08,5.47,3.45,7.94c0.18,0.42,0.36,0.84,0.46,1.28c0.6,2.59,0.1,5.75,0.1,8.41l0,4.7l-1.22,26.95l0,2.11L342.08,311.17
		"/>
	<g>
		<path class="st2" d="M363.4,331c0.1-0.86-0.06-1.59-0.5-2.21c-0.44-0.62-1.15-0.99-2.13-1.11c-0.5-0.06-0.95-0.02-1.33,0.12
			c-0.38,0.14-0.71,0.37-0.98,0.7c-0.27,0.33-0.45,0.67-0.56,1.03c-0.1,0.36-0.19,0.86-0.27,1.49l-0.05,0.41l2.22,0.27l0.13-1.08
			c0.06-0.5,0.15-0.83,0.26-0.99c0.11-0.16,0.26-0.22,0.45-0.2c0.19,0.02,0.32,0.12,0.39,0.28c0.07,0.16,0.09,0.4,0.05,0.71
			c-0.05,0.4-0.27,0.94-0.66,1.62c-0.39,0.68-1.58,2.43-3.57,5.25l-0.2,1.62l5.45,0.67l0.24-1.94l-2.72-0.33
			c1.68-2.18,2.7-3.62,3.08-4.31C363.09,332.32,363.32,331.65,363.4,331z"/>
		<path class="st2" d="M356.16,331.23c0.11-0.86,0.14-1.49,0.12-1.89c-0.03-0.4-0.13-0.77-0.3-1.11c-0.17-0.34-0.46-0.64-0.87-0.91
			c-0.4-0.27-0.88-0.44-1.42-0.5c-0.67-0.08-1.25,0.01-1.76,0.26c-0.51,0.26-0.87,0.63-1.09,1.13c-0.22,0.5-0.4,1.27-0.52,2.31
			l-0.49,3.96c-0.1,0.8-0.12,1.39-0.07,1.77c0.05,0.38,0.18,0.75,0.37,1.11c0.19,0.36,0.48,0.64,0.85,0.85
			c0.37,0.2,0.86,0.34,1.45,0.42c0.45,0.06,0.87,0.03,1.25-0.07c0.38-0.1,0.72-0.31,1.02-0.62c0.3-0.31,0.51-0.66,0.64-1.04
			c0.13-0.38,0.25-1,0.35-1.86L356.16,331.23z M352.89,336.66c-0.08,0.15-0.21,0.22-0.39,0.19c-0.18-0.02-0.3-0.1-0.33-0.25
			c-0.04-0.14-0.02-0.54,0.06-1.2l0.68-5.54c0.07-0.58,0.15-0.95,0.23-1.11c0.08-0.15,0.21-0.22,0.39-0.2
			c0.19,0.02,0.3,0.11,0.33,0.27c0.03,0.16,0.01,0.54-0.06,1.14l-0.69,5.62C353.04,336.16,352.97,336.51,352.89,336.66z"/>
		<path class="st2" d="M349.06,329.25c0.1-0.86-0.06-1.59-0.5-2.21c-0.44-0.62-1.15-0.99-2.13-1.11c-0.5-0.06-0.95-0.02-1.33,0.12
			c-0.38,0.14-0.71,0.37-0.98,0.7c-0.27,0.33-0.45,0.67-0.56,1.03c-0.1,0.36-0.19,0.86-0.27,1.49l-0.05,0.41l2.22,0.27l0.13-1.08
			c0.06-0.5,0.15-0.83,0.26-0.99c0.11-0.16,0.26-0.22,0.45-0.2c0.19,0.02,0.32,0.12,0.39,0.28c0.07,0.16,0.09,0.4,0.05,0.71
			c-0.05,0.4-0.27,0.94-0.66,1.62c-0.39,0.68-1.58,2.43-3.57,5.25l-0.2,1.62l5.45,0.67l0.24-1.94l-2.72-0.33
			c1.68-2.18,2.7-3.62,3.08-4.31S348.98,329.9,349.06,329.25z"/>
		<path class="st2" d="M370.5,332.99c0.11-0.86,0.14-1.49,0.12-1.89c-0.03-0.4-0.13-0.77-0.3-1.11c-0.17-0.34-0.46-0.64-0.87-0.91
			c-0.4-0.27-0.88-0.44-1.42-0.5c-0.67-0.08-1.25,0.01-1.76,0.26c-0.51,0.26-0.87,0.63-1.09,1.13c-0.22,0.5-0.4,1.27-0.52,2.31
			l-0.49,3.96c-0.1,0.8-0.12,1.39-0.07,1.77c0.05,0.38,0.18,0.75,0.37,1.11c0.19,0.36,0.48,0.64,0.85,0.85
			c0.37,0.2,0.86,0.34,1.45,0.42c0.45,0.06,0.87,0.03,1.25-0.07c0.38-0.1,0.72-0.31,1.02-0.62c0.3-0.31,0.51-0.66,0.64-1.04
			c0.13-0.38,0.25-1,0.35-1.86L370.5,332.99z M367.23,338.42c-0.08,0.15-0.21,0.22-0.39,0.19c-0.18-0.02-0.3-0.1-0.33-0.25
			s-0.02-0.54,0.06-1.2l0.68-5.54c0.07-0.58,0.15-0.95,0.23-1.11c0.08-0.15,0.21-0.22,0.39-0.2c0.19,0.02,0.3,0.11,0.33,0.27
			c0.03,0.16,0.01,0.54-0.06,1.14l-0.69,5.62C367.38,337.91,367.31,338.27,367.23,338.42z"/>
	</g>
	<g>
		
			<rect x="387.17" y="341.1" transform="matrix(0.931 -0.3649 0.3649 0.931 -99.6047 167.2566)" class="st7" width="11.19" height="12.17"/>
		<polygon class="st7" points="351.82,261.26 384.47,338.66 388.69,337.03 393.09,335.33 390.94,329.51 382.73,307.22 
			363.88,256.03 351.61,260.78 		"/>
	</g>
	<g>
		<polygon class="st4" points="317.27,336.01 317.36,332.71 334.5,333.18 334.65,327.6 317.51,327.14 317.6,323.83 313.31,323.71 
			312.98,335.89 		"/>
		<path class="st4" d="M313.34,340.97c-0.66,1.05-1.02,2.4-1.06,4.04c-0.03,1.21,0.14,2.28,0.53,3.23c0.39,0.94,0.93,1.69,1.63,2.23
			c0.7,0.54,1.44,0.88,2.2,1.01c0.77,0.13,1.93,0.21,3.47,0.25l6.26,0.17c2.1,0.06,3.68-0.07,4.73-0.39c1.05-0.32,1.89-1,2.51-2.04
			c0.62-1.04,0.95-2.38,1-4.01c0.04-1.57-0.27-2.9-0.94-3.99c-0.67-1.09-1.46-1.81-2.38-2.14c-0.92-0.34-2.49-0.54-4.71-0.6
			l-0.84-0.02l-0.15,5.57l2.69,0.07c1.18,0.03,1.92,0.12,2.24,0.25c0.32,0.14,0.47,0.41,0.46,0.83c-0.01,0.43-0.18,0.71-0.5,0.82
			c-0.32,0.12-1,0.16-2.04,0.13l-9.95-0.27c-1.09-0.03-1.79-0.11-2.11-0.24c-0.32-0.13-0.48-0.43-0.47-0.89
			c0.01-0.41,0.15-0.66,0.42-0.78c0.27-0.11,0.95-0.15,2.03-0.12l3.72,0.1l0.15-5.57l-2.04-0.06c-2-0.05-3.48,0.07-4.44,0.38
			C314.82,339.24,314.01,339.92,313.34,340.97z"/>
		<path class="st4" d="M312.19,364.96l21.35,3.42l0.16-5.76l-3.84-0.44l0.05-1.99l3.86-0.19l0.15-5.7l-21.52,2.61L312.19,364.96z
			 M326.06,362.15c-1.89-0.2-4.88-0.63-8.97-1.31c3.58-0.19,6.59-0.39,9.02-0.6L326.06,362.15z"/>
		
			<rect x="321.39" y="307.82" transform="matrix(0.0271 -0.9996 0.9996 0.0271 -3.0259 633.9665)" class="st4" width="5.57" height="21.44"/>
		<polygon class="st4" points="332.2,259.79 332.09,263.88 327.37,263.75 327.47,260.27 323.39,260.16 323.3,263.64 319.23,263.53 
			319.33,259.81 315.04,259.69 314.79,268.99 336.22,269.57 336.49,259.9 		"/>
		<polygon class="st4" points="335.91,281.13 336.06,275.56 318.92,275.09 319.01,271.78 314.72,271.67 314.39,283.84 
			318.68,283.96 318.77,280.66 		"/>
		<path class="st4" d="M331.75,292.22l0.05-1.99l3.86-0.19l0.15-5.7l-21.52,2.61l-0.22,8.05l21.35,3.42l0.16-5.76L331.75,292.22z
			 M318.98,290.87c3.58-0.19,6.59-0.39,9.02-0.6l-0.05,1.92C326.06,291.99,323.07,291.55,318.98,290.87z"/>
		<path class="st4" d="M313.99,298.56l-0.16,5.88l3.97,0.49c3.19,0.41,6.85,0.82,10.97,1.21c-4.09,0.18-9.1,0.53-15.02,1.06
			l-0.16,5.88l21.52-2.64l0.23-8.47L313.99,298.56z"/>
	</g>
</g>
</svg>
